G04 #@! TF.GenerationSoftware,KiCad,Pcbnew,7.0.8-7.0.8~ubuntu22.04.1*
G04 #@! TF.CreationDate,2023-11-29T13:05:00-08:00*
G04 #@! TF.ProjectId,30 mm Cage Plate LED MCPCB,3330206d-6d20-4436-9167-6520506c6174,rev?*
G04 #@! TF.SameCoordinates,Original*
G04 #@! TF.FileFunction,Legend,Top*
G04 #@! TF.FilePolarity,Positive*
%FSLAX46Y46*%
G04 Gerber Fmt 4.6, Leading zero omitted, Abs format (unit mm)*
G04 Created by KiCad (PCBNEW 7.0.8-7.0.8~ubuntu22.04.1) date 2023-11-29 13:05:00*
%MOMM*%
%LPD*%
G01*
G04 APERTURE LIST*
%ADD10C,0.250000*%
%ADD11C,0.150000*%
%ADD12C,0.100000*%
%ADD13C,0.120000*%
%ADD14C,0.200000*%
%ADD15C,0.127000*%
%ADD16C,0.285372*%
%ADD17C,0.152400*%
%ADD18C,0.010000*%
G04 APERTURE END LIST*
D10*
X130110142Y-93474098D02*
X130110142Y-92731241D01*
X130110142Y-92731241D02*
X130567285Y-93131241D01*
X130567285Y-93131241D02*
X130567285Y-92959812D01*
X130567285Y-92959812D02*
X130624428Y-92845527D01*
X130624428Y-92845527D02*
X130681571Y-92788384D01*
X130681571Y-92788384D02*
X130795857Y-92731241D01*
X130795857Y-92731241D02*
X131081571Y-92731241D01*
X131081571Y-92731241D02*
X131195857Y-92788384D01*
X131195857Y-92788384D02*
X131253000Y-92845527D01*
X131253000Y-92845527D02*
X131310142Y-92959812D01*
X131310142Y-92959812D02*
X131310142Y-93302669D01*
X131310142Y-93302669D02*
X131253000Y-93416955D01*
X131253000Y-93416955D02*
X131195857Y-93474098D01*
X130110142Y-91988384D02*
X130110142Y-91874098D01*
X130110142Y-91874098D02*
X130167285Y-91759812D01*
X130167285Y-91759812D02*
X130224428Y-91702670D01*
X130224428Y-91702670D02*
X130338714Y-91645527D01*
X130338714Y-91645527D02*
X130567285Y-91588384D01*
X130567285Y-91588384D02*
X130853000Y-91588384D01*
X130853000Y-91588384D02*
X131081571Y-91645527D01*
X131081571Y-91645527D02*
X131195857Y-91702670D01*
X131195857Y-91702670D02*
X131253000Y-91759812D01*
X131253000Y-91759812D02*
X131310142Y-91874098D01*
X131310142Y-91874098D02*
X131310142Y-91988384D01*
X131310142Y-91988384D02*
X131253000Y-92102670D01*
X131253000Y-92102670D02*
X131195857Y-92159812D01*
X131195857Y-92159812D02*
X131081571Y-92216955D01*
X131081571Y-92216955D02*
X130853000Y-92274098D01*
X130853000Y-92274098D02*
X130567285Y-92274098D01*
X130567285Y-92274098D02*
X130338714Y-92216955D01*
X130338714Y-92216955D02*
X130224428Y-92159812D01*
X130224428Y-92159812D02*
X130167285Y-92102670D01*
X130167285Y-92102670D02*
X130110142Y-91988384D01*
X131310142Y-90159812D02*
X130510142Y-90159812D01*
X130624428Y-90159812D02*
X130567285Y-90102669D01*
X130567285Y-90102669D02*
X130510142Y-89988384D01*
X130510142Y-89988384D02*
X130510142Y-89816955D01*
X130510142Y-89816955D02*
X130567285Y-89702669D01*
X130567285Y-89702669D02*
X130681571Y-89645527D01*
X130681571Y-89645527D02*
X131310142Y-89645527D01*
X130681571Y-89645527D02*
X130567285Y-89588384D01*
X130567285Y-89588384D02*
X130510142Y-89474098D01*
X130510142Y-89474098D02*
X130510142Y-89302669D01*
X130510142Y-89302669D02*
X130567285Y-89188384D01*
X130567285Y-89188384D02*
X130681571Y-89131241D01*
X130681571Y-89131241D02*
X131310142Y-89131241D01*
X131310142Y-88559812D02*
X130510142Y-88559812D01*
X130624428Y-88559812D02*
X130567285Y-88502669D01*
X130567285Y-88502669D02*
X130510142Y-88388384D01*
X130510142Y-88388384D02*
X130510142Y-88216955D01*
X130510142Y-88216955D02*
X130567285Y-88102669D01*
X130567285Y-88102669D02*
X130681571Y-88045527D01*
X130681571Y-88045527D02*
X131310142Y-88045527D01*
X130681571Y-88045527D02*
X130567285Y-87988384D01*
X130567285Y-87988384D02*
X130510142Y-87874098D01*
X130510142Y-87874098D02*
X130510142Y-87702669D01*
X130510142Y-87702669D02*
X130567285Y-87588384D01*
X130567285Y-87588384D02*
X130681571Y-87531241D01*
X130681571Y-87531241D02*
X131310142Y-87531241D01*
X131195857Y-85359812D02*
X131253000Y-85416955D01*
X131253000Y-85416955D02*
X131310142Y-85588383D01*
X131310142Y-85588383D02*
X131310142Y-85702669D01*
X131310142Y-85702669D02*
X131253000Y-85874098D01*
X131253000Y-85874098D02*
X131138714Y-85988383D01*
X131138714Y-85988383D02*
X131024428Y-86045526D01*
X131024428Y-86045526D02*
X130795857Y-86102669D01*
X130795857Y-86102669D02*
X130624428Y-86102669D01*
X130624428Y-86102669D02*
X130395857Y-86045526D01*
X130395857Y-86045526D02*
X130281571Y-85988383D01*
X130281571Y-85988383D02*
X130167285Y-85874098D01*
X130167285Y-85874098D02*
X130110142Y-85702669D01*
X130110142Y-85702669D02*
X130110142Y-85588383D01*
X130110142Y-85588383D02*
X130167285Y-85416955D01*
X130167285Y-85416955D02*
X130224428Y-85359812D01*
X131310142Y-84331241D02*
X130681571Y-84331241D01*
X130681571Y-84331241D02*
X130567285Y-84388383D01*
X130567285Y-84388383D02*
X130510142Y-84502669D01*
X130510142Y-84502669D02*
X130510142Y-84731241D01*
X130510142Y-84731241D02*
X130567285Y-84845526D01*
X131253000Y-84331241D02*
X131310142Y-84445526D01*
X131310142Y-84445526D02*
X131310142Y-84731241D01*
X131310142Y-84731241D02*
X131253000Y-84845526D01*
X131253000Y-84845526D02*
X131138714Y-84902669D01*
X131138714Y-84902669D02*
X131024428Y-84902669D01*
X131024428Y-84902669D02*
X130910142Y-84845526D01*
X130910142Y-84845526D02*
X130853000Y-84731241D01*
X130853000Y-84731241D02*
X130853000Y-84445526D01*
X130853000Y-84445526D02*
X130795857Y-84331241D01*
X130510142Y-83245527D02*
X131481571Y-83245527D01*
X131481571Y-83245527D02*
X131595857Y-83302669D01*
X131595857Y-83302669D02*
X131653000Y-83359812D01*
X131653000Y-83359812D02*
X131710142Y-83474098D01*
X131710142Y-83474098D02*
X131710142Y-83645527D01*
X131710142Y-83645527D02*
X131653000Y-83759812D01*
X131253000Y-83245527D02*
X131310142Y-83359812D01*
X131310142Y-83359812D02*
X131310142Y-83588384D01*
X131310142Y-83588384D02*
X131253000Y-83702669D01*
X131253000Y-83702669D02*
X131195857Y-83759812D01*
X131195857Y-83759812D02*
X131081571Y-83816955D01*
X131081571Y-83816955D02*
X130738714Y-83816955D01*
X130738714Y-83816955D02*
X130624428Y-83759812D01*
X130624428Y-83759812D02*
X130567285Y-83702669D01*
X130567285Y-83702669D02*
X130510142Y-83588384D01*
X130510142Y-83588384D02*
X130510142Y-83359812D01*
X130510142Y-83359812D02*
X130567285Y-83245527D01*
X131253000Y-82216955D02*
X131310142Y-82331241D01*
X131310142Y-82331241D02*
X131310142Y-82559813D01*
X131310142Y-82559813D02*
X131253000Y-82674098D01*
X131253000Y-82674098D02*
X131138714Y-82731241D01*
X131138714Y-82731241D02*
X130681571Y-82731241D01*
X130681571Y-82731241D02*
X130567285Y-82674098D01*
X130567285Y-82674098D02*
X130510142Y-82559813D01*
X130510142Y-82559813D02*
X130510142Y-82331241D01*
X130510142Y-82331241D02*
X130567285Y-82216955D01*
X130567285Y-82216955D02*
X130681571Y-82159813D01*
X130681571Y-82159813D02*
X130795857Y-82159813D01*
X130795857Y-82159813D02*
X130910142Y-82731241D01*
X131310142Y-80731241D02*
X130110142Y-80731241D01*
X130110142Y-80731241D02*
X130110142Y-80274098D01*
X130110142Y-80274098D02*
X130167285Y-80159813D01*
X130167285Y-80159813D02*
X130224428Y-80102670D01*
X130224428Y-80102670D02*
X130338714Y-80045527D01*
X130338714Y-80045527D02*
X130510142Y-80045527D01*
X130510142Y-80045527D02*
X130624428Y-80102670D01*
X130624428Y-80102670D02*
X130681571Y-80159813D01*
X130681571Y-80159813D02*
X130738714Y-80274098D01*
X130738714Y-80274098D02*
X130738714Y-80731241D01*
X131310142Y-79359813D02*
X131253000Y-79474098D01*
X131253000Y-79474098D02*
X131138714Y-79531241D01*
X131138714Y-79531241D02*
X130110142Y-79531241D01*
X131310142Y-78388385D02*
X130681571Y-78388385D01*
X130681571Y-78388385D02*
X130567285Y-78445527D01*
X130567285Y-78445527D02*
X130510142Y-78559813D01*
X130510142Y-78559813D02*
X130510142Y-78788385D01*
X130510142Y-78788385D02*
X130567285Y-78902670D01*
X131253000Y-78388385D02*
X131310142Y-78502670D01*
X131310142Y-78502670D02*
X131310142Y-78788385D01*
X131310142Y-78788385D02*
X131253000Y-78902670D01*
X131253000Y-78902670D02*
X131138714Y-78959813D01*
X131138714Y-78959813D02*
X131024428Y-78959813D01*
X131024428Y-78959813D02*
X130910142Y-78902670D01*
X130910142Y-78902670D02*
X130853000Y-78788385D01*
X130853000Y-78788385D02*
X130853000Y-78502670D01*
X130853000Y-78502670D02*
X130795857Y-78388385D01*
X130510142Y-77988385D02*
X130510142Y-77531242D01*
X130110142Y-77816956D02*
X131138714Y-77816956D01*
X131138714Y-77816956D02*
X131253000Y-77759813D01*
X131253000Y-77759813D02*
X131310142Y-77645528D01*
X131310142Y-77645528D02*
X131310142Y-77531242D01*
X131253000Y-76674099D02*
X131310142Y-76788385D01*
X131310142Y-76788385D02*
X131310142Y-77016957D01*
X131310142Y-77016957D02*
X131253000Y-77131242D01*
X131253000Y-77131242D02*
X131138714Y-77188385D01*
X131138714Y-77188385D02*
X130681571Y-77188385D01*
X130681571Y-77188385D02*
X130567285Y-77131242D01*
X130567285Y-77131242D02*
X130510142Y-77016957D01*
X130510142Y-77016957D02*
X130510142Y-76788385D01*
X130510142Y-76788385D02*
X130567285Y-76674099D01*
X130567285Y-76674099D02*
X130681571Y-76616957D01*
X130681571Y-76616957D02*
X130795857Y-76616957D01*
X130795857Y-76616957D02*
X130910142Y-77188385D01*
X131310142Y-74616957D02*
X131310142Y-75188385D01*
X131310142Y-75188385D02*
X130110142Y-75188385D01*
X130681571Y-74216956D02*
X130681571Y-73816956D01*
X131310142Y-73645528D02*
X131310142Y-74216956D01*
X131310142Y-74216956D02*
X130110142Y-74216956D01*
X130110142Y-74216956D02*
X130110142Y-73645528D01*
X131310142Y-73131242D02*
X130110142Y-73131242D01*
X130110142Y-73131242D02*
X130110142Y-72845528D01*
X130110142Y-72845528D02*
X130167285Y-72674099D01*
X130167285Y-72674099D02*
X130281571Y-72559814D01*
X130281571Y-72559814D02*
X130395857Y-72502671D01*
X130395857Y-72502671D02*
X130624428Y-72445528D01*
X130624428Y-72445528D02*
X130795857Y-72445528D01*
X130795857Y-72445528D02*
X131024428Y-72502671D01*
X131024428Y-72502671D02*
X131138714Y-72559814D01*
X131138714Y-72559814D02*
X131253000Y-72674099D01*
X131253000Y-72674099D02*
X131310142Y-72845528D01*
X131310142Y-72845528D02*
X131310142Y-73131242D01*
X131310142Y-71016956D02*
X130110142Y-71016956D01*
X130110142Y-71016956D02*
X130110142Y-70731242D01*
X130110142Y-70731242D02*
X130167285Y-70559813D01*
X130167285Y-70559813D02*
X130281571Y-70445528D01*
X130281571Y-70445528D02*
X130395857Y-70388385D01*
X130395857Y-70388385D02*
X130624428Y-70331242D01*
X130624428Y-70331242D02*
X130795857Y-70331242D01*
X130795857Y-70331242D02*
X131024428Y-70388385D01*
X131024428Y-70388385D02*
X131138714Y-70445528D01*
X131138714Y-70445528D02*
X131253000Y-70559813D01*
X131253000Y-70559813D02*
X131310142Y-70731242D01*
X131310142Y-70731242D02*
X131310142Y-71016956D01*
X131310142Y-69816956D02*
X130510142Y-69816956D01*
X130738714Y-69816956D02*
X130624428Y-69759813D01*
X130624428Y-69759813D02*
X130567285Y-69702671D01*
X130567285Y-69702671D02*
X130510142Y-69588385D01*
X130510142Y-69588385D02*
X130510142Y-69474099D01*
X131310142Y-69074099D02*
X130510142Y-69074099D01*
X130110142Y-69074099D02*
X130167285Y-69131242D01*
X130167285Y-69131242D02*
X130224428Y-69074099D01*
X130224428Y-69074099D02*
X130167285Y-69016956D01*
X130167285Y-69016956D02*
X130110142Y-69074099D01*
X130110142Y-69074099D02*
X130224428Y-69074099D01*
X130510142Y-68616956D02*
X131310142Y-68331242D01*
X131310142Y-68331242D02*
X130510142Y-68045527D01*
X131253000Y-67131241D02*
X131310142Y-67245527D01*
X131310142Y-67245527D02*
X131310142Y-67474099D01*
X131310142Y-67474099D02*
X131253000Y-67588384D01*
X131253000Y-67588384D02*
X131138714Y-67645527D01*
X131138714Y-67645527D02*
X130681571Y-67645527D01*
X130681571Y-67645527D02*
X130567285Y-67588384D01*
X130567285Y-67588384D02*
X130510142Y-67474099D01*
X130510142Y-67474099D02*
X130510142Y-67245527D01*
X130510142Y-67245527D02*
X130567285Y-67131241D01*
X130567285Y-67131241D02*
X130681571Y-67074099D01*
X130681571Y-67074099D02*
X130795857Y-67074099D01*
X130795857Y-67074099D02*
X130910142Y-67645527D01*
X131310142Y-66559813D02*
X130510142Y-66559813D01*
X130738714Y-66559813D02*
X130624428Y-66502670D01*
X130624428Y-66502670D02*
X130567285Y-66445528D01*
X130567285Y-66445528D02*
X130510142Y-66331242D01*
X130510142Y-66331242D02*
X130510142Y-66216956D01*
D11*
X133149819Y-91892380D02*
X132149819Y-91892380D01*
X132149819Y-91892380D02*
X132149819Y-91654285D01*
X132149819Y-91654285D02*
X132197438Y-91511428D01*
X132197438Y-91511428D02*
X132292676Y-91416190D01*
X132292676Y-91416190D02*
X132387914Y-91368571D01*
X132387914Y-91368571D02*
X132578390Y-91320952D01*
X132578390Y-91320952D02*
X132721247Y-91320952D01*
X132721247Y-91320952D02*
X132911723Y-91368571D01*
X132911723Y-91368571D02*
X133006961Y-91416190D01*
X133006961Y-91416190D02*
X133102200Y-91511428D01*
X133102200Y-91511428D02*
X133149819Y-91654285D01*
X133149819Y-91654285D02*
X133149819Y-91892380D01*
X133102200Y-90511428D02*
X133149819Y-90606666D01*
X133149819Y-90606666D02*
X133149819Y-90797142D01*
X133149819Y-90797142D02*
X133102200Y-90892380D01*
X133102200Y-90892380D02*
X133006961Y-90939999D01*
X133006961Y-90939999D02*
X132626009Y-90939999D01*
X132626009Y-90939999D02*
X132530771Y-90892380D01*
X132530771Y-90892380D02*
X132483152Y-90797142D01*
X132483152Y-90797142D02*
X132483152Y-90606666D01*
X132483152Y-90606666D02*
X132530771Y-90511428D01*
X132530771Y-90511428D02*
X132626009Y-90463809D01*
X132626009Y-90463809D02*
X132721247Y-90463809D01*
X132721247Y-90463809D02*
X132816485Y-90939999D01*
X133102200Y-90082856D02*
X133149819Y-89987618D01*
X133149819Y-89987618D02*
X133149819Y-89797142D01*
X133149819Y-89797142D02*
X133102200Y-89701904D01*
X133102200Y-89701904D02*
X133006961Y-89654285D01*
X133006961Y-89654285D02*
X132959342Y-89654285D01*
X132959342Y-89654285D02*
X132864104Y-89701904D01*
X132864104Y-89701904D02*
X132816485Y-89797142D01*
X132816485Y-89797142D02*
X132816485Y-89939999D01*
X132816485Y-89939999D02*
X132768866Y-90035237D01*
X132768866Y-90035237D02*
X132673628Y-90082856D01*
X132673628Y-90082856D02*
X132626009Y-90082856D01*
X132626009Y-90082856D02*
X132530771Y-90035237D01*
X132530771Y-90035237D02*
X132483152Y-89939999D01*
X132483152Y-89939999D02*
X132483152Y-89797142D01*
X132483152Y-89797142D02*
X132530771Y-89701904D01*
X133149819Y-89225713D02*
X132483152Y-89225713D01*
X132149819Y-89225713D02*
X132197438Y-89273332D01*
X132197438Y-89273332D02*
X132245057Y-89225713D01*
X132245057Y-89225713D02*
X132197438Y-89178094D01*
X132197438Y-89178094D02*
X132149819Y-89225713D01*
X132149819Y-89225713D02*
X132245057Y-89225713D01*
X132483152Y-88320952D02*
X133292676Y-88320952D01*
X133292676Y-88320952D02*
X133387914Y-88368571D01*
X133387914Y-88368571D02*
X133435533Y-88416190D01*
X133435533Y-88416190D02*
X133483152Y-88511428D01*
X133483152Y-88511428D02*
X133483152Y-88654285D01*
X133483152Y-88654285D02*
X133435533Y-88749523D01*
X133102200Y-88320952D02*
X133149819Y-88416190D01*
X133149819Y-88416190D02*
X133149819Y-88606666D01*
X133149819Y-88606666D02*
X133102200Y-88701904D01*
X133102200Y-88701904D02*
X133054580Y-88749523D01*
X133054580Y-88749523D02*
X132959342Y-88797142D01*
X132959342Y-88797142D02*
X132673628Y-88797142D01*
X132673628Y-88797142D02*
X132578390Y-88749523D01*
X132578390Y-88749523D02*
X132530771Y-88701904D01*
X132530771Y-88701904D02*
X132483152Y-88606666D01*
X132483152Y-88606666D02*
X132483152Y-88416190D01*
X132483152Y-88416190D02*
X132530771Y-88320952D01*
X132483152Y-87844761D02*
X133149819Y-87844761D01*
X132578390Y-87844761D02*
X132530771Y-87797142D01*
X132530771Y-87797142D02*
X132483152Y-87701904D01*
X132483152Y-87701904D02*
X132483152Y-87559047D01*
X132483152Y-87559047D02*
X132530771Y-87463809D01*
X132530771Y-87463809D02*
X132626009Y-87416190D01*
X132626009Y-87416190D02*
X133149819Y-87416190D01*
X133102200Y-86559047D02*
X133149819Y-86654285D01*
X133149819Y-86654285D02*
X133149819Y-86844761D01*
X133149819Y-86844761D02*
X133102200Y-86939999D01*
X133102200Y-86939999D02*
X133006961Y-86987618D01*
X133006961Y-86987618D02*
X132626009Y-86987618D01*
X132626009Y-86987618D02*
X132530771Y-86939999D01*
X132530771Y-86939999D02*
X132483152Y-86844761D01*
X132483152Y-86844761D02*
X132483152Y-86654285D01*
X132483152Y-86654285D02*
X132530771Y-86559047D01*
X132530771Y-86559047D02*
X132626009Y-86511428D01*
X132626009Y-86511428D02*
X132721247Y-86511428D01*
X132721247Y-86511428D02*
X132816485Y-86987618D01*
X133149819Y-85654285D02*
X132149819Y-85654285D01*
X133102200Y-85654285D02*
X133149819Y-85749523D01*
X133149819Y-85749523D02*
X133149819Y-85939999D01*
X133149819Y-85939999D02*
X133102200Y-86035237D01*
X133102200Y-86035237D02*
X133054580Y-86082856D01*
X133054580Y-86082856D02*
X132959342Y-86130475D01*
X132959342Y-86130475D02*
X132673628Y-86130475D01*
X132673628Y-86130475D02*
X132578390Y-86082856D01*
X132578390Y-86082856D02*
X132530771Y-86035237D01*
X132530771Y-86035237D02*
X132483152Y-85939999D01*
X132483152Y-85939999D02*
X132483152Y-85749523D01*
X132483152Y-85749523D02*
X132530771Y-85654285D01*
X133149819Y-84416189D02*
X132149819Y-84416189D01*
X132530771Y-84416189D02*
X132483152Y-84320951D01*
X132483152Y-84320951D02*
X132483152Y-84130475D01*
X132483152Y-84130475D02*
X132530771Y-84035237D01*
X132530771Y-84035237D02*
X132578390Y-83987618D01*
X132578390Y-83987618D02*
X132673628Y-83939999D01*
X132673628Y-83939999D02*
X132959342Y-83939999D01*
X132959342Y-83939999D02*
X133054580Y-83987618D01*
X133054580Y-83987618D02*
X133102200Y-84035237D01*
X133102200Y-84035237D02*
X133149819Y-84130475D01*
X133149819Y-84130475D02*
X133149819Y-84320951D01*
X133149819Y-84320951D02*
X133102200Y-84416189D01*
X132483152Y-83606665D02*
X133149819Y-83368570D01*
X132483152Y-83130475D02*
X133149819Y-83368570D01*
X133149819Y-83368570D02*
X133387914Y-83463808D01*
X133387914Y-83463808D02*
X133435533Y-83511427D01*
X133435533Y-83511427D02*
X133483152Y-83606665D01*
X133054580Y-82749522D02*
X133102200Y-82701903D01*
X133102200Y-82701903D02*
X133149819Y-82749522D01*
X133149819Y-82749522D02*
X133102200Y-82797141D01*
X133102200Y-82797141D02*
X133054580Y-82749522D01*
X133054580Y-82749522D02*
X133149819Y-82749522D01*
X132530771Y-82749522D02*
X132578390Y-82701903D01*
X132578390Y-82701903D02*
X132626009Y-82749522D01*
X132626009Y-82749522D02*
X132578390Y-82797141D01*
X132578390Y-82797141D02*
X132530771Y-82749522D01*
X132530771Y-82749522D02*
X132626009Y-82749522D01*
X132626009Y-81178094D02*
X132673628Y-81035237D01*
X132673628Y-81035237D02*
X132721247Y-80987618D01*
X132721247Y-80987618D02*
X132816485Y-80939999D01*
X132816485Y-80939999D02*
X132959342Y-80939999D01*
X132959342Y-80939999D02*
X133054580Y-80987618D01*
X133054580Y-80987618D02*
X133102200Y-81035237D01*
X133102200Y-81035237D02*
X133149819Y-81130475D01*
X133149819Y-81130475D02*
X133149819Y-81511427D01*
X133149819Y-81511427D02*
X132149819Y-81511427D01*
X132149819Y-81511427D02*
X132149819Y-81178094D01*
X132149819Y-81178094D02*
X132197438Y-81082856D01*
X132197438Y-81082856D02*
X132245057Y-81035237D01*
X132245057Y-81035237D02*
X132340295Y-80987618D01*
X132340295Y-80987618D02*
X132435533Y-80987618D01*
X132435533Y-80987618D02*
X132530771Y-81035237D01*
X132530771Y-81035237D02*
X132578390Y-81082856D01*
X132578390Y-81082856D02*
X132626009Y-81178094D01*
X132626009Y-81178094D02*
X132626009Y-81511427D01*
X133102200Y-80130475D02*
X133149819Y-80225713D01*
X133149819Y-80225713D02*
X133149819Y-80416189D01*
X133149819Y-80416189D02*
X133102200Y-80511427D01*
X133102200Y-80511427D02*
X133006961Y-80559046D01*
X133006961Y-80559046D02*
X132626009Y-80559046D01*
X132626009Y-80559046D02*
X132530771Y-80511427D01*
X132530771Y-80511427D02*
X132483152Y-80416189D01*
X132483152Y-80416189D02*
X132483152Y-80225713D01*
X132483152Y-80225713D02*
X132530771Y-80130475D01*
X132530771Y-80130475D02*
X132626009Y-80082856D01*
X132626009Y-80082856D02*
X132721247Y-80082856D01*
X132721247Y-80082856D02*
X132816485Y-80559046D01*
X132483152Y-79654284D02*
X133149819Y-79654284D01*
X132578390Y-79654284D02*
X132530771Y-79606665D01*
X132530771Y-79606665D02*
X132483152Y-79511427D01*
X132483152Y-79511427D02*
X132483152Y-79368570D01*
X132483152Y-79368570D02*
X132530771Y-79273332D01*
X132530771Y-79273332D02*
X132626009Y-79225713D01*
X132626009Y-79225713D02*
X133149819Y-79225713D01*
X132483152Y-78749522D02*
X133340295Y-78749522D01*
X133340295Y-78749522D02*
X133435533Y-78797141D01*
X133435533Y-78797141D02*
X133483152Y-78892379D01*
X133483152Y-78892379D02*
X133483152Y-78939998D01*
X132149819Y-78749522D02*
X132197438Y-78797141D01*
X132197438Y-78797141D02*
X132245057Y-78749522D01*
X132245057Y-78749522D02*
X132197438Y-78701903D01*
X132197438Y-78701903D02*
X132149819Y-78749522D01*
X132149819Y-78749522D02*
X132245057Y-78749522D01*
X133149819Y-77844761D02*
X132626009Y-77844761D01*
X132626009Y-77844761D02*
X132530771Y-77892380D01*
X132530771Y-77892380D02*
X132483152Y-77987618D01*
X132483152Y-77987618D02*
X132483152Y-78178094D01*
X132483152Y-78178094D02*
X132530771Y-78273332D01*
X133102200Y-77844761D02*
X133149819Y-77939999D01*
X133149819Y-77939999D02*
X133149819Y-78178094D01*
X133149819Y-78178094D02*
X133102200Y-78273332D01*
X133102200Y-78273332D02*
X133006961Y-78320951D01*
X133006961Y-78320951D02*
X132911723Y-78320951D01*
X132911723Y-78320951D02*
X132816485Y-78273332D01*
X132816485Y-78273332D02*
X132768866Y-78178094D01*
X132768866Y-78178094D02*
X132768866Y-77939999D01*
X132768866Y-77939999D02*
X132721247Y-77844761D01*
X133149819Y-77368570D02*
X132483152Y-77368570D01*
X132578390Y-77368570D02*
X132530771Y-77320951D01*
X132530771Y-77320951D02*
X132483152Y-77225713D01*
X132483152Y-77225713D02*
X132483152Y-77082856D01*
X132483152Y-77082856D02*
X132530771Y-76987618D01*
X132530771Y-76987618D02*
X132626009Y-76939999D01*
X132626009Y-76939999D02*
X133149819Y-76939999D01*
X132626009Y-76939999D02*
X132530771Y-76892380D01*
X132530771Y-76892380D02*
X132483152Y-76797142D01*
X132483152Y-76797142D02*
X132483152Y-76654285D01*
X132483152Y-76654285D02*
X132530771Y-76559046D01*
X132530771Y-76559046D02*
X132626009Y-76511427D01*
X132626009Y-76511427D02*
X133149819Y-76511427D01*
X133149819Y-76035237D02*
X132483152Y-76035237D01*
X132149819Y-76035237D02*
X132197438Y-76082856D01*
X132197438Y-76082856D02*
X132245057Y-76035237D01*
X132245057Y-76035237D02*
X132197438Y-75987618D01*
X132197438Y-75987618D02*
X132149819Y-76035237D01*
X132149819Y-76035237D02*
X132245057Y-76035237D01*
X132483152Y-75559047D02*
X133149819Y-75559047D01*
X132578390Y-75559047D02*
X132530771Y-75511428D01*
X132530771Y-75511428D02*
X132483152Y-75416190D01*
X132483152Y-75416190D02*
X132483152Y-75273333D01*
X132483152Y-75273333D02*
X132530771Y-75178095D01*
X132530771Y-75178095D02*
X132626009Y-75130476D01*
X132626009Y-75130476D02*
X133149819Y-75130476D01*
X132626009Y-73892380D02*
X132626009Y-73559047D01*
X133149819Y-73416190D02*
X133149819Y-73892380D01*
X133149819Y-73892380D02*
X132149819Y-73892380D01*
X132149819Y-73892380D02*
X132149819Y-73416190D01*
X133054580Y-72987618D02*
X133102200Y-72939999D01*
X133102200Y-72939999D02*
X133149819Y-72987618D01*
X133149819Y-72987618D02*
X133102200Y-73035237D01*
X133102200Y-73035237D02*
X133054580Y-72987618D01*
X133054580Y-72987618D02*
X133149819Y-72987618D01*
X133102200Y-71797142D02*
X133149819Y-71654285D01*
X133149819Y-71654285D02*
X133149819Y-71416190D01*
X133149819Y-71416190D02*
X133102200Y-71320952D01*
X133102200Y-71320952D02*
X133054580Y-71273333D01*
X133054580Y-71273333D02*
X132959342Y-71225714D01*
X132959342Y-71225714D02*
X132864104Y-71225714D01*
X132864104Y-71225714D02*
X132768866Y-71273333D01*
X132768866Y-71273333D02*
X132721247Y-71320952D01*
X132721247Y-71320952D02*
X132673628Y-71416190D01*
X132673628Y-71416190D02*
X132626009Y-71606666D01*
X132626009Y-71606666D02*
X132578390Y-71701904D01*
X132578390Y-71701904D02*
X132530771Y-71749523D01*
X132530771Y-71749523D02*
X132435533Y-71797142D01*
X132435533Y-71797142D02*
X132340295Y-71797142D01*
X132340295Y-71797142D02*
X132245057Y-71749523D01*
X132245057Y-71749523D02*
X132197438Y-71701904D01*
X132197438Y-71701904D02*
X132149819Y-71606666D01*
X132149819Y-71606666D02*
X132149819Y-71368571D01*
X132149819Y-71368571D02*
X132197438Y-71225714D01*
X133149819Y-70797142D02*
X132483152Y-70797142D01*
X132578390Y-70797142D02*
X132530771Y-70749523D01*
X132530771Y-70749523D02*
X132483152Y-70654285D01*
X132483152Y-70654285D02*
X132483152Y-70511428D01*
X132483152Y-70511428D02*
X132530771Y-70416190D01*
X132530771Y-70416190D02*
X132626009Y-70368571D01*
X132626009Y-70368571D02*
X133149819Y-70368571D01*
X132626009Y-70368571D02*
X132530771Y-70320952D01*
X132530771Y-70320952D02*
X132483152Y-70225714D01*
X132483152Y-70225714D02*
X132483152Y-70082857D01*
X132483152Y-70082857D02*
X132530771Y-69987618D01*
X132530771Y-69987618D02*
X132626009Y-69939999D01*
X132626009Y-69939999D02*
X133149819Y-69939999D01*
X133149819Y-69463809D02*
X132483152Y-69463809D01*
X132149819Y-69463809D02*
X132197438Y-69511428D01*
X132197438Y-69511428D02*
X132245057Y-69463809D01*
X132245057Y-69463809D02*
X132197438Y-69416190D01*
X132197438Y-69416190D02*
X132149819Y-69463809D01*
X132149819Y-69463809D02*
X132245057Y-69463809D01*
X132483152Y-69130476D02*
X132483152Y-68749524D01*
X132149819Y-68987619D02*
X133006961Y-68987619D01*
X133006961Y-68987619D02*
X133102200Y-68940000D01*
X133102200Y-68940000D02*
X133149819Y-68844762D01*
X133149819Y-68844762D02*
X133149819Y-68749524D01*
X133149819Y-68416190D02*
X132149819Y-68416190D01*
X133149819Y-67987619D02*
X132626009Y-67987619D01*
X132626009Y-67987619D02*
X132530771Y-68035238D01*
X132530771Y-68035238D02*
X132483152Y-68130476D01*
X132483152Y-68130476D02*
X132483152Y-68273333D01*
X132483152Y-68273333D02*
X132530771Y-68368571D01*
X132530771Y-68368571D02*
X132578390Y-68416190D01*
X134236009Y-90725714D02*
X134236009Y-91059047D01*
X134759819Y-91059047D02*
X133759819Y-91059047D01*
X133759819Y-91059047D02*
X133759819Y-90582857D01*
X134093152Y-89773333D02*
X134759819Y-89773333D01*
X134093152Y-90201904D02*
X134616961Y-90201904D01*
X134616961Y-90201904D02*
X134712200Y-90154285D01*
X134712200Y-90154285D02*
X134759819Y-90059047D01*
X134759819Y-90059047D02*
X134759819Y-89916190D01*
X134759819Y-89916190D02*
X134712200Y-89820952D01*
X134712200Y-89820952D02*
X134664580Y-89773333D01*
X134093152Y-89297142D02*
X134759819Y-89297142D01*
X134188390Y-89297142D02*
X134140771Y-89249523D01*
X134140771Y-89249523D02*
X134093152Y-89154285D01*
X134093152Y-89154285D02*
X134093152Y-89011428D01*
X134093152Y-89011428D02*
X134140771Y-88916190D01*
X134140771Y-88916190D02*
X134236009Y-88868571D01*
X134236009Y-88868571D02*
X134759819Y-88868571D01*
X134759819Y-87963809D02*
X133759819Y-87963809D01*
X134712200Y-87963809D02*
X134759819Y-88059047D01*
X134759819Y-88059047D02*
X134759819Y-88249523D01*
X134759819Y-88249523D02*
X134712200Y-88344761D01*
X134712200Y-88344761D02*
X134664580Y-88392380D01*
X134664580Y-88392380D02*
X134569342Y-88439999D01*
X134569342Y-88439999D02*
X134283628Y-88439999D01*
X134283628Y-88439999D02*
X134188390Y-88392380D01*
X134188390Y-88392380D02*
X134140771Y-88344761D01*
X134140771Y-88344761D02*
X134093152Y-88249523D01*
X134093152Y-88249523D02*
X134093152Y-88059047D01*
X134093152Y-88059047D02*
X134140771Y-87963809D01*
X134712200Y-87106666D02*
X134759819Y-87201904D01*
X134759819Y-87201904D02*
X134759819Y-87392380D01*
X134759819Y-87392380D02*
X134712200Y-87487618D01*
X134712200Y-87487618D02*
X134616961Y-87535237D01*
X134616961Y-87535237D02*
X134236009Y-87535237D01*
X134236009Y-87535237D02*
X134140771Y-87487618D01*
X134140771Y-87487618D02*
X134093152Y-87392380D01*
X134093152Y-87392380D02*
X134093152Y-87201904D01*
X134093152Y-87201904D02*
X134140771Y-87106666D01*
X134140771Y-87106666D02*
X134236009Y-87059047D01*
X134236009Y-87059047D02*
X134331247Y-87059047D01*
X134331247Y-87059047D02*
X134426485Y-87535237D01*
X134759819Y-86201904D02*
X133759819Y-86201904D01*
X134712200Y-86201904D02*
X134759819Y-86297142D01*
X134759819Y-86297142D02*
X134759819Y-86487618D01*
X134759819Y-86487618D02*
X134712200Y-86582856D01*
X134712200Y-86582856D02*
X134664580Y-86630475D01*
X134664580Y-86630475D02*
X134569342Y-86678094D01*
X134569342Y-86678094D02*
X134283628Y-86678094D01*
X134283628Y-86678094D02*
X134188390Y-86630475D01*
X134188390Y-86630475D02*
X134140771Y-86582856D01*
X134140771Y-86582856D02*
X134093152Y-86487618D01*
X134093152Y-86487618D02*
X134093152Y-86297142D01*
X134093152Y-86297142D02*
X134140771Y-86201904D01*
X134759819Y-84963808D02*
X133759819Y-84963808D01*
X134140771Y-84963808D02*
X134093152Y-84868570D01*
X134093152Y-84868570D02*
X134093152Y-84678094D01*
X134093152Y-84678094D02*
X134140771Y-84582856D01*
X134140771Y-84582856D02*
X134188390Y-84535237D01*
X134188390Y-84535237D02*
X134283628Y-84487618D01*
X134283628Y-84487618D02*
X134569342Y-84487618D01*
X134569342Y-84487618D02*
X134664580Y-84535237D01*
X134664580Y-84535237D02*
X134712200Y-84582856D01*
X134712200Y-84582856D02*
X134759819Y-84678094D01*
X134759819Y-84678094D02*
X134759819Y-84868570D01*
X134759819Y-84868570D02*
X134712200Y-84963808D01*
X134093152Y-84154284D02*
X134759819Y-83916189D01*
X134093152Y-83678094D02*
X134759819Y-83916189D01*
X134759819Y-83916189D02*
X134997914Y-84011427D01*
X134997914Y-84011427D02*
X135045533Y-84059046D01*
X135045533Y-84059046D02*
X135093152Y-84154284D01*
X134664580Y-83297141D02*
X134712200Y-83249522D01*
X134712200Y-83249522D02*
X134759819Y-83297141D01*
X134759819Y-83297141D02*
X134712200Y-83344760D01*
X134712200Y-83344760D02*
X134664580Y-83297141D01*
X134664580Y-83297141D02*
X134759819Y-83297141D01*
X134140771Y-83297141D02*
X134188390Y-83249522D01*
X134188390Y-83249522D02*
X134236009Y-83297141D01*
X134236009Y-83297141D02*
X134188390Y-83344760D01*
X134188390Y-83344760D02*
X134140771Y-83297141D01*
X134140771Y-83297141D02*
X134236009Y-83297141D01*
X134759819Y-82059046D02*
X133759819Y-82059046D01*
X133759819Y-82059046D02*
X134759819Y-81487618D01*
X134759819Y-81487618D02*
X133759819Y-81487618D01*
X134759819Y-81011427D02*
X133759819Y-81011427D01*
X134759819Y-80535237D02*
X133759819Y-80535237D01*
X134236009Y-80535237D02*
X134236009Y-79963809D01*
X134759819Y-79963809D02*
X133759819Y-79963809D01*
X134759819Y-78725713D02*
X133759819Y-78725713D01*
X133759819Y-78725713D02*
X133759819Y-78344761D01*
X133759819Y-78344761D02*
X133807438Y-78249523D01*
X133807438Y-78249523D02*
X133855057Y-78201904D01*
X133855057Y-78201904D02*
X133950295Y-78154285D01*
X133950295Y-78154285D02*
X134093152Y-78154285D01*
X134093152Y-78154285D02*
X134188390Y-78201904D01*
X134188390Y-78201904D02*
X134236009Y-78249523D01*
X134236009Y-78249523D02*
X134283628Y-78344761D01*
X134283628Y-78344761D02*
X134283628Y-78725713D01*
X133759819Y-77820951D02*
X133759819Y-77201904D01*
X133759819Y-77201904D02*
X134140771Y-77535237D01*
X134140771Y-77535237D02*
X134140771Y-77392380D01*
X134140771Y-77392380D02*
X134188390Y-77297142D01*
X134188390Y-77297142D02*
X134236009Y-77249523D01*
X134236009Y-77249523D02*
X134331247Y-77201904D01*
X134331247Y-77201904D02*
X134569342Y-77201904D01*
X134569342Y-77201904D02*
X134664580Y-77249523D01*
X134664580Y-77249523D02*
X134712200Y-77297142D01*
X134712200Y-77297142D02*
X134759819Y-77392380D01*
X134759819Y-77392380D02*
X134759819Y-77678094D01*
X134759819Y-77678094D02*
X134712200Y-77773332D01*
X134712200Y-77773332D02*
X134664580Y-77820951D01*
X133759819Y-76582856D02*
X133759819Y-76487618D01*
X133759819Y-76487618D02*
X133807438Y-76392380D01*
X133807438Y-76392380D02*
X133855057Y-76344761D01*
X133855057Y-76344761D02*
X133950295Y-76297142D01*
X133950295Y-76297142D02*
X134140771Y-76249523D01*
X134140771Y-76249523D02*
X134378866Y-76249523D01*
X134378866Y-76249523D02*
X134569342Y-76297142D01*
X134569342Y-76297142D02*
X134664580Y-76344761D01*
X134664580Y-76344761D02*
X134712200Y-76392380D01*
X134712200Y-76392380D02*
X134759819Y-76487618D01*
X134759819Y-76487618D02*
X134759819Y-76582856D01*
X134759819Y-76582856D02*
X134712200Y-76678094D01*
X134712200Y-76678094D02*
X134664580Y-76725713D01*
X134664580Y-76725713D02*
X134569342Y-76773332D01*
X134569342Y-76773332D02*
X134378866Y-76820951D01*
X134378866Y-76820951D02*
X134140771Y-76820951D01*
X134140771Y-76820951D02*
X133950295Y-76773332D01*
X133950295Y-76773332D02*
X133855057Y-76725713D01*
X133855057Y-76725713D02*
X133807438Y-76678094D01*
X133807438Y-76678094D02*
X133759819Y-76582856D01*
X134236009Y-75820951D02*
X134236009Y-75487618D01*
X134759819Y-75344761D02*
X134759819Y-75820951D01*
X134759819Y-75820951D02*
X133759819Y-75820951D01*
X133759819Y-75820951D02*
X133759819Y-75344761D01*
X134283628Y-74725713D02*
X134759819Y-74725713D01*
X133759819Y-75059046D02*
X134283628Y-74725713D01*
X134283628Y-74725713D02*
X133759819Y-74392380D01*
X133759819Y-73868570D02*
X133759819Y-73773332D01*
X133759819Y-73773332D02*
X133807438Y-73678094D01*
X133807438Y-73678094D02*
X133855057Y-73630475D01*
X133855057Y-73630475D02*
X133950295Y-73582856D01*
X133950295Y-73582856D02*
X134140771Y-73535237D01*
X134140771Y-73535237D02*
X134378866Y-73535237D01*
X134378866Y-73535237D02*
X134569342Y-73582856D01*
X134569342Y-73582856D02*
X134664580Y-73630475D01*
X134664580Y-73630475D02*
X134712200Y-73678094D01*
X134712200Y-73678094D02*
X134759819Y-73773332D01*
X134759819Y-73773332D02*
X134759819Y-73868570D01*
X134759819Y-73868570D02*
X134712200Y-73963808D01*
X134712200Y-73963808D02*
X134664580Y-74011427D01*
X134664580Y-74011427D02*
X134569342Y-74059046D01*
X134569342Y-74059046D02*
X134378866Y-74106665D01*
X134378866Y-74106665D02*
X134140771Y-74106665D01*
X134140771Y-74106665D02*
X133950295Y-74059046D01*
X133950295Y-74059046D02*
X133855057Y-74011427D01*
X133855057Y-74011427D02*
X133807438Y-73963808D01*
X133807438Y-73963808D02*
X133759819Y-73868570D01*
X133759819Y-72916189D02*
X133759819Y-72820951D01*
X133759819Y-72820951D02*
X133807438Y-72725713D01*
X133807438Y-72725713D02*
X133855057Y-72678094D01*
X133855057Y-72678094D02*
X133950295Y-72630475D01*
X133950295Y-72630475D02*
X134140771Y-72582856D01*
X134140771Y-72582856D02*
X134378866Y-72582856D01*
X134378866Y-72582856D02*
X134569342Y-72630475D01*
X134569342Y-72630475D02*
X134664580Y-72678094D01*
X134664580Y-72678094D02*
X134712200Y-72725713D01*
X134712200Y-72725713D02*
X134759819Y-72820951D01*
X134759819Y-72820951D02*
X134759819Y-72916189D01*
X134759819Y-72916189D02*
X134712200Y-73011427D01*
X134712200Y-73011427D02*
X134664580Y-73059046D01*
X134664580Y-73059046D02*
X134569342Y-73106665D01*
X134569342Y-73106665D02*
X134378866Y-73154284D01*
X134378866Y-73154284D02*
X134140771Y-73154284D01*
X134140771Y-73154284D02*
X133950295Y-73106665D01*
X133950295Y-73106665D02*
X133855057Y-73059046D01*
X133855057Y-73059046D02*
X133807438Y-73011427D01*
X133807438Y-73011427D02*
X133759819Y-72916189D01*
X133759819Y-72249522D02*
X133759819Y-71630475D01*
X133759819Y-71630475D02*
X134140771Y-71963808D01*
X134140771Y-71963808D02*
X134140771Y-71820951D01*
X134140771Y-71820951D02*
X134188390Y-71725713D01*
X134188390Y-71725713D02*
X134236009Y-71678094D01*
X134236009Y-71678094D02*
X134331247Y-71630475D01*
X134331247Y-71630475D02*
X134569342Y-71630475D01*
X134569342Y-71630475D02*
X134664580Y-71678094D01*
X134664580Y-71678094D02*
X134712200Y-71725713D01*
X134712200Y-71725713D02*
X134759819Y-71820951D01*
X134759819Y-71820951D02*
X134759819Y-72106665D01*
X134759819Y-72106665D02*
X134712200Y-72201903D01*
X134712200Y-72201903D02*
X134664580Y-72249522D01*
X134759819Y-70678094D02*
X134759819Y-71249522D01*
X134759819Y-70963808D02*
X133759819Y-70963808D01*
X133759819Y-70963808D02*
X133902676Y-71059046D01*
X133902676Y-71059046D02*
X133997914Y-71154284D01*
X133997914Y-71154284D02*
X134045533Y-71249522D01*
X133759819Y-70344760D02*
X133759819Y-69678094D01*
X133759819Y-69678094D02*
X134759819Y-70106665D01*
X133759819Y-68868570D02*
X133759819Y-69059046D01*
X133759819Y-69059046D02*
X133807438Y-69154284D01*
X133807438Y-69154284D02*
X133855057Y-69201903D01*
X133855057Y-69201903D02*
X133997914Y-69297141D01*
X133997914Y-69297141D02*
X134188390Y-69344760D01*
X134188390Y-69344760D02*
X134569342Y-69344760D01*
X134569342Y-69344760D02*
X134664580Y-69297141D01*
X134664580Y-69297141D02*
X134712200Y-69249522D01*
X134712200Y-69249522D02*
X134759819Y-69154284D01*
X134759819Y-69154284D02*
X134759819Y-68963808D01*
X134759819Y-68963808D02*
X134712200Y-68868570D01*
X134712200Y-68868570D02*
X134664580Y-68820951D01*
X134664580Y-68820951D02*
X134569342Y-68773332D01*
X134569342Y-68773332D02*
X134331247Y-68773332D01*
X134331247Y-68773332D02*
X134236009Y-68820951D01*
X134236009Y-68820951D02*
X134188390Y-68868570D01*
X134188390Y-68868570D02*
X134140771Y-68963808D01*
X134140771Y-68963808D02*
X134140771Y-69154284D01*
X134140771Y-69154284D02*
X134188390Y-69249522D01*
X134188390Y-69249522D02*
X134236009Y-69297141D01*
X134236009Y-69297141D02*
X134331247Y-69344760D01*
X136369819Y-91011428D02*
X135369819Y-91011428D01*
X136369819Y-90582857D02*
X135846009Y-90582857D01*
X135846009Y-90582857D02*
X135750771Y-90630476D01*
X135750771Y-90630476D02*
X135703152Y-90725714D01*
X135703152Y-90725714D02*
X135703152Y-90868571D01*
X135703152Y-90868571D02*
X135750771Y-90963809D01*
X135750771Y-90963809D02*
X135798390Y-91011428D01*
X135703152Y-90249523D02*
X135703152Y-89868571D01*
X135369819Y-90106666D02*
X136226961Y-90106666D01*
X136226961Y-90106666D02*
X136322200Y-90059047D01*
X136322200Y-90059047D02*
X136369819Y-89963809D01*
X136369819Y-89963809D02*
X136369819Y-89868571D01*
X135703152Y-89678094D02*
X135703152Y-89297142D01*
X135369819Y-89535237D02*
X136226961Y-89535237D01*
X136226961Y-89535237D02*
X136322200Y-89487618D01*
X136322200Y-89487618D02*
X136369819Y-89392380D01*
X136369819Y-89392380D02*
X136369819Y-89297142D01*
X135703152Y-88963808D02*
X136703152Y-88963808D01*
X135750771Y-88963808D02*
X135703152Y-88868570D01*
X135703152Y-88868570D02*
X135703152Y-88678094D01*
X135703152Y-88678094D02*
X135750771Y-88582856D01*
X135750771Y-88582856D02*
X135798390Y-88535237D01*
X135798390Y-88535237D02*
X135893628Y-88487618D01*
X135893628Y-88487618D02*
X136179342Y-88487618D01*
X136179342Y-88487618D02*
X136274580Y-88535237D01*
X136274580Y-88535237D02*
X136322200Y-88582856D01*
X136322200Y-88582856D02*
X136369819Y-88678094D01*
X136369819Y-88678094D02*
X136369819Y-88868570D01*
X136369819Y-88868570D02*
X136322200Y-88963808D01*
X136322200Y-88106665D02*
X136369819Y-88011427D01*
X136369819Y-88011427D02*
X136369819Y-87820951D01*
X136369819Y-87820951D02*
X136322200Y-87725713D01*
X136322200Y-87725713D02*
X136226961Y-87678094D01*
X136226961Y-87678094D02*
X136179342Y-87678094D01*
X136179342Y-87678094D02*
X136084104Y-87725713D01*
X136084104Y-87725713D02*
X136036485Y-87820951D01*
X136036485Y-87820951D02*
X136036485Y-87963808D01*
X136036485Y-87963808D02*
X135988866Y-88059046D01*
X135988866Y-88059046D02*
X135893628Y-88106665D01*
X135893628Y-88106665D02*
X135846009Y-88106665D01*
X135846009Y-88106665D02*
X135750771Y-88059046D01*
X135750771Y-88059046D02*
X135703152Y-87963808D01*
X135703152Y-87963808D02*
X135703152Y-87820951D01*
X135703152Y-87820951D02*
X135750771Y-87725713D01*
X136274580Y-87249522D02*
X136322200Y-87201903D01*
X136322200Y-87201903D02*
X136369819Y-87249522D01*
X136369819Y-87249522D02*
X136322200Y-87297141D01*
X136322200Y-87297141D02*
X136274580Y-87249522D01*
X136274580Y-87249522D02*
X136369819Y-87249522D01*
X135750771Y-87249522D02*
X135798390Y-87201903D01*
X135798390Y-87201903D02*
X135846009Y-87249522D01*
X135846009Y-87249522D02*
X135798390Y-87297141D01*
X135798390Y-87297141D02*
X135750771Y-87249522D01*
X135750771Y-87249522D02*
X135846009Y-87249522D01*
X135322200Y-86059047D02*
X136607914Y-86916189D01*
X135322200Y-85011428D02*
X136607914Y-85868570D01*
X135703152Y-84249523D02*
X136512676Y-84249523D01*
X136512676Y-84249523D02*
X136607914Y-84297142D01*
X136607914Y-84297142D02*
X136655533Y-84344761D01*
X136655533Y-84344761D02*
X136703152Y-84439999D01*
X136703152Y-84439999D02*
X136703152Y-84582856D01*
X136703152Y-84582856D02*
X136655533Y-84678094D01*
X136322200Y-84249523D02*
X136369819Y-84344761D01*
X136369819Y-84344761D02*
X136369819Y-84535237D01*
X136369819Y-84535237D02*
X136322200Y-84630475D01*
X136322200Y-84630475D02*
X136274580Y-84678094D01*
X136274580Y-84678094D02*
X136179342Y-84725713D01*
X136179342Y-84725713D02*
X135893628Y-84725713D01*
X135893628Y-84725713D02*
X135798390Y-84678094D01*
X135798390Y-84678094D02*
X135750771Y-84630475D01*
X135750771Y-84630475D02*
X135703152Y-84535237D01*
X135703152Y-84535237D02*
X135703152Y-84344761D01*
X135703152Y-84344761D02*
X135750771Y-84249523D01*
X136369819Y-83773332D02*
X135703152Y-83773332D01*
X135369819Y-83773332D02*
X135417438Y-83820951D01*
X135417438Y-83820951D02*
X135465057Y-83773332D01*
X135465057Y-83773332D02*
X135417438Y-83725713D01*
X135417438Y-83725713D02*
X135369819Y-83773332D01*
X135369819Y-83773332D02*
X135465057Y-83773332D01*
X135703152Y-83439999D02*
X135703152Y-83059047D01*
X135369819Y-83297142D02*
X136226961Y-83297142D01*
X136226961Y-83297142D02*
X136322200Y-83249523D01*
X136322200Y-83249523D02*
X136369819Y-83154285D01*
X136369819Y-83154285D02*
X136369819Y-83059047D01*
X136369819Y-82725713D02*
X135369819Y-82725713D01*
X136369819Y-82297142D02*
X135846009Y-82297142D01*
X135846009Y-82297142D02*
X135750771Y-82344761D01*
X135750771Y-82344761D02*
X135703152Y-82439999D01*
X135703152Y-82439999D02*
X135703152Y-82582856D01*
X135703152Y-82582856D02*
X135750771Y-82678094D01*
X135750771Y-82678094D02*
X135798390Y-82725713D01*
X135703152Y-81392380D02*
X136369819Y-81392380D01*
X135703152Y-81820951D02*
X136226961Y-81820951D01*
X136226961Y-81820951D02*
X136322200Y-81773332D01*
X136322200Y-81773332D02*
X136369819Y-81678094D01*
X136369819Y-81678094D02*
X136369819Y-81535237D01*
X136369819Y-81535237D02*
X136322200Y-81439999D01*
X136322200Y-81439999D02*
X136274580Y-81392380D01*
X136369819Y-80916189D02*
X135369819Y-80916189D01*
X135750771Y-80916189D02*
X135703152Y-80820951D01*
X135703152Y-80820951D02*
X135703152Y-80630475D01*
X135703152Y-80630475D02*
X135750771Y-80535237D01*
X135750771Y-80535237D02*
X135798390Y-80487618D01*
X135798390Y-80487618D02*
X135893628Y-80439999D01*
X135893628Y-80439999D02*
X136179342Y-80439999D01*
X136179342Y-80439999D02*
X136274580Y-80487618D01*
X136274580Y-80487618D02*
X136322200Y-80535237D01*
X136322200Y-80535237D02*
X136369819Y-80630475D01*
X136369819Y-80630475D02*
X136369819Y-80820951D01*
X136369819Y-80820951D02*
X136322200Y-80916189D01*
X136274580Y-80011427D02*
X136322200Y-79963808D01*
X136322200Y-79963808D02*
X136369819Y-80011427D01*
X136369819Y-80011427D02*
X136322200Y-80059046D01*
X136322200Y-80059046D02*
X136274580Y-80011427D01*
X136274580Y-80011427D02*
X136369819Y-80011427D01*
X136322200Y-79106666D02*
X136369819Y-79201904D01*
X136369819Y-79201904D02*
X136369819Y-79392380D01*
X136369819Y-79392380D02*
X136322200Y-79487618D01*
X136322200Y-79487618D02*
X136274580Y-79535237D01*
X136274580Y-79535237D02*
X136179342Y-79582856D01*
X136179342Y-79582856D02*
X135893628Y-79582856D01*
X135893628Y-79582856D02*
X135798390Y-79535237D01*
X135798390Y-79535237D02*
X135750771Y-79487618D01*
X135750771Y-79487618D02*
X135703152Y-79392380D01*
X135703152Y-79392380D02*
X135703152Y-79201904D01*
X135703152Y-79201904D02*
X135750771Y-79106666D01*
X136369819Y-78535237D02*
X136322200Y-78630475D01*
X136322200Y-78630475D02*
X136274580Y-78678094D01*
X136274580Y-78678094D02*
X136179342Y-78725713D01*
X136179342Y-78725713D02*
X135893628Y-78725713D01*
X135893628Y-78725713D02*
X135798390Y-78678094D01*
X135798390Y-78678094D02*
X135750771Y-78630475D01*
X135750771Y-78630475D02*
X135703152Y-78535237D01*
X135703152Y-78535237D02*
X135703152Y-78392380D01*
X135703152Y-78392380D02*
X135750771Y-78297142D01*
X135750771Y-78297142D02*
X135798390Y-78249523D01*
X135798390Y-78249523D02*
X135893628Y-78201904D01*
X135893628Y-78201904D02*
X136179342Y-78201904D01*
X136179342Y-78201904D02*
X136274580Y-78249523D01*
X136274580Y-78249523D02*
X136322200Y-78297142D01*
X136322200Y-78297142D02*
X136369819Y-78392380D01*
X136369819Y-78392380D02*
X136369819Y-78535237D01*
X136369819Y-77773332D02*
X135703152Y-77773332D01*
X135798390Y-77773332D02*
X135750771Y-77725713D01*
X135750771Y-77725713D02*
X135703152Y-77630475D01*
X135703152Y-77630475D02*
X135703152Y-77487618D01*
X135703152Y-77487618D02*
X135750771Y-77392380D01*
X135750771Y-77392380D02*
X135846009Y-77344761D01*
X135846009Y-77344761D02*
X136369819Y-77344761D01*
X135846009Y-77344761D02*
X135750771Y-77297142D01*
X135750771Y-77297142D02*
X135703152Y-77201904D01*
X135703152Y-77201904D02*
X135703152Y-77059047D01*
X135703152Y-77059047D02*
X135750771Y-76963808D01*
X135750771Y-76963808D02*
X135846009Y-76916189D01*
X135846009Y-76916189D02*
X136369819Y-76916189D01*
X135322200Y-75725714D02*
X136607914Y-76582856D01*
X136369819Y-74916190D02*
X136369819Y-75392380D01*
X136369819Y-75392380D02*
X135369819Y-75392380D01*
X136369819Y-74439999D02*
X136322200Y-74535237D01*
X136322200Y-74535237D02*
X136226961Y-74582856D01*
X136226961Y-74582856D02*
X135369819Y-74582856D01*
X136369819Y-73630475D02*
X135846009Y-73630475D01*
X135846009Y-73630475D02*
X135750771Y-73678094D01*
X135750771Y-73678094D02*
X135703152Y-73773332D01*
X135703152Y-73773332D02*
X135703152Y-73963808D01*
X135703152Y-73963808D02*
X135750771Y-74059046D01*
X136322200Y-73630475D02*
X136369819Y-73725713D01*
X136369819Y-73725713D02*
X136369819Y-73963808D01*
X136369819Y-73963808D02*
X136322200Y-74059046D01*
X136322200Y-74059046D02*
X136226961Y-74106665D01*
X136226961Y-74106665D02*
X136131723Y-74106665D01*
X136131723Y-74106665D02*
X136036485Y-74059046D01*
X136036485Y-74059046D02*
X135988866Y-73963808D01*
X135988866Y-73963808D02*
X135988866Y-73725713D01*
X135988866Y-73725713D02*
X135941247Y-73630475D01*
X136369819Y-73154284D02*
X135703152Y-73154284D01*
X135798390Y-73154284D02*
X135750771Y-73106665D01*
X135750771Y-73106665D02*
X135703152Y-73011427D01*
X135703152Y-73011427D02*
X135703152Y-72868570D01*
X135703152Y-72868570D02*
X135750771Y-72773332D01*
X135750771Y-72773332D02*
X135846009Y-72725713D01*
X135846009Y-72725713D02*
X136369819Y-72725713D01*
X135846009Y-72725713D02*
X135750771Y-72678094D01*
X135750771Y-72678094D02*
X135703152Y-72582856D01*
X135703152Y-72582856D02*
X135703152Y-72439999D01*
X135703152Y-72439999D02*
X135750771Y-72344760D01*
X135750771Y-72344760D02*
X135846009Y-72297141D01*
X135846009Y-72297141D02*
X136369819Y-72297141D01*
X136322200Y-71439999D02*
X136369819Y-71535237D01*
X136369819Y-71535237D02*
X136369819Y-71725713D01*
X136369819Y-71725713D02*
X136322200Y-71820951D01*
X136322200Y-71820951D02*
X136226961Y-71868570D01*
X136226961Y-71868570D02*
X135846009Y-71868570D01*
X135846009Y-71868570D02*
X135750771Y-71820951D01*
X135750771Y-71820951D02*
X135703152Y-71725713D01*
X135703152Y-71725713D02*
X135703152Y-71535237D01*
X135703152Y-71535237D02*
X135750771Y-71439999D01*
X135750771Y-71439999D02*
X135846009Y-71392380D01*
X135846009Y-71392380D02*
X135941247Y-71392380D01*
X135941247Y-71392380D02*
X136036485Y-71868570D01*
X136369819Y-70963808D02*
X135703152Y-70963808D01*
X135893628Y-70963808D02*
X135798390Y-70916189D01*
X135798390Y-70916189D02*
X135750771Y-70868570D01*
X135750771Y-70868570D02*
X135703152Y-70773332D01*
X135703152Y-70773332D02*
X135703152Y-70678094D01*
X136369819Y-70201903D02*
X136322200Y-70297141D01*
X136322200Y-70297141D02*
X136274580Y-70344760D01*
X136274580Y-70344760D02*
X136179342Y-70392379D01*
X136179342Y-70392379D02*
X135893628Y-70392379D01*
X135893628Y-70392379D02*
X135798390Y-70344760D01*
X135798390Y-70344760D02*
X135750771Y-70297141D01*
X135750771Y-70297141D02*
X135703152Y-70201903D01*
X135703152Y-70201903D02*
X135703152Y-70059046D01*
X135703152Y-70059046D02*
X135750771Y-69963808D01*
X135750771Y-69963808D02*
X135798390Y-69916189D01*
X135798390Y-69916189D02*
X135893628Y-69868570D01*
X135893628Y-69868570D02*
X136179342Y-69868570D01*
X136179342Y-69868570D02*
X136274580Y-69916189D01*
X136274580Y-69916189D02*
X136322200Y-69963808D01*
X136322200Y-69963808D02*
X136369819Y-70059046D01*
X136369819Y-70059046D02*
X136369819Y-70201903D01*
X135322200Y-68725713D02*
X136607914Y-69582855D01*
X136979819Y-91178095D02*
X136979819Y-90559048D01*
X136979819Y-90559048D02*
X137360771Y-90892381D01*
X137360771Y-90892381D02*
X137360771Y-90749524D01*
X137360771Y-90749524D02*
X137408390Y-90654286D01*
X137408390Y-90654286D02*
X137456009Y-90606667D01*
X137456009Y-90606667D02*
X137551247Y-90559048D01*
X137551247Y-90559048D02*
X137789342Y-90559048D01*
X137789342Y-90559048D02*
X137884580Y-90606667D01*
X137884580Y-90606667D02*
X137932200Y-90654286D01*
X137932200Y-90654286D02*
X137979819Y-90749524D01*
X137979819Y-90749524D02*
X137979819Y-91035238D01*
X137979819Y-91035238D02*
X137932200Y-91130476D01*
X137932200Y-91130476D02*
X137884580Y-91178095D01*
X136979819Y-89940000D02*
X136979819Y-89844762D01*
X136979819Y-89844762D02*
X137027438Y-89749524D01*
X137027438Y-89749524D02*
X137075057Y-89701905D01*
X137075057Y-89701905D02*
X137170295Y-89654286D01*
X137170295Y-89654286D02*
X137360771Y-89606667D01*
X137360771Y-89606667D02*
X137598866Y-89606667D01*
X137598866Y-89606667D02*
X137789342Y-89654286D01*
X137789342Y-89654286D02*
X137884580Y-89701905D01*
X137884580Y-89701905D02*
X137932200Y-89749524D01*
X137932200Y-89749524D02*
X137979819Y-89844762D01*
X137979819Y-89844762D02*
X137979819Y-89940000D01*
X137979819Y-89940000D02*
X137932200Y-90035238D01*
X137932200Y-90035238D02*
X137884580Y-90082857D01*
X137884580Y-90082857D02*
X137789342Y-90130476D01*
X137789342Y-90130476D02*
X137598866Y-90178095D01*
X137598866Y-90178095D02*
X137360771Y-90178095D01*
X137360771Y-90178095D02*
X137170295Y-90130476D01*
X137170295Y-90130476D02*
X137075057Y-90082857D01*
X137075057Y-90082857D02*
X137027438Y-90035238D01*
X137027438Y-90035238D02*
X136979819Y-89940000D01*
X137979819Y-89178095D02*
X137313152Y-89178095D01*
X137408390Y-89178095D02*
X137360771Y-89130476D01*
X137360771Y-89130476D02*
X137313152Y-89035238D01*
X137313152Y-89035238D02*
X137313152Y-88892381D01*
X137313152Y-88892381D02*
X137360771Y-88797143D01*
X137360771Y-88797143D02*
X137456009Y-88749524D01*
X137456009Y-88749524D02*
X137979819Y-88749524D01*
X137456009Y-88749524D02*
X137360771Y-88701905D01*
X137360771Y-88701905D02*
X137313152Y-88606667D01*
X137313152Y-88606667D02*
X137313152Y-88463810D01*
X137313152Y-88463810D02*
X137360771Y-88368571D01*
X137360771Y-88368571D02*
X137456009Y-88320952D01*
X137456009Y-88320952D02*
X137979819Y-88320952D01*
X137979819Y-87844762D02*
X137313152Y-87844762D01*
X137408390Y-87844762D02*
X137360771Y-87797143D01*
X137360771Y-87797143D02*
X137313152Y-87701905D01*
X137313152Y-87701905D02*
X137313152Y-87559048D01*
X137313152Y-87559048D02*
X137360771Y-87463810D01*
X137360771Y-87463810D02*
X137456009Y-87416191D01*
X137456009Y-87416191D02*
X137979819Y-87416191D01*
X137456009Y-87416191D02*
X137360771Y-87368572D01*
X137360771Y-87368572D02*
X137313152Y-87273334D01*
X137313152Y-87273334D02*
X137313152Y-87130477D01*
X137313152Y-87130477D02*
X137360771Y-87035238D01*
X137360771Y-87035238D02*
X137456009Y-86987619D01*
X137456009Y-86987619D02*
X137979819Y-86987619D01*
X138075057Y-86749525D02*
X138075057Y-85987620D01*
X137932200Y-85320953D02*
X137979819Y-85416191D01*
X137979819Y-85416191D02*
X137979819Y-85606667D01*
X137979819Y-85606667D02*
X137932200Y-85701905D01*
X137932200Y-85701905D02*
X137884580Y-85749524D01*
X137884580Y-85749524D02*
X137789342Y-85797143D01*
X137789342Y-85797143D02*
X137503628Y-85797143D01*
X137503628Y-85797143D02*
X137408390Y-85749524D01*
X137408390Y-85749524D02*
X137360771Y-85701905D01*
X137360771Y-85701905D02*
X137313152Y-85606667D01*
X137313152Y-85606667D02*
X137313152Y-85416191D01*
X137313152Y-85416191D02*
X137360771Y-85320953D01*
X137979819Y-84463810D02*
X137456009Y-84463810D01*
X137456009Y-84463810D02*
X137360771Y-84511429D01*
X137360771Y-84511429D02*
X137313152Y-84606667D01*
X137313152Y-84606667D02*
X137313152Y-84797143D01*
X137313152Y-84797143D02*
X137360771Y-84892381D01*
X137932200Y-84463810D02*
X137979819Y-84559048D01*
X137979819Y-84559048D02*
X137979819Y-84797143D01*
X137979819Y-84797143D02*
X137932200Y-84892381D01*
X137932200Y-84892381D02*
X137836961Y-84940000D01*
X137836961Y-84940000D02*
X137741723Y-84940000D01*
X137741723Y-84940000D02*
X137646485Y-84892381D01*
X137646485Y-84892381D02*
X137598866Y-84797143D01*
X137598866Y-84797143D02*
X137598866Y-84559048D01*
X137598866Y-84559048D02*
X137551247Y-84463810D01*
X137313152Y-83559048D02*
X138122676Y-83559048D01*
X138122676Y-83559048D02*
X138217914Y-83606667D01*
X138217914Y-83606667D02*
X138265533Y-83654286D01*
X138265533Y-83654286D02*
X138313152Y-83749524D01*
X138313152Y-83749524D02*
X138313152Y-83892381D01*
X138313152Y-83892381D02*
X138265533Y-83987619D01*
X137932200Y-83559048D02*
X137979819Y-83654286D01*
X137979819Y-83654286D02*
X137979819Y-83844762D01*
X137979819Y-83844762D02*
X137932200Y-83940000D01*
X137932200Y-83940000D02*
X137884580Y-83987619D01*
X137884580Y-83987619D02*
X137789342Y-84035238D01*
X137789342Y-84035238D02*
X137503628Y-84035238D01*
X137503628Y-84035238D02*
X137408390Y-83987619D01*
X137408390Y-83987619D02*
X137360771Y-83940000D01*
X137360771Y-83940000D02*
X137313152Y-83844762D01*
X137313152Y-83844762D02*
X137313152Y-83654286D01*
X137313152Y-83654286D02*
X137360771Y-83559048D01*
X137932200Y-82701905D02*
X137979819Y-82797143D01*
X137979819Y-82797143D02*
X137979819Y-82987619D01*
X137979819Y-82987619D02*
X137932200Y-83082857D01*
X137932200Y-83082857D02*
X137836961Y-83130476D01*
X137836961Y-83130476D02*
X137456009Y-83130476D01*
X137456009Y-83130476D02*
X137360771Y-83082857D01*
X137360771Y-83082857D02*
X137313152Y-82987619D01*
X137313152Y-82987619D02*
X137313152Y-82797143D01*
X137313152Y-82797143D02*
X137360771Y-82701905D01*
X137360771Y-82701905D02*
X137456009Y-82654286D01*
X137456009Y-82654286D02*
X137551247Y-82654286D01*
X137551247Y-82654286D02*
X137646485Y-83130476D01*
X138075057Y-82463810D02*
X138075057Y-81701905D01*
X137313152Y-81463809D02*
X138313152Y-81463809D01*
X137360771Y-81463809D02*
X137313152Y-81368571D01*
X137313152Y-81368571D02*
X137313152Y-81178095D01*
X137313152Y-81178095D02*
X137360771Y-81082857D01*
X137360771Y-81082857D02*
X137408390Y-81035238D01*
X137408390Y-81035238D02*
X137503628Y-80987619D01*
X137503628Y-80987619D02*
X137789342Y-80987619D01*
X137789342Y-80987619D02*
X137884580Y-81035238D01*
X137884580Y-81035238D02*
X137932200Y-81082857D01*
X137932200Y-81082857D02*
X137979819Y-81178095D01*
X137979819Y-81178095D02*
X137979819Y-81368571D01*
X137979819Y-81368571D02*
X137932200Y-81463809D01*
X137979819Y-80416190D02*
X137932200Y-80511428D01*
X137932200Y-80511428D02*
X137836961Y-80559047D01*
X137836961Y-80559047D02*
X136979819Y-80559047D01*
X137979819Y-79606666D02*
X137456009Y-79606666D01*
X137456009Y-79606666D02*
X137360771Y-79654285D01*
X137360771Y-79654285D02*
X137313152Y-79749523D01*
X137313152Y-79749523D02*
X137313152Y-79939999D01*
X137313152Y-79939999D02*
X137360771Y-80035237D01*
X137932200Y-79606666D02*
X137979819Y-79701904D01*
X137979819Y-79701904D02*
X137979819Y-79939999D01*
X137979819Y-79939999D02*
X137932200Y-80035237D01*
X137932200Y-80035237D02*
X137836961Y-80082856D01*
X137836961Y-80082856D02*
X137741723Y-80082856D01*
X137741723Y-80082856D02*
X137646485Y-80035237D01*
X137646485Y-80035237D02*
X137598866Y-79939999D01*
X137598866Y-79939999D02*
X137598866Y-79701904D01*
X137598866Y-79701904D02*
X137551247Y-79606666D01*
X137313152Y-79273332D02*
X137313152Y-78892380D01*
X136979819Y-79130475D02*
X137836961Y-79130475D01*
X137836961Y-79130475D02*
X137932200Y-79082856D01*
X137932200Y-79082856D02*
X137979819Y-78987618D01*
X137979819Y-78987618D02*
X137979819Y-78892380D01*
X137932200Y-78178094D02*
X137979819Y-78273332D01*
X137979819Y-78273332D02*
X137979819Y-78463808D01*
X137979819Y-78463808D02*
X137932200Y-78559046D01*
X137932200Y-78559046D02*
X137836961Y-78606665D01*
X137836961Y-78606665D02*
X137456009Y-78606665D01*
X137456009Y-78606665D02*
X137360771Y-78559046D01*
X137360771Y-78559046D02*
X137313152Y-78463808D01*
X137313152Y-78463808D02*
X137313152Y-78273332D01*
X137313152Y-78273332D02*
X137360771Y-78178094D01*
X137360771Y-78178094D02*
X137456009Y-78130475D01*
X137456009Y-78130475D02*
X137551247Y-78130475D01*
X137551247Y-78130475D02*
X137646485Y-78606665D01*
X138075057Y-77939999D02*
X138075057Y-77178094D01*
X137979819Y-76463808D02*
X137979819Y-76939998D01*
X137979819Y-76939998D02*
X136979819Y-76939998D01*
X137456009Y-76130474D02*
X137456009Y-75797141D01*
X137979819Y-75654284D02*
X137979819Y-76130474D01*
X137979819Y-76130474D02*
X136979819Y-76130474D01*
X136979819Y-76130474D02*
X136979819Y-75654284D01*
X137979819Y-75225712D02*
X136979819Y-75225712D01*
X136979819Y-75225712D02*
X136979819Y-74987617D01*
X136979819Y-74987617D02*
X137027438Y-74844760D01*
X137027438Y-74844760D02*
X137122676Y-74749522D01*
X137122676Y-74749522D02*
X137217914Y-74701903D01*
X137217914Y-74701903D02*
X137408390Y-74654284D01*
X137408390Y-74654284D02*
X137551247Y-74654284D01*
X137551247Y-74654284D02*
X137741723Y-74701903D01*
X137741723Y-74701903D02*
X137836961Y-74749522D01*
X137836961Y-74749522D02*
X137932200Y-74844760D01*
X137932200Y-74844760D02*
X137979819Y-74987617D01*
X137979819Y-74987617D02*
X137979819Y-75225712D01*
X138075057Y-74463808D02*
X138075057Y-73701903D01*
X137979819Y-73463807D02*
X136979819Y-73463807D01*
X136979819Y-73463807D02*
X137694104Y-73130474D01*
X137694104Y-73130474D02*
X136979819Y-72797141D01*
X136979819Y-72797141D02*
X137979819Y-72797141D01*
X137884580Y-71749522D02*
X137932200Y-71797141D01*
X137932200Y-71797141D02*
X137979819Y-71939998D01*
X137979819Y-71939998D02*
X137979819Y-72035236D01*
X137979819Y-72035236D02*
X137932200Y-72178093D01*
X137932200Y-72178093D02*
X137836961Y-72273331D01*
X137836961Y-72273331D02*
X137741723Y-72320950D01*
X137741723Y-72320950D02*
X137551247Y-72368569D01*
X137551247Y-72368569D02*
X137408390Y-72368569D01*
X137408390Y-72368569D02*
X137217914Y-72320950D01*
X137217914Y-72320950D02*
X137122676Y-72273331D01*
X137122676Y-72273331D02*
X137027438Y-72178093D01*
X137027438Y-72178093D02*
X136979819Y-72035236D01*
X136979819Y-72035236D02*
X136979819Y-71939998D01*
X136979819Y-71939998D02*
X137027438Y-71797141D01*
X137027438Y-71797141D02*
X137075057Y-71749522D01*
X137979819Y-71320950D02*
X136979819Y-71320950D01*
X136979819Y-71320950D02*
X136979819Y-70939998D01*
X136979819Y-70939998D02*
X137027438Y-70844760D01*
X137027438Y-70844760D02*
X137075057Y-70797141D01*
X137075057Y-70797141D02*
X137170295Y-70749522D01*
X137170295Y-70749522D02*
X137313152Y-70749522D01*
X137313152Y-70749522D02*
X137408390Y-70797141D01*
X137408390Y-70797141D02*
X137456009Y-70844760D01*
X137456009Y-70844760D02*
X137503628Y-70939998D01*
X137503628Y-70939998D02*
X137503628Y-71320950D01*
X137884580Y-69749522D02*
X137932200Y-69797141D01*
X137932200Y-69797141D02*
X137979819Y-69939998D01*
X137979819Y-69939998D02*
X137979819Y-70035236D01*
X137979819Y-70035236D02*
X137932200Y-70178093D01*
X137932200Y-70178093D02*
X137836961Y-70273331D01*
X137836961Y-70273331D02*
X137741723Y-70320950D01*
X137741723Y-70320950D02*
X137551247Y-70368569D01*
X137551247Y-70368569D02*
X137408390Y-70368569D01*
X137408390Y-70368569D02*
X137217914Y-70320950D01*
X137217914Y-70320950D02*
X137122676Y-70273331D01*
X137122676Y-70273331D02*
X137027438Y-70178093D01*
X137027438Y-70178093D02*
X136979819Y-70035236D01*
X136979819Y-70035236D02*
X136979819Y-69939998D01*
X136979819Y-69939998D02*
X137027438Y-69797141D01*
X137027438Y-69797141D02*
X137075057Y-69749522D01*
X137456009Y-68987617D02*
X137503628Y-68844760D01*
X137503628Y-68844760D02*
X137551247Y-68797141D01*
X137551247Y-68797141D02*
X137646485Y-68749522D01*
X137646485Y-68749522D02*
X137789342Y-68749522D01*
X137789342Y-68749522D02*
X137884580Y-68797141D01*
X137884580Y-68797141D02*
X137932200Y-68844760D01*
X137932200Y-68844760D02*
X137979819Y-68939998D01*
X137979819Y-68939998D02*
X137979819Y-69320950D01*
X137979819Y-69320950D02*
X136979819Y-69320950D01*
X136979819Y-69320950D02*
X136979819Y-68987617D01*
X136979819Y-68987617D02*
X137027438Y-68892379D01*
X137027438Y-68892379D02*
X137075057Y-68844760D01*
X137075057Y-68844760D02*
X137170295Y-68797141D01*
X137170295Y-68797141D02*
X137265533Y-68797141D01*
X137265533Y-68797141D02*
X137360771Y-68844760D01*
X137360771Y-68844760D02*
X137408390Y-68892379D01*
X137408390Y-68892379D02*
X137456009Y-68987617D01*
X137456009Y-68987617D02*
X137456009Y-69320950D01*
D10*
X115359380Y-86186479D02*
X115283190Y-86338860D01*
X115283190Y-86338860D02*
X115283190Y-86567431D01*
X115283190Y-86567431D02*
X115359380Y-86796003D01*
X115359380Y-86796003D02*
X115511761Y-86948384D01*
X115511761Y-86948384D02*
X115664142Y-87024574D01*
X115664142Y-87024574D02*
X115968904Y-87100765D01*
X115968904Y-87100765D02*
X116197476Y-87100765D01*
X116197476Y-87100765D02*
X116502238Y-87024574D01*
X116502238Y-87024574D02*
X116654619Y-86948384D01*
X116654619Y-86948384D02*
X116807000Y-86796003D01*
X116807000Y-86796003D02*
X116883190Y-86567431D01*
X116883190Y-86567431D02*
X116883190Y-86415050D01*
X116883190Y-86415050D02*
X116807000Y-86186479D01*
X116807000Y-86186479D02*
X116730809Y-86110288D01*
X116730809Y-86110288D02*
X116197476Y-86110288D01*
X116197476Y-86110288D02*
X116197476Y-86415050D01*
X115816523Y-85424574D02*
X116883190Y-85424574D01*
X115968904Y-85424574D02*
X115892714Y-85348384D01*
X115892714Y-85348384D02*
X115816523Y-85196003D01*
X115816523Y-85196003D02*
X115816523Y-84967431D01*
X115816523Y-84967431D02*
X115892714Y-84815050D01*
X115892714Y-84815050D02*
X116045095Y-84738860D01*
X116045095Y-84738860D02*
X116883190Y-84738860D01*
X116883190Y-83291241D02*
X115283190Y-83291241D01*
X116807000Y-83291241D02*
X116883190Y-83443622D01*
X116883190Y-83443622D02*
X116883190Y-83748384D01*
X116883190Y-83748384D02*
X116807000Y-83900765D01*
X116807000Y-83900765D02*
X116730809Y-83976955D01*
X116730809Y-83976955D02*
X116578428Y-84053146D01*
X116578428Y-84053146D02*
X116121285Y-84053146D01*
X116121285Y-84053146D02*
X115968904Y-83976955D01*
X115968904Y-83976955D02*
X115892714Y-83900765D01*
X115892714Y-83900765D02*
X115816523Y-83748384D01*
X115816523Y-83748384D02*
X115816523Y-83443622D01*
X115816523Y-83443622D02*
X115892714Y-83291241D01*
X119306809Y-86110288D02*
X119383000Y-86186479D01*
X119383000Y-86186479D02*
X119459190Y-86415050D01*
X119459190Y-86415050D02*
X119459190Y-86567431D01*
X119459190Y-86567431D02*
X119383000Y-86796003D01*
X119383000Y-86796003D02*
X119230619Y-86948384D01*
X119230619Y-86948384D02*
X119078238Y-87024574D01*
X119078238Y-87024574D02*
X118773476Y-87100765D01*
X118773476Y-87100765D02*
X118544904Y-87100765D01*
X118544904Y-87100765D02*
X118240142Y-87024574D01*
X118240142Y-87024574D02*
X118087761Y-86948384D01*
X118087761Y-86948384D02*
X117935380Y-86796003D01*
X117935380Y-86796003D02*
X117859190Y-86567431D01*
X117859190Y-86567431D02*
X117859190Y-86415050D01*
X117859190Y-86415050D02*
X117935380Y-86186479D01*
X117935380Y-86186479D02*
X118011571Y-86110288D01*
X118392523Y-85653146D02*
X118392523Y-85043622D01*
X117859190Y-85424574D02*
X119230619Y-85424574D01*
X119230619Y-85424574D02*
X119383000Y-85348384D01*
X119383000Y-85348384D02*
X119459190Y-85196003D01*
X119459190Y-85196003D02*
X119459190Y-85043622D01*
X119459190Y-84510288D02*
X118392523Y-84510288D01*
X118697285Y-84510288D02*
X118544904Y-84434098D01*
X118544904Y-84434098D02*
X118468714Y-84357907D01*
X118468714Y-84357907D02*
X118392523Y-84205526D01*
X118392523Y-84205526D02*
X118392523Y-84053145D01*
X119459190Y-83291241D02*
X119383000Y-83443622D01*
X119383000Y-83443622D02*
X119230619Y-83519812D01*
X119230619Y-83519812D02*
X117859190Y-83519812D01*
X120435190Y-87253146D02*
X122035190Y-86719812D01*
X122035190Y-86719812D02*
X120435190Y-86186479D01*
X122035190Y-85653145D02*
X120968523Y-85653145D01*
X120435190Y-85653145D02*
X120511380Y-85729336D01*
X120511380Y-85729336D02*
X120587571Y-85653145D01*
X120587571Y-85653145D02*
X120511380Y-85576955D01*
X120511380Y-85576955D02*
X120435190Y-85653145D01*
X120435190Y-85653145D02*
X120587571Y-85653145D01*
X120968523Y-84891240D02*
X122035190Y-84891240D01*
X121120904Y-84891240D02*
X121044714Y-84815050D01*
X121044714Y-84815050D02*
X120968523Y-84662669D01*
X120968523Y-84662669D02*
X120968523Y-84434097D01*
X120968523Y-84434097D02*
X121044714Y-84281716D01*
X121044714Y-84281716D02*
X121197095Y-84205526D01*
X121197095Y-84205526D02*
X122035190Y-84205526D01*
X123087380Y-86186479D02*
X123011190Y-86338860D01*
X123011190Y-86338860D02*
X123011190Y-86567431D01*
X123011190Y-86567431D02*
X123087380Y-86796003D01*
X123087380Y-86796003D02*
X123239761Y-86948384D01*
X123239761Y-86948384D02*
X123392142Y-87024574D01*
X123392142Y-87024574D02*
X123696904Y-87100765D01*
X123696904Y-87100765D02*
X123925476Y-87100765D01*
X123925476Y-87100765D02*
X124230238Y-87024574D01*
X124230238Y-87024574D02*
X124382619Y-86948384D01*
X124382619Y-86948384D02*
X124535000Y-86796003D01*
X124535000Y-86796003D02*
X124611190Y-86567431D01*
X124611190Y-86567431D02*
X124611190Y-86415050D01*
X124611190Y-86415050D02*
X124535000Y-86186479D01*
X124535000Y-86186479D02*
X124458809Y-86110288D01*
X124458809Y-86110288D02*
X123925476Y-86110288D01*
X123925476Y-86110288D02*
X123925476Y-86415050D01*
X123544523Y-85424574D02*
X124611190Y-85424574D01*
X123696904Y-85424574D02*
X123620714Y-85348384D01*
X123620714Y-85348384D02*
X123544523Y-85196003D01*
X123544523Y-85196003D02*
X123544523Y-84967431D01*
X123544523Y-84967431D02*
X123620714Y-84815050D01*
X123620714Y-84815050D02*
X123773095Y-84738860D01*
X123773095Y-84738860D02*
X124611190Y-84738860D01*
X124611190Y-83291241D02*
X123011190Y-83291241D01*
X124535000Y-83291241D02*
X124611190Y-83443622D01*
X124611190Y-83443622D02*
X124611190Y-83748384D01*
X124611190Y-83748384D02*
X124535000Y-83900765D01*
X124535000Y-83900765D02*
X124458809Y-83976955D01*
X124458809Y-83976955D02*
X124306428Y-84053146D01*
X124306428Y-84053146D02*
X123849285Y-84053146D01*
X123849285Y-84053146D02*
X123696904Y-83976955D01*
X123696904Y-83976955D02*
X123620714Y-83900765D01*
X123620714Y-83900765D02*
X123544523Y-83748384D01*
X123544523Y-83748384D02*
X123544523Y-83443622D01*
X123544523Y-83443622D02*
X123620714Y-83291241D01*
D11*
X110073333Y-72459769D02*
X109740000Y-71983578D01*
X109501905Y-72459769D02*
X109501905Y-71459769D01*
X109501905Y-71459769D02*
X109882857Y-71459769D01*
X109882857Y-71459769D02*
X109978095Y-71507388D01*
X109978095Y-71507388D02*
X110025714Y-71555007D01*
X110025714Y-71555007D02*
X110073333Y-71650245D01*
X110073333Y-71650245D02*
X110073333Y-71793102D01*
X110073333Y-71793102D02*
X110025714Y-71888340D01*
X110025714Y-71888340D02*
X109978095Y-71935959D01*
X109978095Y-71935959D02*
X109882857Y-71983578D01*
X109882857Y-71983578D02*
X109501905Y-71983578D01*
X111025714Y-72459769D02*
X110454286Y-72459769D01*
X110740000Y-72459769D02*
X110740000Y-71459769D01*
X110740000Y-71459769D02*
X110644762Y-71602626D01*
X110644762Y-71602626D02*
X110549524Y-71697864D01*
X110549524Y-71697864D02*
X110454286Y-71745483D01*
D12*
X134238095Y-94957419D02*
X134238095Y-93957419D01*
X134238095Y-94433609D02*
X134809523Y-94433609D01*
X134809523Y-94957419D02*
X134809523Y-93957419D01*
X135714285Y-94290752D02*
X135714285Y-94957419D01*
X135476190Y-93909800D02*
X135238095Y-94624085D01*
X135238095Y-94624085D02*
X135857142Y-94624085D01*
D11*
X125776666Y-93314819D02*
X125776666Y-94029104D01*
X125776666Y-94029104D02*
X125729047Y-94171961D01*
X125729047Y-94171961D02*
X125633809Y-94267200D01*
X125633809Y-94267200D02*
X125490952Y-94314819D01*
X125490952Y-94314819D02*
X125395714Y-94314819D01*
X126776666Y-94314819D02*
X126205238Y-94314819D01*
X126490952Y-94314819D02*
X126490952Y-93314819D01*
X126490952Y-93314819D02*
X126395714Y-93457676D01*
X126395714Y-93457676D02*
X126300476Y-93552914D01*
X126300476Y-93552914D02*
X126205238Y-93600533D01*
X119271905Y-77854819D02*
X119271905Y-76854819D01*
X119271905Y-76854819D02*
X119510000Y-76854819D01*
X119510000Y-76854819D02*
X119652857Y-76902438D01*
X119652857Y-76902438D02*
X119748095Y-76997676D01*
X119748095Y-76997676D02*
X119795714Y-77092914D01*
X119795714Y-77092914D02*
X119843333Y-77283390D01*
X119843333Y-77283390D02*
X119843333Y-77426247D01*
X119843333Y-77426247D02*
X119795714Y-77616723D01*
X119795714Y-77616723D02*
X119748095Y-77711961D01*
X119748095Y-77711961D02*
X119652857Y-77807200D01*
X119652857Y-77807200D02*
X119510000Y-77854819D01*
X119510000Y-77854819D02*
X119271905Y-77854819D01*
X120224286Y-76950057D02*
X120271905Y-76902438D01*
X120271905Y-76902438D02*
X120367143Y-76854819D01*
X120367143Y-76854819D02*
X120605238Y-76854819D01*
X120605238Y-76854819D02*
X120700476Y-76902438D01*
X120700476Y-76902438D02*
X120748095Y-76950057D01*
X120748095Y-76950057D02*
X120795714Y-77045295D01*
X120795714Y-77045295D02*
X120795714Y-77140533D01*
X120795714Y-77140533D02*
X120748095Y-77283390D01*
X120748095Y-77283390D02*
X120176667Y-77854819D01*
X120176667Y-77854819D02*
X120795714Y-77854819D01*
X111133333Y-85779580D02*
X111085714Y-85827200D01*
X111085714Y-85827200D02*
X110942857Y-85874819D01*
X110942857Y-85874819D02*
X110847619Y-85874819D01*
X110847619Y-85874819D02*
X110704762Y-85827200D01*
X110704762Y-85827200D02*
X110609524Y-85731961D01*
X110609524Y-85731961D02*
X110561905Y-85636723D01*
X110561905Y-85636723D02*
X110514286Y-85446247D01*
X110514286Y-85446247D02*
X110514286Y-85303390D01*
X110514286Y-85303390D02*
X110561905Y-85112914D01*
X110561905Y-85112914D02*
X110609524Y-85017676D01*
X110609524Y-85017676D02*
X110704762Y-84922438D01*
X110704762Y-84922438D02*
X110847619Y-84874819D01*
X110847619Y-84874819D02*
X110942857Y-84874819D01*
X110942857Y-84874819D02*
X111085714Y-84922438D01*
X111085714Y-84922438D02*
X111133333Y-84970057D01*
X111514286Y-84970057D02*
X111561905Y-84922438D01*
X111561905Y-84922438D02*
X111657143Y-84874819D01*
X111657143Y-84874819D02*
X111895238Y-84874819D01*
X111895238Y-84874819D02*
X111990476Y-84922438D01*
X111990476Y-84922438D02*
X112038095Y-84970057D01*
X112038095Y-84970057D02*
X112085714Y-85065295D01*
X112085714Y-85065295D02*
X112085714Y-85160533D01*
X112085714Y-85160533D02*
X112038095Y-85303390D01*
X112038095Y-85303390D02*
X111466667Y-85874819D01*
X111466667Y-85874819D02*
X112085714Y-85874819D01*
X112913333Y-85769580D02*
X112865714Y-85817200D01*
X112865714Y-85817200D02*
X112722857Y-85864819D01*
X112722857Y-85864819D02*
X112627619Y-85864819D01*
X112627619Y-85864819D02*
X112484762Y-85817200D01*
X112484762Y-85817200D02*
X112389524Y-85721961D01*
X112389524Y-85721961D02*
X112341905Y-85626723D01*
X112341905Y-85626723D02*
X112294286Y-85436247D01*
X112294286Y-85436247D02*
X112294286Y-85293390D01*
X112294286Y-85293390D02*
X112341905Y-85102914D01*
X112341905Y-85102914D02*
X112389524Y-85007676D01*
X112389524Y-85007676D02*
X112484762Y-84912438D01*
X112484762Y-84912438D02*
X112627619Y-84864819D01*
X112627619Y-84864819D02*
X112722857Y-84864819D01*
X112722857Y-84864819D02*
X112865714Y-84912438D01*
X112865714Y-84912438D02*
X112913333Y-84960057D01*
X113246667Y-84864819D02*
X113865714Y-84864819D01*
X113865714Y-84864819D02*
X113532381Y-85245771D01*
X113532381Y-85245771D02*
X113675238Y-85245771D01*
X113675238Y-85245771D02*
X113770476Y-85293390D01*
X113770476Y-85293390D02*
X113818095Y-85341009D01*
X113818095Y-85341009D02*
X113865714Y-85436247D01*
X113865714Y-85436247D02*
X113865714Y-85674342D01*
X113865714Y-85674342D02*
X113818095Y-85769580D01*
X113818095Y-85769580D02*
X113770476Y-85817200D01*
X113770476Y-85817200D02*
X113675238Y-85864819D01*
X113675238Y-85864819D02*
X113389524Y-85864819D01*
X113389524Y-85864819D02*
X113294286Y-85817200D01*
X113294286Y-85817200D02*
X113246667Y-85769580D01*
X106668207Y-88674580D02*
X106620588Y-88722200D01*
X106620588Y-88722200D02*
X106477731Y-88769819D01*
X106477731Y-88769819D02*
X106382493Y-88769819D01*
X106382493Y-88769819D02*
X106239636Y-88722200D01*
X106239636Y-88722200D02*
X106144398Y-88626961D01*
X106144398Y-88626961D02*
X106096779Y-88531723D01*
X106096779Y-88531723D02*
X106049160Y-88341247D01*
X106049160Y-88341247D02*
X106049160Y-88198390D01*
X106049160Y-88198390D02*
X106096779Y-88007914D01*
X106096779Y-88007914D02*
X106144398Y-87912676D01*
X106144398Y-87912676D02*
X106239636Y-87817438D01*
X106239636Y-87817438D02*
X106382493Y-87769819D01*
X106382493Y-87769819D02*
X106477731Y-87769819D01*
X106477731Y-87769819D02*
X106620588Y-87817438D01*
X106620588Y-87817438D02*
X106668207Y-87865057D01*
X107668207Y-88674580D02*
X107620588Y-88722200D01*
X107620588Y-88722200D02*
X107477731Y-88769819D01*
X107477731Y-88769819D02*
X107382493Y-88769819D01*
X107382493Y-88769819D02*
X107239636Y-88722200D01*
X107239636Y-88722200D02*
X107144398Y-88626961D01*
X107144398Y-88626961D02*
X107096779Y-88531723D01*
X107096779Y-88531723D02*
X107049160Y-88341247D01*
X107049160Y-88341247D02*
X107049160Y-88198390D01*
X107049160Y-88198390D02*
X107096779Y-88007914D01*
X107096779Y-88007914D02*
X107144398Y-87912676D01*
X107144398Y-87912676D02*
X107239636Y-87817438D01*
X107239636Y-87817438D02*
X107382493Y-87769819D01*
X107382493Y-87769819D02*
X107477731Y-87769819D01*
X107477731Y-87769819D02*
X107620588Y-87817438D01*
X107620588Y-87817438D02*
X107668207Y-87865057D01*
X106278207Y-90844580D02*
X106230588Y-90892200D01*
X106230588Y-90892200D02*
X106087731Y-90939819D01*
X106087731Y-90939819D02*
X105992493Y-90939819D01*
X105992493Y-90939819D02*
X105849636Y-90892200D01*
X105849636Y-90892200D02*
X105754398Y-90796961D01*
X105754398Y-90796961D02*
X105706779Y-90701723D01*
X105706779Y-90701723D02*
X105659160Y-90511247D01*
X105659160Y-90511247D02*
X105659160Y-90368390D01*
X105659160Y-90368390D02*
X105706779Y-90177914D01*
X105706779Y-90177914D02*
X105754398Y-90082676D01*
X105754398Y-90082676D02*
X105849636Y-89987438D01*
X105849636Y-89987438D02*
X105992493Y-89939819D01*
X105992493Y-89939819D02*
X106087731Y-89939819D01*
X106087731Y-89939819D02*
X106230588Y-89987438D01*
X106230588Y-89987438D02*
X106278207Y-90035057D01*
X107278207Y-90844580D02*
X107230588Y-90892200D01*
X107230588Y-90892200D02*
X107087731Y-90939819D01*
X107087731Y-90939819D02*
X106992493Y-90939819D01*
X106992493Y-90939819D02*
X106849636Y-90892200D01*
X106849636Y-90892200D02*
X106754398Y-90796961D01*
X106754398Y-90796961D02*
X106706779Y-90701723D01*
X106706779Y-90701723D02*
X106659160Y-90511247D01*
X106659160Y-90511247D02*
X106659160Y-90368390D01*
X106659160Y-90368390D02*
X106706779Y-90177914D01*
X106706779Y-90177914D02*
X106754398Y-90082676D01*
X106754398Y-90082676D02*
X106849636Y-89987438D01*
X106849636Y-89987438D02*
X106992493Y-89939819D01*
X106992493Y-89939819D02*
X107087731Y-89939819D01*
X107087731Y-89939819D02*
X107230588Y-89987438D01*
X107230588Y-89987438D02*
X107278207Y-90035057D01*
X107706779Y-90558866D02*
X108468684Y-90558866D01*
X109278207Y-90416009D02*
X109421064Y-90463628D01*
X109421064Y-90463628D02*
X109468683Y-90511247D01*
X109468683Y-90511247D02*
X109516302Y-90606485D01*
X109516302Y-90606485D02*
X109516302Y-90749342D01*
X109516302Y-90749342D02*
X109468683Y-90844580D01*
X109468683Y-90844580D02*
X109421064Y-90892200D01*
X109421064Y-90892200D02*
X109325826Y-90939819D01*
X109325826Y-90939819D02*
X108944874Y-90939819D01*
X108944874Y-90939819D02*
X108944874Y-89939819D01*
X108944874Y-89939819D02*
X109278207Y-89939819D01*
X109278207Y-89939819D02*
X109373445Y-89987438D01*
X109373445Y-89987438D02*
X109421064Y-90035057D01*
X109421064Y-90035057D02*
X109468683Y-90130295D01*
X109468683Y-90130295D02*
X109468683Y-90225533D01*
X109468683Y-90225533D02*
X109421064Y-90320771D01*
X109421064Y-90320771D02*
X109373445Y-90368390D01*
X109373445Y-90368390D02*
X109278207Y-90416009D01*
X109278207Y-90416009D02*
X108944874Y-90416009D01*
X110135350Y-90463628D02*
X110135350Y-90939819D01*
X109802017Y-89939819D02*
X110135350Y-90463628D01*
X110135350Y-90463628D02*
X110468683Y-89939819D01*
X110802017Y-90558866D02*
X111563922Y-90558866D01*
X111992493Y-90892200D02*
X112135350Y-90939819D01*
X112135350Y-90939819D02*
X112373445Y-90939819D01*
X112373445Y-90939819D02*
X112468683Y-90892200D01*
X112468683Y-90892200D02*
X112516302Y-90844580D01*
X112516302Y-90844580D02*
X112563921Y-90749342D01*
X112563921Y-90749342D02*
X112563921Y-90654104D01*
X112563921Y-90654104D02*
X112516302Y-90558866D01*
X112516302Y-90558866D02*
X112468683Y-90511247D01*
X112468683Y-90511247D02*
X112373445Y-90463628D01*
X112373445Y-90463628D02*
X112182969Y-90416009D01*
X112182969Y-90416009D02*
X112087731Y-90368390D01*
X112087731Y-90368390D02*
X112040112Y-90320771D01*
X112040112Y-90320771D02*
X111992493Y-90225533D01*
X111992493Y-90225533D02*
X111992493Y-90130295D01*
X111992493Y-90130295D02*
X112040112Y-90035057D01*
X112040112Y-90035057D02*
X112087731Y-89987438D01*
X112087731Y-89987438D02*
X112182969Y-89939819D01*
X112182969Y-89939819D02*
X112421064Y-89939819D01*
X112421064Y-89939819D02*
X112563921Y-89987438D01*
X112944874Y-90654104D02*
X113421064Y-90654104D01*
X112849636Y-90939819D02*
X113182969Y-89939819D01*
X113182969Y-89939819D02*
X113516302Y-90939819D01*
D12*
X104238095Y-64957419D02*
X104238095Y-63957419D01*
X104238095Y-64433609D02*
X104809523Y-64433609D01*
X104809523Y-64957419D02*
X104809523Y-63957419D01*
X105809523Y-64957419D02*
X105238095Y-64957419D01*
X105523809Y-64957419D02*
X105523809Y-63957419D01*
X105523809Y-63957419D02*
X105428571Y-64100276D01*
X105428571Y-64100276D02*
X105333333Y-64195514D01*
X105333333Y-64195514D02*
X105238095Y-64243133D01*
D11*
X104433810Y-78029869D02*
X104433810Y-77029869D01*
X105481428Y-77934630D02*
X105433809Y-77982250D01*
X105433809Y-77982250D02*
X105290952Y-78029869D01*
X105290952Y-78029869D02*
X105195714Y-78029869D01*
X105195714Y-78029869D02*
X105052857Y-77982250D01*
X105052857Y-77982250D02*
X104957619Y-77887011D01*
X104957619Y-77887011D02*
X104910000Y-77791773D01*
X104910000Y-77791773D02*
X104862381Y-77601297D01*
X104862381Y-77601297D02*
X104862381Y-77458440D01*
X104862381Y-77458440D02*
X104910000Y-77267964D01*
X104910000Y-77267964D02*
X104957619Y-77172726D01*
X104957619Y-77172726D02*
X105052857Y-77077488D01*
X105052857Y-77077488D02*
X105195714Y-77029869D01*
X105195714Y-77029869D02*
X105290952Y-77029869D01*
X105290952Y-77029869D02*
X105433809Y-77077488D01*
X105433809Y-77077488D02*
X105481428Y-77125107D01*
X106433809Y-78029869D02*
X105862381Y-78029869D01*
X106148095Y-78029869D02*
X106148095Y-77029869D01*
X106148095Y-77029869D02*
X106052857Y-77172726D01*
X106052857Y-77172726D02*
X105957619Y-77267964D01*
X105957619Y-77267964D02*
X105862381Y-77315583D01*
X102160000Y-77909869D02*
X102160000Y-78147964D01*
X101921905Y-78052726D02*
X102160000Y-78147964D01*
X102160000Y-78147964D02*
X102398095Y-78052726D01*
X102017143Y-78338440D02*
X102160000Y-78147964D01*
X102160000Y-78147964D02*
X102302857Y-78338440D01*
X109383333Y-85779580D02*
X109335714Y-85827200D01*
X109335714Y-85827200D02*
X109192857Y-85874819D01*
X109192857Y-85874819D02*
X109097619Y-85874819D01*
X109097619Y-85874819D02*
X108954762Y-85827200D01*
X108954762Y-85827200D02*
X108859524Y-85731961D01*
X108859524Y-85731961D02*
X108811905Y-85636723D01*
X108811905Y-85636723D02*
X108764286Y-85446247D01*
X108764286Y-85446247D02*
X108764286Y-85303390D01*
X108764286Y-85303390D02*
X108811905Y-85112914D01*
X108811905Y-85112914D02*
X108859524Y-85017676D01*
X108859524Y-85017676D02*
X108954762Y-84922438D01*
X108954762Y-84922438D02*
X109097619Y-84874819D01*
X109097619Y-84874819D02*
X109192857Y-84874819D01*
X109192857Y-84874819D02*
X109335714Y-84922438D01*
X109335714Y-84922438D02*
X109383333Y-84970057D01*
X110335714Y-85874819D02*
X109764286Y-85874819D01*
X110050000Y-85874819D02*
X110050000Y-84874819D01*
X110050000Y-84874819D02*
X109954762Y-85017676D01*
X109954762Y-85017676D02*
X109859524Y-85112914D01*
X109859524Y-85112914D02*
X109764286Y-85160533D01*
X119893333Y-72034819D02*
X119417143Y-72034819D01*
X119417143Y-72034819D02*
X119417143Y-71034819D01*
X120750476Y-72034819D02*
X120179048Y-72034819D01*
X120464762Y-72034819D02*
X120464762Y-71034819D01*
X120464762Y-71034819D02*
X120369524Y-71177676D01*
X120369524Y-71177676D02*
X120274286Y-71272914D01*
X120274286Y-71272914D02*
X120179048Y-71320533D01*
D12*
X104238095Y-94957419D02*
X104238095Y-93957419D01*
X104238095Y-94433609D02*
X104809523Y-94433609D01*
X104809523Y-94957419D02*
X104809523Y-93957419D01*
X105190476Y-93957419D02*
X105809523Y-93957419D01*
X105809523Y-93957419D02*
X105476190Y-94338371D01*
X105476190Y-94338371D02*
X105619047Y-94338371D01*
X105619047Y-94338371D02*
X105714285Y-94385990D01*
X105714285Y-94385990D02*
X105761904Y-94433609D01*
X105761904Y-94433609D02*
X105809523Y-94528847D01*
X105809523Y-94528847D02*
X105809523Y-94766942D01*
X105809523Y-94766942D02*
X105761904Y-94862180D01*
X105761904Y-94862180D02*
X105714285Y-94909800D01*
X105714285Y-94909800D02*
X105619047Y-94957419D01*
X105619047Y-94957419D02*
X105333333Y-94957419D01*
X105333333Y-94957419D02*
X105238095Y-94909800D01*
X105238095Y-94909800D02*
X105190476Y-94862180D01*
D11*
X112281905Y-78194819D02*
X112281905Y-77194819D01*
X112281905Y-77194819D02*
X112520000Y-77194819D01*
X112520000Y-77194819D02*
X112662857Y-77242438D01*
X112662857Y-77242438D02*
X112758095Y-77337676D01*
X112758095Y-77337676D02*
X112805714Y-77432914D01*
X112805714Y-77432914D02*
X112853333Y-77623390D01*
X112853333Y-77623390D02*
X112853333Y-77766247D01*
X112853333Y-77766247D02*
X112805714Y-77956723D01*
X112805714Y-77956723D02*
X112758095Y-78051961D01*
X112758095Y-78051961D02*
X112662857Y-78147200D01*
X112662857Y-78147200D02*
X112520000Y-78194819D01*
X112520000Y-78194819D02*
X112281905Y-78194819D01*
X113805714Y-78194819D02*
X113234286Y-78194819D01*
X113520000Y-78194819D02*
X113520000Y-77194819D01*
X113520000Y-77194819D02*
X113424762Y-77337676D01*
X113424762Y-77337676D02*
X113329524Y-77432914D01*
X113329524Y-77432914D02*
X113234286Y-77480533D01*
D12*
X134238095Y-64957419D02*
X134238095Y-63957419D01*
X134238095Y-64433609D02*
X134809523Y-64433609D01*
X134809523Y-64957419D02*
X134809523Y-63957419D01*
X135238095Y-64052657D02*
X135285714Y-64005038D01*
X135285714Y-64005038D02*
X135380952Y-63957419D01*
X135380952Y-63957419D02*
X135619047Y-63957419D01*
X135619047Y-63957419D02*
X135714285Y-64005038D01*
X135714285Y-64005038D02*
X135761904Y-64052657D01*
X135761904Y-64052657D02*
X135809523Y-64147895D01*
X135809523Y-64147895D02*
X135809523Y-64243133D01*
X135809523Y-64243133D02*
X135761904Y-64385990D01*
X135761904Y-64385990D02*
X135190476Y-64957419D01*
X135190476Y-64957419D02*
X135809523Y-64957419D01*
D13*
X109512936Y-72914950D02*
X110967064Y-72914950D01*
X109512936Y-74734950D02*
X110967064Y-74734950D01*
D14*
X125090000Y-89585000D02*
X125090000Y-97715000D01*
X114930000Y-89585000D02*
X114930000Y-97715000D01*
X123920000Y-87025000D02*
G75*
G03*
X123920000Y-87025000I-100000J0D01*
G01*
D15*
X121725000Y-81735000D02*
X118275000Y-81735000D01*
X121725000Y-78285000D02*
X121725000Y-81735000D01*
X118275000Y-81735000D02*
X118275000Y-78285000D01*
X118275000Y-78285000D02*
X121725000Y-78285000D01*
D14*
X122670000Y-80010000D02*
G75*
G03*
X122670000Y-80010000I-100000J0D01*
G01*
D13*
X110790000Y-83275580D02*
X110790000Y-82994420D01*
X111810000Y-83275580D02*
X111810000Y-82994420D01*
X112260000Y-83285580D02*
X112260000Y-83004420D01*
X113280000Y-83285580D02*
X113280000Y-83004420D01*
D11*
X111490000Y-87630000D02*
X111605151Y-88040230D01*
D12*
X111605151Y-88040230D02*
X111490000Y-87630000D01*
D11*
X111605151Y-88040230D02*
X112030000Y-87990000D01*
D12*
X109130000Y-87850000D02*
X110130000Y-87850000D01*
X110130000Y-87850000D02*
X110130000Y-88610000D01*
X110130000Y-88610000D02*
X109130000Y-88610000D01*
X109130000Y-88610000D02*
X109130000Y-87850000D01*
G36*
X109130000Y-87850000D02*
G01*
X110130000Y-87850000D01*
X110130000Y-88610000D01*
X109130000Y-88610000D01*
X109130000Y-87850000D01*
G37*
X109440000Y-87890000D02*
X109830000Y-87890000D01*
X109830000Y-87890000D02*
X109830000Y-89310000D01*
X109830000Y-89310000D02*
X109440000Y-89310000D01*
X109440000Y-89310000D02*
X109440000Y-87890000D01*
G36*
X109440000Y-87890000D02*
G01*
X109830000Y-87890000D01*
X109830000Y-89310000D01*
X109440000Y-89310000D01*
X109440000Y-87890000D01*
G37*
D11*
X111670002Y-88690000D02*
G75*
G03*
X111605152Y-88040230I619998J390000D01*
G01*
X108110000Y-88320000D02*
G75*
G03*
X108110000Y-88320000I-1240000J0D01*
G01*
X110840000Y-88320000D02*
G75*
G03*
X110840000Y-88320000I-1240000J0D01*
G01*
D16*
X109782686Y-87540000D02*
G75*
G03*
X109782686Y-87540000I-142686J0D01*
G01*
D11*
X113530000Y-88300000D02*
G75*
G03*
X113530000Y-88300000I-1240000J0D01*
G01*
D17*
X103017200Y-83828550D02*
X107182800Y-83828550D01*
X107182800Y-78621550D02*
X103017200Y-78621550D01*
D18*
X113279460Y-96138030D02*
X113322711Y-96151245D01*
X113350558Y-96167941D01*
X113359629Y-96181145D01*
X113357132Y-96196797D01*
X113340931Y-96221385D01*
X113327232Y-96238800D01*
X113298992Y-96270283D01*
X113277775Y-96283529D01*
X113259688Y-96282664D01*
X113206035Y-96269010D01*
X113166630Y-96269630D01*
X113134632Y-96285104D01*
X113123890Y-96294161D01*
X113089505Y-96326027D01*
X113089505Y-96742179D01*
X112951188Y-96742179D01*
X112951188Y-96138614D01*
X113020347Y-96138614D01*
X113061869Y-96140256D01*
X113083291Y-96146087D01*
X113089502Y-96157461D01*
X113089505Y-96157798D01*
X113092439Y-96169713D01*
X113105704Y-96168159D01*
X113124084Y-96159563D01*
X113162046Y-96143568D01*
X113192872Y-96133945D01*
X113232536Y-96131478D01*
X113279460Y-96138030D01*
G36*
X113279460Y-96138030D02*
G01*
X113322711Y-96151245D01*
X113350558Y-96167941D01*
X113359629Y-96181145D01*
X113357132Y-96196797D01*
X113340931Y-96221385D01*
X113327232Y-96238800D01*
X113298992Y-96270283D01*
X113277775Y-96283529D01*
X113259688Y-96282664D01*
X113206035Y-96269010D01*
X113166630Y-96269630D01*
X113134632Y-96285104D01*
X113123890Y-96294161D01*
X113089505Y-96326027D01*
X113089505Y-96742179D01*
X112951188Y-96742179D01*
X112951188Y-96138614D01*
X113020347Y-96138614D01*
X113061869Y-96140256D01*
X113083291Y-96146087D01*
X113089502Y-96157461D01*
X113089505Y-96157798D01*
X113092439Y-96169713D01*
X113105704Y-96168159D01*
X113124084Y-96159563D01*
X113162046Y-96143568D01*
X113192872Y-96133945D01*
X113232536Y-96131478D01*
X113279460Y-96138030D01*
G37*
X113115255Y-97081486D02*
X113163595Y-97091015D01*
X113191114Y-97105125D01*
X113220064Y-97128568D01*
X113178876Y-97180571D01*
X113153482Y-97212064D01*
X113136238Y-97227428D01*
X113119102Y-97229776D01*
X113094027Y-97222217D01*
X113082257Y-97217941D01*
X113034270Y-97211631D01*
X112990324Y-97225156D01*
X112958060Y-97255710D01*
X112952819Y-97265452D01*
X112947112Y-97291258D01*
X112942706Y-97338817D01*
X112939811Y-97404758D01*
X112938631Y-97485710D01*
X112938614Y-97497226D01*
X112938614Y-97697822D01*
X112800297Y-97697822D01*
X112800297Y-97081683D01*
X112869456Y-97081683D01*
X112909333Y-97082725D01*
X112930107Y-97087358D01*
X112937789Y-97097849D01*
X112938614Y-97107745D01*
X112938614Y-97133806D01*
X112971745Y-97107745D01*
X113009735Y-97089965D01*
X113060770Y-97081174D01*
X113115255Y-97081486D01*
G36*
X113115255Y-97081486D02*
G01*
X113163595Y-97091015D01*
X113191114Y-97105125D01*
X113220064Y-97128568D01*
X113178876Y-97180571D01*
X113153482Y-97212064D01*
X113136238Y-97227428D01*
X113119102Y-97229776D01*
X113094027Y-97222217D01*
X113082257Y-97217941D01*
X113034270Y-97211631D01*
X112990324Y-97225156D01*
X112958060Y-97255710D01*
X112952819Y-97265452D01*
X112947112Y-97291258D01*
X112942706Y-97338817D01*
X112939811Y-97404758D01*
X112938631Y-97485710D01*
X112938614Y-97497226D01*
X112938614Y-97697822D01*
X112800297Y-97697822D01*
X112800297Y-97081683D01*
X112869456Y-97081683D01*
X112909333Y-97082725D01*
X112930107Y-97087358D01*
X112937789Y-97097849D01*
X112938614Y-97107745D01*
X112938614Y-97133806D01*
X112971745Y-97107745D01*
X113009735Y-97089965D01*
X113060770Y-97081174D01*
X113115255Y-97081486D01*
G37*
X110486644Y-97083020D02*
X110505461Y-97088660D01*
X110511527Y-97101053D01*
X110511782Y-97106647D01*
X110512871Y-97122230D01*
X110520368Y-97124676D01*
X110540619Y-97113993D01*
X110552649Y-97106694D01*
X110590600Y-97091063D01*
X110635928Y-97083334D01*
X110683456Y-97082740D01*
X110728005Y-97088513D01*
X110764398Y-97099884D01*
X110787457Y-97116088D01*
X110792004Y-97136355D01*
X110789709Y-97141843D01*
X110772980Y-97164626D01*
X110747037Y-97192647D01*
X110742345Y-97197177D01*
X110717617Y-97218005D01*
X110696282Y-97224735D01*
X110666445Y-97220038D01*
X110654492Y-97216917D01*
X110617295Y-97209421D01*
X110591141Y-97212792D01*
X110569054Y-97224681D01*
X110548822Y-97240635D01*
X110533921Y-97260700D01*
X110523566Y-97288702D01*
X110516971Y-97328467D01*
X110513351Y-97383823D01*
X110511922Y-97458594D01*
X110511782Y-97503740D01*
X110511782Y-97697822D01*
X110386040Y-97697822D01*
X110386040Y-97081683D01*
X110448911Y-97081683D01*
X110486644Y-97083020D01*
G36*
X110486644Y-97083020D02*
G01*
X110505461Y-97088660D01*
X110511527Y-97101053D01*
X110511782Y-97106647D01*
X110512871Y-97122230D01*
X110520368Y-97124676D01*
X110540619Y-97113993D01*
X110552649Y-97106694D01*
X110590600Y-97091063D01*
X110635928Y-97083334D01*
X110683456Y-97082740D01*
X110728005Y-97088513D01*
X110764398Y-97099884D01*
X110787457Y-97116088D01*
X110792004Y-97136355D01*
X110789709Y-97141843D01*
X110772980Y-97164626D01*
X110747037Y-97192647D01*
X110742345Y-97197177D01*
X110717617Y-97218005D01*
X110696282Y-97224735D01*
X110666445Y-97220038D01*
X110654492Y-97216917D01*
X110617295Y-97209421D01*
X110591141Y-97212792D01*
X110569054Y-97224681D01*
X110548822Y-97240635D01*
X110533921Y-97260700D01*
X110523566Y-97288702D01*
X110516971Y-97328467D01*
X110513351Y-97383823D01*
X110511922Y-97458594D01*
X110511782Y-97503740D01*
X110511782Y-97697822D01*
X110386040Y-97697822D01*
X110386040Y-97081683D01*
X110448911Y-97081683D01*
X110486644Y-97083020D01*
G37*
X112473367Y-96334342D02*
X112474555Y-96426563D01*
X112478897Y-96496610D01*
X112487558Y-96547381D01*
X112501704Y-96581772D01*
X112522500Y-96602679D01*
X112551110Y-96613000D01*
X112586535Y-96615636D01*
X112623636Y-96612682D01*
X112651818Y-96601889D01*
X112672243Y-96580360D01*
X112686079Y-96545199D01*
X112694491Y-96493510D01*
X112698643Y-96422394D01*
X112699703Y-96334342D01*
X112699703Y-96138614D01*
X112838020Y-96138614D01*
X112838020Y-96742179D01*
X112768862Y-96742179D01*
X112727170Y-96740489D01*
X112705701Y-96734556D01*
X112699703Y-96723293D01*
X112696091Y-96713261D01*
X112681714Y-96715383D01*
X112652736Y-96729580D01*
X112586319Y-96751480D01*
X112515875Y-96749928D01*
X112448377Y-96726147D01*
X112416233Y-96707362D01*
X112391715Y-96687022D01*
X112373804Y-96661573D01*
X112361479Y-96627458D01*
X112353723Y-96581121D01*
X112349516Y-96519007D01*
X112347840Y-96437561D01*
X112347624Y-96374578D01*
X112347624Y-96138614D01*
X112473367Y-96138614D01*
X112473367Y-96334342D01*
G36*
X112473367Y-96334342D02*
G01*
X112474555Y-96426563D01*
X112478897Y-96496610D01*
X112487558Y-96547381D01*
X112501704Y-96581772D01*
X112522500Y-96602679D01*
X112551110Y-96613000D01*
X112586535Y-96615636D01*
X112623636Y-96612682D01*
X112651818Y-96601889D01*
X112672243Y-96580360D01*
X112686079Y-96545199D01*
X112694491Y-96493510D01*
X112698643Y-96422394D01*
X112699703Y-96334342D01*
X112699703Y-96138614D01*
X112838020Y-96138614D01*
X112838020Y-96742179D01*
X112768862Y-96742179D01*
X112727170Y-96740489D01*
X112705701Y-96734556D01*
X112699703Y-96723293D01*
X112696091Y-96713261D01*
X112681714Y-96715383D01*
X112652736Y-96729580D01*
X112586319Y-96751480D01*
X112515875Y-96749928D01*
X112448377Y-96726147D01*
X112416233Y-96707362D01*
X112391715Y-96687022D01*
X112373804Y-96661573D01*
X112361479Y-96627458D01*
X112353723Y-96581121D01*
X112349516Y-96519007D01*
X112347840Y-96437561D01*
X112347624Y-96374578D01*
X112347624Y-96138614D01*
X112473367Y-96138614D01*
X112473367Y-96334342D01*
G37*
X110725988Y-96149002D02*
X110757283Y-96163950D01*
X110787591Y-96185541D01*
X110810682Y-96210391D01*
X110827500Y-96242087D01*
X110838994Y-96284214D01*
X110846109Y-96340358D01*
X110849793Y-96414106D01*
X110850992Y-96509044D01*
X110851011Y-96518985D01*
X110851287Y-96742179D01*
X110712970Y-96742179D01*
X110712970Y-96536418D01*
X110712872Y-96460189D01*
X110712191Y-96404939D01*
X110710349Y-96366501D01*
X110706767Y-96340706D01*
X110700868Y-96323384D01*
X110692073Y-96310368D01*
X110679820Y-96297507D01*
X110636953Y-96269873D01*
X110590157Y-96264745D01*
X110545576Y-96282217D01*
X110530072Y-96295221D01*
X110518690Y-96307447D01*
X110510519Y-96320540D01*
X110505026Y-96338615D01*
X110501680Y-96365787D01*
X110499949Y-96406170D01*
X110499303Y-96463879D01*
X110499208Y-96534132D01*
X110499208Y-96742179D01*
X110360891Y-96742179D01*
X110360891Y-96138614D01*
X110430050Y-96138614D01*
X110471572Y-96140256D01*
X110492994Y-96146087D01*
X110499205Y-96157461D01*
X110499208Y-96157798D01*
X110502090Y-96168938D01*
X110514801Y-96167674D01*
X110540074Y-96155434D01*
X110597395Y-96137424D01*
X110662963Y-96135421D01*
X110725988Y-96149002D01*
G36*
X110725988Y-96149002D02*
G01*
X110757283Y-96163950D01*
X110787591Y-96185541D01*
X110810682Y-96210391D01*
X110827500Y-96242087D01*
X110838994Y-96284214D01*
X110846109Y-96340358D01*
X110849793Y-96414106D01*
X110850992Y-96509044D01*
X110851011Y-96518985D01*
X110851287Y-96742179D01*
X110712970Y-96742179D01*
X110712970Y-96536418D01*
X110712872Y-96460189D01*
X110712191Y-96404939D01*
X110710349Y-96366501D01*
X110706767Y-96340706D01*
X110700868Y-96323384D01*
X110692073Y-96310368D01*
X110679820Y-96297507D01*
X110636953Y-96269873D01*
X110590157Y-96264745D01*
X110545576Y-96282217D01*
X110530072Y-96295221D01*
X110518690Y-96307447D01*
X110510519Y-96320540D01*
X110505026Y-96338615D01*
X110501680Y-96365787D01*
X110499949Y-96406170D01*
X110499303Y-96463879D01*
X110499208Y-96534132D01*
X110499208Y-96742179D01*
X110360891Y-96742179D01*
X110360891Y-96138614D01*
X110430050Y-96138614D01*
X110471572Y-96140256D01*
X110492994Y-96146087D01*
X110499205Y-96157461D01*
X110499208Y-96157798D01*
X110502090Y-96168938D01*
X110514801Y-96167674D01*
X110540074Y-96155434D01*
X110597395Y-96137424D01*
X110662963Y-96135421D01*
X110725988Y-96149002D01*
G37*
X113697226Y-96143880D02*
X113770080Y-96174830D01*
X113793027Y-96189895D01*
X113822354Y-96213048D01*
X113840764Y-96231253D01*
X113843961Y-96237183D01*
X113834935Y-96250340D01*
X113811837Y-96272667D01*
X113793344Y-96288250D01*
X113742728Y-96328926D01*
X113702760Y-96295295D01*
X113671874Y-96273584D01*
X113641759Y-96266090D01*
X113607292Y-96267920D01*
X113552561Y-96281528D01*
X113514886Y-96309772D01*
X113491991Y-96355433D01*
X113481597Y-96421289D01*
X113481595Y-96421331D01*
X113482494Y-96494939D01*
X113496463Y-96548946D01*
X113524328Y-96585716D01*
X113543325Y-96598168D01*
X113593776Y-96613673D01*
X113647663Y-96613683D01*
X113694546Y-96598638D01*
X113705644Y-96591287D01*
X113733476Y-96572511D01*
X113755236Y-96569434D01*
X113778704Y-96583409D01*
X113804649Y-96608510D01*
X113845716Y-96650880D01*
X113800121Y-96688464D01*
X113729674Y-96730882D01*
X113650233Y-96751785D01*
X113567215Y-96750272D01*
X113512694Y-96736411D01*
X113448970Y-96702135D01*
X113398005Y-96648212D01*
X113374851Y-96610149D01*
X113356099Y-96555536D01*
X113346715Y-96486369D01*
X113346643Y-96411407D01*
X113355824Y-96339409D01*
X113374199Y-96279137D01*
X113377093Y-96272958D01*
X113419952Y-96212351D01*
X113477979Y-96168224D01*
X113546591Y-96141493D01*
X113621201Y-96133073D01*
X113697226Y-96143880D01*
G36*
X113697226Y-96143880D02*
G01*
X113770080Y-96174830D01*
X113793027Y-96189895D01*
X113822354Y-96213048D01*
X113840764Y-96231253D01*
X113843961Y-96237183D01*
X113834935Y-96250340D01*
X113811837Y-96272667D01*
X113793344Y-96288250D01*
X113742728Y-96328926D01*
X113702760Y-96295295D01*
X113671874Y-96273584D01*
X113641759Y-96266090D01*
X113607292Y-96267920D01*
X113552561Y-96281528D01*
X113514886Y-96309772D01*
X113491991Y-96355433D01*
X113481597Y-96421289D01*
X113481595Y-96421331D01*
X113482494Y-96494939D01*
X113496463Y-96548946D01*
X113524328Y-96585716D01*
X113543325Y-96598168D01*
X113593776Y-96613673D01*
X113647663Y-96613683D01*
X113694546Y-96598638D01*
X113705644Y-96591287D01*
X113733476Y-96572511D01*
X113755236Y-96569434D01*
X113778704Y-96583409D01*
X113804649Y-96608510D01*
X113845716Y-96650880D01*
X113800121Y-96688464D01*
X113729674Y-96730882D01*
X113650233Y-96751785D01*
X113567215Y-96750272D01*
X113512694Y-96736411D01*
X113448970Y-96702135D01*
X113398005Y-96648212D01*
X113374851Y-96610149D01*
X113356099Y-96555536D01*
X113346715Y-96486369D01*
X113346643Y-96411407D01*
X113355824Y-96339409D01*
X113374199Y-96279137D01*
X113377093Y-96272958D01*
X113419952Y-96212351D01*
X113477979Y-96168224D01*
X113546591Y-96141493D01*
X113621201Y-96133073D01*
X113697226Y-96143880D01*
G37*
X112090762Y-96146055D02*
X112154363Y-96180692D01*
X112204123Y-96235372D01*
X112227568Y-96279842D01*
X112237634Y-96319121D01*
X112244156Y-96375116D01*
X112246951Y-96439621D01*
X112245836Y-96504429D01*
X112240626Y-96561334D01*
X112234541Y-96591727D01*
X112214014Y-96633306D01*
X112178463Y-96677468D01*
X112135619Y-96716087D01*
X112093211Y-96741034D01*
X112092177Y-96741430D01*
X112039553Y-96752331D01*
X111977188Y-96752601D01*
X111917924Y-96742676D01*
X111895040Y-96734722D01*
X111836102Y-96701300D01*
X111793890Y-96657511D01*
X111766156Y-96599538D01*
X111750651Y-96523565D01*
X111747143Y-96483771D01*
X111747590Y-96433766D01*
X111882376Y-96433766D01*
X111886917Y-96506732D01*
X111899986Y-96562334D01*
X111920756Y-96597861D01*
X111935552Y-96608020D01*
X111973464Y-96615104D01*
X112018527Y-96613007D01*
X112057487Y-96602812D01*
X112067704Y-96597204D01*
X112094659Y-96564538D01*
X112112451Y-96514545D01*
X112120024Y-96453705D01*
X112116325Y-96388497D01*
X112108057Y-96349253D01*
X112084320Y-96303805D01*
X112046849Y-96275396D01*
X112001720Y-96265573D01*
X111955011Y-96275887D01*
X111919132Y-96301112D01*
X111900277Y-96321925D01*
X111889272Y-96342439D01*
X111884026Y-96370203D01*
X111882449Y-96412762D01*
X111882376Y-96433766D01*
X111747590Y-96433766D01*
X111748094Y-96377580D01*
X111765388Y-96290501D01*
X111799029Y-96222530D01*
X111849018Y-96173664D01*
X111915356Y-96143899D01*
X111929601Y-96140448D01*
X112015210Y-96132345D01*
X112090762Y-96146055D01*
G36*
X112090762Y-96146055D02*
G01*
X112154363Y-96180692D01*
X112204123Y-96235372D01*
X112227568Y-96279842D01*
X112237634Y-96319121D01*
X112244156Y-96375116D01*
X112246951Y-96439621D01*
X112245836Y-96504429D01*
X112240626Y-96561334D01*
X112234541Y-96591727D01*
X112214014Y-96633306D01*
X112178463Y-96677468D01*
X112135619Y-96716087D01*
X112093211Y-96741034D01*
X112092177Y-96741430D01*
X112039553Y-96752331D01*
X111977188Y-96752601D01*
X111917924Y-96742676D01*
X111895040Y-96734722D01*
X111836102Y-96701300D01*
X111793890Y-96657511D01*
X111766156Y-96599538D01*
X111750651Y-96523565D01*
X111747143Y-96483771D01*
X111747590Y-96433766D01*
X111882376Y-96433766D01*
X111886917Y-96506732D01*
X111899986Y-96562334D01*
X111920756Y-96597861D01*
X111935552Y-96608020D01*
X111973464Y-96615104D01*
X112018527Y-96613007D01*
X112057487Y-96602812D01*
X112067704Y-96597204D01*
X112094659Y-96564538D01*
X112112451Y-96514545D01*
X112120024Y-96453705D01*
X112116325Y-96388497D01*
X112108057Y-96349253D01*
X112084320Y-96303805D01*
X112046849Y-96275396D01*
X112001720Y-96265573D01*
X111955011Y-96275887D01*
X111919132Y-96301112D01*
X111900277Y-96321925D01*
X111889272Y-96342439D01*
X111884026Y-96370203D01*
X111882449Y-96412762D01*
X111882376Y-96433766D01*
X111747590Y-96433766D01*
X111748094Y-96377580D01*
X111765388Y-96290501D01*
X111799029Y-96222530D01*
X111849018Y-96173664D01*
X111915356Y-96143899D01*
X111929601Y-96140448D01*
X112015210Y-96132345D01*
X112090762Y-96146055D01*
G37*
X111761524Y-97084237D02*
X111811255Y-97087971D01*
X111941291Y-97477773D01*
X111961678Y-97408614D01*
X111973946Y-97365874D01*
X111990085Y-97308115D01*
X112007512Y-97244625D01*
X112016726Y-97210570D01*
X112051388Y-97081683D01*
X112194391Y-97081683D01*
X112151646Y-97216857D01*
X112130596Y-97283342D01*
X112105167Y-97363539D01*
X112078610Y-97447193D01*
X112054902Y-97521782D01*
X112000902Y-97691535D01*
X111942598Y-97695328D01*
X111884295Y-97699122D01*
X111852679Y-97594734D01*
X111833182Y-97529889D01*
X111811904Y-97458400D01*
X111793308Y-97395263D01*
X111792574Y-97392750D01*
X111778684Y-97349969D01*
X111766429Y-97320779D01*
X111757846Y-97309741D01*
X111756082Y-97311018D01*
X111749891Y-97328130D01*
X111738128Y-97364787D01*
X111722225Y-97416378D01*
X111703614Y-97478294D01*
X111693543Y-97512352D01*
X111639007Y-97697822D01*
X111523264Y-97697822D01*
X111430737Y-97405471D01*
X111404744Y-97323462D01*
X111381066Y-97248987D01*
X111360820Y-97185544D01*
X111345126Y-97136632D01*
X111335102Y-97105749D01*
X111332055Y-97096726D01*
X111334467Y-97087487D01*
X111353408Y-97083441D01*
X111392823Y-97083846D01*
X111398993Y-97084152D01*
X111472086Y-97087971D01*
X111519957Y-97264010D01*
X111537553Y-97328211D01*
X111553277Y-97384649D01*
X111565746Y-97428422D01*
X111573574Y-97454630D01*
X111575020Y-97458903D01*
X111581014Y-97453990D01*
X111593101Y-97428532D01*
X111609893Y-97385997D01*
X111630003Y-97329850D01*
X111647003Y-97279130D01*
X111711794Y-97080504D01*
X111761524Y-97084237D01*
G36*
X111761524Y-97084237D02*
G01*
X111811255Y-97087971D01*
X111941291Y-97477773D01*
X111961678Y-97408614D01*
X111973946Y-97365874D01*
X111990085Y-97308115D01*
X112007512Y-97244625D01*
X112016726Y-97210570D01*
X112051388Y-97081683D01*
X112194391Y-97081683D01*
X112151646Y-97216857D01*
X112130596Y-97283342D01*
X112105167Y-97363539D01*
X112078610Y-97447193D01*
X112054902Y-97521782D01*
X112000902Y-97691535D01*
X111942598Y-97695328D01*
X111884295Y-97699122D01*
X111852679Y-97594734D01*
X111833182Y-97529889D01*
X111811904Y-97458400D01*
X111793308Y-97395263D01*
X111792574Y-97392750D01*
X111778684Y-97349969D01*
X111766429Y-97320779D01*
X111757846Y-97309741D01*
X111756082Y-97311018D01*
X111749891Y-97328130D01*
X111738128Y-97364787D01*
X111722225Y-97416378D01*
X111703614Y-97478294D01*
X111693543Y-97512352D01*
X111639007Y-97697822D01*
X111523264Y-97697822D01*
X111430737Y-97405471D01*
X111404744Y-97323462D01*
X111381066Y-97248987D01*
X111360820Y-97185544D01*
X111345126Y-97136632D01*
X111335102Y-97105749D01*
X111332055Y-97096726D01*
X111334467Y-97087487D01*
X111353408Y-97083441D01*
X111392823Y-97083846D01*
X111398993Y-97084152D01*
X111472086Y-97087971D01*
X111519957Y-97264010D01*
X111537553Y-97328211D01*
X111553277Y-97384649D01*
X111565746Y-97428422D01*
X111573574Y-97454630D01*
X111575020Y-97458903D01*
X111581014Y-97453990D01*
X111593101Y-97428532D01*
X111609893Y-97385997D01*
X111630003Y-97329850D01*
X111647003Y-97279130D01*
X111711794Y-97080504D01*
X111761524Y-97084237D01*
G37*
X108941739Y-96145148D02*
X109007521Y-96174231D01*
X109057460Y-96222793D01*
X109091626Y-96290908D01*
X109110093Y-96378651D01*
X109111417Y-96392351D01*
X109112454Y-96488939D01*
X109099007Y-96573602D01*
X109071892Y-96642221D01*
X109057373Y-96664294D01*
X109006799Y-96711011D01*
X108942391Y-96741268D01*
X108870334Y-96753824D01*
X108796815Y-96747439D01*
X108740928Y-96727772D01*
X108692868Y-96694629D01*
X108653588Y-96651175D01*
X108652908Y-96650158D01*
X108636956Y-96623338D01*
X108626590Y-96596368D01*
X108620312Y-96562332D01*
X108616627Y-96514310D01*
X108615003Y-96474931D01*
X108614328Y-96439219D01*
X108740045Y-96439219D01*
X108741274Y-96474770D01*
X108745734Y-96522094D01*
X108753603Y-96552465D01*
X108767793Y-96574072D01*
X108781083Y-96586694D01*
X108828198Y-96613122D01*
X108877495Y-96616653D01*
X108923407Y-96597639D01*
X108946362Y-96576331D01*
X108962904Y-96554859D01*
X108972579Y-96534313D01*
X108976826Y-96507574D01*
X108977080Y-96467523D01*
X108975772Y-96430638D01*
X108972957Y-96377947D01*
X108968495Y-96343772D01*
X108960452Y-96321480D01*
X108946897Y-96304442D01*
X108936155Y-96294703D01*
X108891223Y-96269123D01*
X108842751Y-96267847D01*
X108802106Y-96282999D01*
X108767433Y-96314642D01*
X108746776Y-96366620D01*
X108740045Y-96439219D01*
X108614328Y-96439219D01*
X108613521Y-96396621D01*
X108616052Y-96338056D01*
X108623638Y-96294007D01*
X108637319Y-96259248D01*
X108658135Y-96228551D01*
X108665853Y-96219436D01*
X108714111Y-96174021D01*
X108765872Y-96147493D01*
X108829172Y-96136379D01*
X108860039Y-96135471D01*
X108941739Y-96145148D01*
G36*
X108941739Y-96145148D02*
G01*
X109007521Y-96174231D01*
X109057460Y-96222793D01*
X109091626Y-96290908D01*
X109110093Y-96378651D01*
X109111417Y-96392351D01*
X109112454Y-96488939D01*
X109099007Y-96573602D01*
X109071892Y-96642221D01*
X109057373Y-96664294D01*
X109006799Y-96711011D01*
X108942391Y-96741268D01*
X108870334Y-96753824D01*
X108796815Y-96747439D01*
X108740928Y-96727772D01*
X108692868Y-96694629D01*
X108653588Y-96651175D01*
X108652908Y-96650158D01*
X108636956Y-96623338D01*
X108626590Y-96596368D01*
X108620312Y-96562332D01*
X108616627Y-96514310D01*
X108615003Y-96474931D01*
X108614328Y-96439219D01*
X108740045Y-96439219D01*
X108741274Y-96474770D01*
X108745734Y-96522094D01*
X108753603Y-96552465D01*
X108767793Y-96574072D01*
X108781083Y-96586694D01*
X108828198Y-96613122D01*
X108877495Y-96616653D01*
X108923407Y-96597639D01*
X108946362Y-96576331D01*
X108962904Y-96554859D01*
X108972579Y-96534313D01*
X108976826Y-96507574D01*
X108977080Y-96467523D01*
X108975772Y-96430638D01*
X108972957Y-96377947D01*
X108968495Y-96343772D01*
X108960452Y-96321480D01*
X108946897Y-96304442D01*
X108936155Y-96294703D01*
X108891223Y-96269123D01*
X108842751Y-96267847D01*
X108802106Y-96282999D01*
X108767433Y-96314642D01*
X108746776Y-96366620D01*
X108740045Y-96439219D01*
X108614328Y-96439219D01*
X108613521Y-96396621D01*
X108616052Y-96338056D01*
X108623638Y-96294007D01*
X108637319Y-96259248D01*
X108658135Y-96228551D01*
X108665853Y-96219436D01*
X108714111Y-96174021D01*
X108765872Y-96147493D01*
X108829172Y-96136379D01*
X108860039Y-96135471D01*
X108941739Y-96145148D01*
G37*
X111278812Y-97697822D02*
X111209654Y-97697822D01*
X111169512Y-97696645D01*
X111148606Y-97691772D01*
X111141078Y-97681186D01*
X111140495Y-97674029D01*
X111139226Y-97659676D01*
X111131221Y-97656923D01*
X111110185Y-97665771D01*
X111093827Y-97674029D01*
X111031023Y-97693597D01*
X110962752Y-97694729D01*
X110907248Y-97680135D01*
X110855562Y-97644877D01*
X110816162Y-97592835D01*
X110794587Y-97531450D01*
X110794038Y-97528018D01*
X110790833Y-97490571D01*
X110789239Y-97436813D01*
X110789367Y-97396155D01*
X110926721Y-97396155D01*
X110929903Y-97450194D01*
X110937141Y-97494735D01*
X110946940Y-97519888D01*
X110984011Y-97554260D01*
X111028026Y-97566582D01*
X111073416Y-97556618D01*
X111112203Y-97526895D01*
X111126892Y-97506905D01*
X111135481Y-97483050D01*
X111139504Y-97448230D01*
X111140495Y-97395930D01*
X111138722Y-97344139D01*
X111134037Y-97298634D01*
X111127397Y-97268181D01*
X111126290Y-97265452D01*
X111099509Y-97233000D01*
X111060421Y-97215183D01*
X111016685Y-97212306D01*
X110975962Y-97224674D01*
X110945913Y-97252593D01*
X110942796Y-97258148D01*
X110933039Y-97292022D01*
X110927723Y-97340728D01*
X110926721Y-97396155D01*
X110789367Y-97396155D01*
X110789432Y-97375540D01*
X110790336Y-97342563D01*
X110796486Y-97260981D01*
X110809267Y-97199730D01*
X110830529Y-97154449D01*
X110862122Y-97120779D01*
X110892793Y-97101014D01*
X110935646Y-97087120D01*
X110988944Y-97082354D01*
X111043520Y-97086236D01*
X111090208Y-97098282D01*
X111114876Y-97112693D01*
X111140495Y-97135878D01*
X111140495Y-96842773D01*
X111278812Y-96842773D01*
X111278812Y-97697822D01*
G36*
X111278812Y-97697822D02*
G01*
X111209654Y-97697822D01*
X111169512Y-97696645D01*
X111148606Y-97691772D01*
X111141078Y-97681186D01*
X111140495Y-97674029D01*
X111139226Y-97659676D01*
X111131221Y-97656923D01*
X111110185Y-97665771D01*
X111093827Y-97674029D01*
X111031023Y-97693597D01*
X110962752Y-97694729D01*
X110907248Y-97680135D01*
X110855562Y-97644877D01*
X110816162Y-97592835D01*
X110794587Y-97531450D01*
X110794038Y-97528018D01*
X110790833Y-97490571D01*
X110789239Y-97436813D01*
X110789367Y-97396155D01*
X110926721Y-97396155D01*
X110929903Y-97450194D01*
X110937141Y-97494735D01*
X110946940Y-97519888D01*
X110984011Y-97554260D01*
X111028026Y-97566582D01*
X111073416Y-97556618D01*
X111112203Y-97526895D01*
X111126892Y-97506905D01*
X111135481Y-97483050D01*
X111139504Y-97448230D01*
X111140495Y-97395930D01*
X111138722Y-97344139D01*
X111134037Y-97298634D01*
X111127397Y-97268181D01*
X111126290Y-97265452D01*
X111099509Y-97233000D01*
X111060421Y-97215183D01*
X111016685Y-97212306D01*
X110975962Y-97224674D01*
X110945913Y-97252593D01*
X110942796Y-97258148D01*
X110933039Y-97292022D01*
X110927723Y-97340728D01*
X110926721Y-97396155D01*
X110789367Y-97396155D01*
X110789432Y-97375540D01*
X110790336Y-97342563D01*
X110796486Y-97260981D01*
X110809267Y-97199730D01*
X110830529Y-97154449D01*
X110862122Y-97120779D01*
X110892793Y-97101014D01*
X110935646Y-97087120D01*
X110988944Y-97082354D01*
X111043520Y-97086236D01*
X111090208Y-97098282D01*
X111114876Y-97112693D01*
X111140495Y-97135878D01*
X111140495Y-96842773D01*
X111278812Y-96842773D01*
X111278812Y-97697822D01*
G37*
X114157898Y-96136457D02*
X114190096Y-96144279D01*
X114251825Y-96172921D01*
X114304610Y-96216667D01*
X114341141Y-96269117D01*
X114346160Y-96280893D01*
X114353045Y-96311740D01*
X114357864Y-96357371D01*
X114359505Y-96403492D01*
X114359505Y-96490693D01*
X114177178Y-96490693D01*
X114101979Y-96490978D01*
X114049003Y-96492704D01*
X114015325Y-96497181D01*
X113998020Y-96505720D01*
X113994163Y-96519630D01*
X114000829Y-96540222D01*
X114012770Y-96564315D01*
X114046080Y-96604525D01*
X114092368Y-96624558D01*
X114148944Y-96623905D01*
X114213031Y-96602101D01*
X114268417Y-96575193D01*
X114314375Y-96611532D01*
X114360333Y-96647872D01*
X114317096Y-96687819D01*
X114259374Y-96725563D01*
X114188386Y-96748320D01*
X114112029Y-96754688D01*
X114038199Y-96743268D01*
X114026287Y-96739393D01*
X113961399Y-96705506D01*
X113913130Y-96654986D01*
X113880465Y-96586325D01*
X113862385Y-96498014D01*
X113862175Y-96496121D01*
X113860556Y-96399878D01*
X113867100Y-96365542D01*
X113994852Y-96365542D01*
X114006584Y-96370822D01*
X114038438Y-96374867D01*
X114085397Y-96377176D01*
X114115154Y-96377525D01*
X114170648Y-96377306D01*
X114205346Y-96375916D01*
X114223601Y-96372251D01*
X114229766Y-96365210D01*
X114228195Y-96353690D01*
X114226878Y-96349233D01*
X114204382Y-96307355D01*
X114169003Y-96273604D01*
X114137780Y-96258773D01*
X114096301Y-96259668D01*
X114054269Y-96278164D01*
X114019012Y-96308786D01*
X113997854Y-96346062D01*
X113994852Y-96365542D01*
X113867100Y-96365542D01*
X113876690Y-96315229D01*
X113908698Y-96244191D01*
X113954701Y-96188779D01*
X114012821Y-96151009D01*
X114081180Y-96132896D01*
X114157898Y-96136457D01*
G36*
X114157898Y-96136457D02*
G01*
X114190096Y-96144279D01*
X114251825Y-96172921D01*
X114304610Y-96216667D01*
X114341141Y-96269117D01*
X114346160Y-96280893D01*
X114353045Y-96311740D01*
X114357864Y-96357371D01*
X114359505Y-96403492D01*
X114359505Y-96490693D01*
X114177178Y-96490693D01*
X114101979Y-96490978D01*
X114049003Y-96492704D01*
X114015325Y-96497181D01*
X113998020Y-96505720D01*
X113994163Y-96519630D01*
X114000829Y-96540222D01*
X114012770Y-96564315D01*
X114046080Y-96604525D01*
X114092368Y-96624558D01*
X114148944Y-96623905D01*
X114213031Y-96602101D01*
X114268417Y-96575193D01*
X114314375Y-96611532D01*
X114360333Y-96647872D01*
X114317096Y-96687819D01*
X114259374Y-96725563D01*
X114188386Y-96748320D01*
X114112029Y-96754688D01*
X114038199Y-96743268D01*
X114026287Y-96739393D01*
X113961399Y-96705506D01*
X113913130Y-96654986D01*
X113880465Y-96586325D01*
X113862385Y-96498014D01*
X113862175Y-96496121D01*
X113860556Y-96399878D01*
X113867100Y-96365542D01*
X113994852Y-96365542D01*
X114006584Y-96370822D01*
X114038438Y-96374867D01*
X114085397Y-96377176D01*
X114115154Y-96377525D01*
X114170648Y-96377306D01*
X114205346Y-96375916D01*
X114223601Y-96372251D01*
X114229766Y-96365210D01*
X114228195Y-96353690D01*
X114226878Y-96349233D01*
X114204382Y-96307355D01*
X114169003Y-96273604D01*
X114137780Y-96258773D01*
X114096301Y-96259668D01*
X114054269Y-96278164D01*
X114019012Y-96308786D01*
X113997854Y-96346062D01*
X113994852Y-96365542D01*
X113867100Y-96365542D01*
X113876690Y-96315229D01*
X113908698Y-96244191D01*
X113954701Y-96188779D01*
X114012821Y-96151009D01*
X114081180Y-96132896D01*
X114157898Y-96136457D01*
G37*
X111494017Y-96136452D02*
X111541634Y-96145482D01*
X111591034Y-96164370D01*
X111596312Y-96166777D01*
X111633774Y-96186476D01*
X111659717Y-96204781D01*
X111668103Y-96216508D01*
X111660117Y-96235632D01*
X111640720Y-96263850D01*
X111632110Y-96274384D01*
X111596628Y-96315847D01*
X111550885Y-96288858D01*
X111507350Y-96270878D01*
X111457050Y-96261267D01*
X111408812Y-96260660D01*
X111371467Y-96269691D01*
X111362505Y-96275327D01*
X111345437Y-96301171D01*
X111343363Y-96330941D01*
X111356134Y-96354197D01*
X111363688Y-96358708D01*
X111386325Y-96364309D01*
X111426115Y-96370892D01*
X111475166Y-96377183D01*
X111484215Y-96378170D01*
X111562996Y-96391798D01*
X111620136Y-96414946D01*
X111658030Y-96449752D01*
X111679079Y-96498354D01*
X111685635Y-96557718D01*
X111676577Y-96625198D01*
X111647164Y-96678188D01*
X111597278Y-96716783D01*
X111526800Y-96741081D01*
X111448565Y-96750667D01*
X111384766Y-96750552D01*
X111333016Y-96741845D01*
X111297673Y-96729825D01*
X111253017Y-96708880D01*
X111211747Y-96684574D01*
X111197079Y-96673876D01*
X111159357Y-96643084D01*
X111204852Y-96597049D01*
X111250347Y-96551013D01*
X111302072Y-96585243D01*
X111353952Y-96610952D01*
X111409351Y-96624399D01*
X111462605Y-96625818D01*
X111508049Y-96615443D01*
X111540016Y-96593507D01*
X111550338Y-96574998D01*
X111548789Y-96545314D01*
X111523140Y-96522615D01*
X111473460Y-96506940D01*
X111419031Y-96499695D01*
X111335264Y-96485873D01*
X111273033Y-96459796D01*
X111231507Y-96420699D01*
X111209853Y-96367820D01*
X111206853Y-96305126D01*
X111221671Y-96239642D01*
X111255454Y-96190144D01*
X111308505Y-96156408D01*
X111381126Y-96138207D01*
X111434928Y-96134639D01*
X111494017Y-96136452D01*
G36*
X111494017Y-96136452D02*
G01*
X111541634Y-96145482D01*
X111591034Y-96164370D01*
X111596312Y-96166777D01*
X111633774Y-96186476D01*
X111659717Y-96204781D01*
X111668103Y-96216508D01*
X111660117Y-96235632D01*
X111640720Y-96263850D01*
X111632110Y-96274384D01*
X111596628Y-96315847D01*
X111550885Y-96288858D01*
X111507350Y-96270878D01*
X111457050Y-96261267D01*
X111408812Y-96260660D01*
X111371467Y-96269691D01*
X111362505Y-96275327D01*
X111345437Y-96301171D01*
X111343363Y-96330941D01*
X111356134Y-96354197D01*
X111363688Y-96358708D01*
X111386325Y-96364309D01*
X111426115Y-96370892D01*
X111475166Y-96377183D01*
X111484215Y-96378170D01*
X111562996Y-96391798D01*
X111620136Y-96414946D01*
X111658030Y-96449752D01*
X111679079Y-96498354D01*
X111685635Y-96557718D01*
X111676577Y-96625198D01*
X111647164Y-96678188D01*
X111597278Y-96716783D01*
X111526800Y-96741081D01*
X111448565Y-96750667D01*
X111384766Y-96750552D01*
X111333016Y-96741845D01*
X111297673Y-96729825D01*
X111253017Y-96708880D01*
X111211747Y-96684574D01*
X111197079Y-96673876D01*
X111159357Y-96643084D01*
X111204852Y-96597049D01*
X111250347Y-96551013D01*
X111302072Y-96585243D01*
X111353952Y-96610952D01*
X111409351Y-96624399D01*
X111462605Y-96625818D01*
X111508049Y-96615443D01*
X111540016Y-96593507D01*
X111550338Y-96574998D01*
X111548789Y-96545314D01*
X111523140Y-96522615D01*
X111473460Y-96506940D01*
X111419031Y-96499695D01*
X111335264Y-96485873D01*
X111273033Y-96459796D01*
X111231507Y-96420699D01*
X111209853Y-96367820D01*
X111206853Y-96305126D01*
X111221671Y-96239642D01*
X111255454Y-96190144D01*
X111308505Y-96156408D01*
X111381126Y-96138207D01*
X111434928Y-96134639D01*
X111494017Y-96136452D01*
G37*
X113512581Y-97084970D02*
X113572685Y-97100597D01*
X113623021Y-97132848D01*
X113647393Y-97156940D01*
X113687345Y-97213895D01*
X113710242Y-97279965D01*
X113718108Y-97361182D01*
X113718148Y-97367748D01*
X113718218Y-97433763D01*
X113338264Y-97433763D01*
X113346363Y-97468342D01*
X113360987Y-97499659D01*
X113386581Y-97532291D01*
X113391935Y-97537500D01*
X113437943Y-97565694D01*
X113490410Y-97570475D01*
X113550803Y-97551926D01*
X113561040Y-97546931D01*
X113592439Y-97531745D01*
X113613470Y-97523094D01*
X113617139Y-97522293D01*
X113629948Y-97530063D01*
X113654378Y-97549072D01*
X113666779Y-97559460D01*
X113692476Y-97583321D01*
X113700915Y-97599077D01*
X113695058Y-97613571D01*
X113691928Y-97617534D01*
X113670725Y-97634879D01*
X113635738Y-97655959D01*
X113611337Y-97668265D01*
X113542072Y-97689946D01*
X113465388Y-97696971D01*
X113392765Y-97688647D01*
X113372426Y-97682686D01*
X113309476Y-97648952D01*
X113262815Y-97597045D01*
X113232173Y-97526459D01*
X113217282Y-97436692D01*
X113215647Y-97389753D01*
X113220421Y-97321413D01*
X113340990Y-97321413D01*
X113352652Y-97326465D01*
X113383998Y-97330429D01*
X113429571Y-97332768D01*
X113460446Y-97333169D01*
X113515981Y-97332783D01*
X113551033Y-97330975D01*
X113570262Y-97326773D01*
X113578330Y-97319203D01*
X113579901Y-97308218D01*
X113569121Y-97274381D01*
X113541980Y-97240940D01*
X113506277Y-97215272D01*
X113470560Y-97204772D01*
X113422048Y-97214086D01*
X113380053Y-97241013D01*
X113350936Y-97279827D01*
X113340990Y-97321413D01*
X113220421Y-97321413D01*
X113222599Y-97290236D01*
X113244055Y-97210949D01*
X113280470Y-97151263D01*
X113332297Y-97110549D01*
X113399990Y-97088179D01*
X113436662Y-97083871D01*
X113512581Y-97084970D01*
G36*
X113512581Y-97084970D02*
G01*
X113572685Y-97100597D01*
X113623021Y-97132848D01*
X113647393Y-97156940D01*
X113687345Y-97213895D01*
X113710242Y-97279965D01*
X113718108Y-97361182D01*
X113718148Y-97367748D01*
X113718218Y-97433763D01*
X113338264Y-97433763D01*
X113346363Y-97468342D01*
X113360987Y-97499659D01*
X113386581Y-97532291D01*
X113391935Y-97537500D01*
X113437943Y-97565694D01*
X113490410Y-97570475D01*
X113550803Y-97551926D01*
X113561040Y-97546931D01*
X113592439Y-97531745D01*
X113613470Y-97523094D01*
X113617139Y-97522293D01*
X113629948Y-97530063D01*
X113654378Y-97549072D01*
X113666779Y-97559460D01*
X113692476Y-97583321D01*
X113700915Y-97599077D01*
X113695058Y-97613571D01*
X113691928Y-97617534D01*
X113670725Y-97634879D01*
X113635738Y-97655959D01*
X113611337Y-97668265D01*
X113542072Y-97689946D01*
X113465388Y-97696971D01*
X113392765Y-97688647D01*
X113372426Y-97682686D01*
X113309476Y-97648952D01*
X113262815Y-97597045D01*
X113232173Y-97526459D01*
X113217282Y-97436692D01*
X113215647Y-97389753D01*
X113220421Y-97321413D01*
X113340990Y-97321413D01*
X113352652Y-97326465D01*
X113383998Y-97330429D01*
X113429571Y-97332768D01*
X113460446Y-97333169D01*
X113515981Y-97332783D01*
X113551033Y-97330975D01*
X113570262Y-97326773D01*
X113578330Y-97319203D01*
X113579901Y-97308218D01*
X113569121Y-97274381D01*
X113541980Y-97240940D01*
X113506277Y-97215272D01*
X113470560Y-97204772D01*
X113422048Y-97214086D01*
X113380053Y-97241013D01*
X113350936Y-97279827D01*
X113340990Y-97321413D01*
X113220421Y-97321413D01*
X113222599Y-97290236D01*
X113244055Y-97210949D01*
X113280470Y-97151263D01*
X113332297Y-97110549D01*
X113399990Y-97088179D01*
X113436662Y-97083871D01*
X113512581Y-97084970D01*
G37*
X110123301Y-96152614D02*
X110135832Y-96158514D01*
X110179201Y-96190283D01*
X110220210Y-96236646D01*
X110250832Y-96287696D01*
X110259541Y-96311166D01*
X110267488Y-96353091D01*
X110272226Y-96403757D01*
X110272801Y-96424679D01*
X110272871Y-96490693D01*
X109892917Y-96490693D01*
X109901017Y-96525273D01*
X109920896Y-96566170D01*
X109955653Y-96601514D01*
X109997002Y-96624282D01*
X110023351Y-96629010D01*
X110059084Y-96623273D01*
X110101718Y-96608882D01*
X110116201Y-96602262D01*
X110169760Y-96575513D01*
X110215467Y-96610376D01*
X110241842Y-96633955D01*
X110255876Y-96653417D01*
X110256586Y-96659129D01*
X110244049Y-96672973D01*
X110216572Y-96694012D01*
X110191634Y-96710425D01*
X110124336Y-96739930D01*
X110048890Y-96753284D01*
X109974112Y-96749812D01*
X109914505Y-96731663D01*
X109853059Y-96692784D01*
X109809392Y-96641595D01*
X109782074Y-96575367D01*
X109769678Y-96491371D01*
X109768579Y-96452936D01*
X109772978Y-96364861D01*
X109773518Y-96362299D01*
X109899418Y-96362299D01*
X109902885Y-96370558D01*
X109917137Y-96375113D01*
X109946530Y-96377065D01*
X109995425Y-96377517D01*
X110014252Y-96377525D01*
X110071533Y-96376843D01*
X110107859Y-96374364D01*
X110127396Y-96369443D01*
X110134310Y-96361434D01*
X110134555Y-96358862D01*
X110126664Y-96338423D01*
X110106915Y-96309789D01*
X110098425Y-96299763D01*
X110066906Y-96271408D01*
X110034051Y-96260259D01*
X110016349Y-96259327D01*
X109968461Y-96270981D01*
X109928301Y-96302285D01*
X109902827Y-96347752D01*
X109902375Y-96349233D01*
X109899418Y-96362299D01*
X109773518Y-96362299D01*
X109787608Y-96295510D01*
X109813962Y-96240025D01*
X109846193Y-96200639D01*
X109905783Y-96157931D01*
X109975832Y-96135109D01*
X110050339Y-96133046D01*
X110123301Y-96152614D01*
G36*
X110123301Y-96152614D02*
G01*
X110135832Y-96158514D01*
X110179201Y-96190283D01*
X110220210Y-96236646D01*
X110250832Y-96287696D01*
X110259541Y-96311166D01*
X110267488Y-96353091D01*
X110272226Y-96403757D01*
X110272801Y-96424679D01*
X110272871Y-96490693D01*
X109892917Y-96490693D01*
X109901017Y-96525273D01*
X109920896Y-96566170D01*
X109955653Y-96601514D01*
X109997002Y-96624282D01*
X110023351Y-96629010D01*
X110059084Y-96623273D01*
X110101718Y-96608882D01*
X110116201Y-96602262D01*
X110169760Y-96575513D01*
X110215467Y-96610376D01*
X110241842Y-96633955D01*
X110255876Y-96653417D01*
X110256586Y-96659129D01*
X110244049Y-96672973D01*
X110216572Y-96694012D01*
X110191634Y-96710425D01*
X110124336Y-96739930D01*
X110048890Y-96753284D01*
X109974112Y-96749812D01*
X109914505Y-96731663D01*
X109853059Y-96692784D01*
X109809392Y-96641595D01*
X109782074Y-96575367D01*
X109769678Y-96491371D01*
X109768579Y-96452936D01*
X109772978Y-96364861D01*
X109773518Y-96362299D01*
X109899418Y-96362299D01*
X109902885Y-96370558D01*
X109917137Y-96375113D01*
X109946530Y-96377065D01*
X109995425Y-96377517D01*
X110014252Y-96377525D01*
X110071533Y-96376843D01*
X110107859Y-96374364D01*
X110127396Y-96369443D01*
X110134310Y-96361434D01*
X110134555Y-96358862D01*
X110126664Y-96338423D01*
X110106915Y-96309789D01*
X110098425Y-96299763D01*
X110066906Y-96271408D01*
X110034051Y-96260259D01*
X110016349Y-96259327D01*
X109968461Y-96270981D01*
X109928301Y-96302285D01*
X109902827Y-96347752D01*
X109902375Y-96349233D01*
X109899418Y-96362299D01*
X109773518Y-96362299D01*
X109787608Y-96295510D01*
X109813962Y-96240025D01*
X109846193Y-96200639D01*
X109905783Y-96157931D01*
X109975832Y-96135109D01*
X110050339Y-96133046D01*
X110123301Y-96152614D01*
G37*
X112518411Y-97085417D02*
X112571411Y-97098290D01*
X112586731Y-97105110D01*
X112616428Y-97122974D01*
X112639220Y-97143093D01*
X112656083Y-97168962D01*
X112667998Y-97204073D01*
X112675942Y-97251920D01*
X112680894Y-97315996D01*
X112683831Y-97399794D01*
X112684947Y-97455768D01*
X112689052Y-97697822D01*
X112618932Y-97697822D01*
X112576393Y-97696038D01*
X112554476Y-97689942D01*
X112548812Y-97679706D01*
X112545821Y-97668637D01*
X112532451Y-97670754D01*
X112514233Y-97679629D01*
X112468624Y-97693233D01*
X112410007Y-97696899D01*
X112348354Y-97690903D01*
X112293638Y-97675521D01*
X112288730Y-97673386D01*
X112238723Y-97638255D01*
X112205756Y-97589419D01*
X112190587Y-97532333D01*
X112191746Y-97511824D01*
X112315508Y-97511824D01*
X112326413Y-97539425D01*
X112358745Y-97559204D01*
X112410910Y-97569819D01*
X112438787Y-97571228D01*
X112485247Y-97567620D01*
X112516129Y-97553597D01*
X112523664Y-97546931D01*
X112544076Y-97510666D01*
X112548812Y-97477773D01*
X112548812Y-97433763D01*
X112487513Y-97433763D01*
X112416256Y-97437395D01*
X112366276Y-97448818D01*
X112334696Y-97468824D01*
X112327626Y-97477743D01*
X112315508Y-97511824D01*
X112191746Y-97511824D01*
X112193971Y-97472456D01*
X112216663Y-97415244D01*
X112247624Y-97376580D01*
X112266376Y-97359864D01*
X112284733Y-97348878D01*
X112308619Y-97342180D01*
X112343957Y-97338326D01*
X112396669Y-97335873D01*
X112417577Y-97335168D01*
X112548812Y-97330879D01*
X112548620Y-97291158D01*
X112543537Y-97249405D01*
X112525162Y-97224158D01*
X112488039Y-97208030D01*
X112487043Y-97207742D01*
X112434410Y-97201400D01*
X112382906Y-97209684D01*
X112344630Y-97229827D01*
X112329272Y-97239773D01*
X112312730Y-97238397D01*
X112287275Y-97223987D01*
X112272328Y-97213817D01*
X112243091Y-97192088D01*
X112224980Y-97175800D01*
X112222074Y-97171137D01*
X112234040Y-97147005D01*
X112269396Y-97118185D01*
X112284753Y-97108461D01*
X112328901Y-97091714D01*
X112388398Y-97082227D01*
X112454487Y-97080095D01*
X112518411Y-97085417D01*
G36*
X112518411Y-97085417D02*
G01*
X112571411Y-97098290D01*
X112586731Y-97105110D01*
X112616428Y-97122974D01*
X112639220Y-97143093D01*
X112656083Y-97168962D01*
X112667998Y-97204073D01*
X112675942Y-97251920D01*
X112680894Y-97315996D01*
X112683831Y-97399794D01*
X112684947Y-97455768D01*
X112689052Y-97697822D01*
X112618932Y-97697822D01*
X112576393Y-97696038D01*
X112554476Y-97689942D01*
X112548812Y-97679706D01*
X112545821Y-97668637D01*
X112532451Y-97670754D01*
X112514233Y-97679629D01*
X112468624Y-97693233D01*
X112410007Y-97696899D01*
X112348354Y-97690903D01*
X112293638Y-97675521D01*
X112288730Y-97673386D01*
X112238723Y-97638255D01*
X112205756Y-97589419D01*
X112190587Y-97532333D01*
X112191746Y-97511824D01*
X112315508Y-97511824D01*
X112326413Y-97539425D01*
X112358745Y-97559204D01*
X112410910Y-97569819D01*
X112438787Y-97571228D01*
X112485247Y-97567620D01*
X112516129Y-97553597D01*
X112523664Y-97546931D01*
X112544076Y-97510666D01*
X112548812Y-97477773D01*
X112548812Y-97433763D01*
X112487513Y-97433763D01*
X112416256Y-97437395D01*
X112366276Y-97448818D01*
X112334696Y-97468824D01*
X112327626Y-97477743D01*
X112315508Y-97511824D01*
X112191746Y-97511824D01*
X112193971Y-97472456D01*
X112216663Y-97415244D01*
X112247624Y-97376580D01*
X112266376Y-97359864D01*
X112284733Y-97348878D01*
X112308619Y-97342180D01*
X112343957Y-97338326D01*
X112396669Y-97335873D01*
X112417577Y-97335168D01*
X112548812Y-97330879D01*
X112548620Y-97291158D01*
X112543537Y-97249405D01*
X112525162Y-97224158D01*
X112488039Y-97208030D01*
X112487043Y-97207742D01*
X112434410Y-97201400D01*
X112382906Y-97209684D01*
X112344630Y-97229827D01*
X112329272Y-97239773D01*
X112312730Y-97238397D01*
X112287275Y-97223987D01*
X112272328Y-97213817D01*
X112243091Y-97192088D01*
X112224980Y-97175800D01*
X112222074Y-97171137D01*
X112234040Y-97147005D01*
X112269396Y-97118185D01*
X112284753Y-97108461D01*
X112328901Y-97091714D01*
X112388398Y-97082227D01*
X112454487Y-97080095D01*
X112518411Y-97085417D01*
G37*
X110095790Y-97086555D02*
X110154945Y-97102339D01*
X110199977Y-97130948D01*
X110231754Y-97168419D01*
X110241634Y-97184411D01*
X110248927Y-97201163D01*
X110254026Y-97222592D01*
X110257321Y-97252616D01*
X110259203Y-97295154D01*
X110260063Y-97354122D01*
X110260293Y-97433440D01*
X110260297Y-97454484D01*
X110260297Y-97697822D01*
X110199941Y-97697822D01*
X110161443Y-97695126D01*
X110132977Y-97688295D01*
X110125845Y-97684083D01*
X110106348Y-97676813D01*
X110086434Y-97684083D01*
X110053647Y-97693160D01*
X110006022Y-97696813D01*
X109953236Y-97695228D01*
X109904964Y-97688589D01*
X109876782Y-97680072D01*
X109822247Y-97645063D01*
X109788165Y-97596479D01*
X109772843Y-97531882D01*
X109772701Y-97530223D01*
X109774045Y-97501566D01*
X109895644Y-97501566D01*
X109906274Y-97534161D01*
X109923590Y-97552505D01*
X109958348Y-97566379D01*
X110004227Y-97571917D01*
X110051012Y-97569191D01*
X110088486Y-97558274D01*
X110098985Y-97551269D01*
X110117332Y-97518904D01*
X110121980Y-97482111D01*
X110121980Y-97433763D01*
X110052418Y-97433763D01*
X109986333Y-97438850D01*
X109936236Y-97453263D01*
X109905071Y-97475729D01*
X109895644Y-97501566D01*
X109774045Y-97501566D01*
X109776013Y-97459647D01*
X109799290Y-97403845D01*
X109843052Y-97361647D01*
X109849101Y-97357808D01*
X109875093Y-97345309D01*
X109907265Y-97337740D01*
X109952240Y-97334061D01*
X110005669Y-97333216D01*
X110121980Y-97333169D01*
X110121980Y-97284411D01*
X110117047Y-97246581D01*
X110104457Y-97221236D01*
X110102983Y-97219887D01*
X110074966Y-97208800D01*
X110032674Y-97204503D01*
X109985936Y-97206615D01*
X109944582Y-97214756D01*
X109920043Y-97226965D01*
X109906747Y-97236746D01*
X109892706Y-97238613D01*
X109873329Y-97230600D01*
X109844024Y-97210739D01*
X109800197Y-97177063D01*
X109796175Y-97173909D01*
X109798236Y-97162236D01*
X109815432Y-97142822D01*
X109841567Y-97121248D01*
X109870448Y-97103096D01*
X109879522Y-97098809D01*
X109912620Y-97090256D01*
X109961120Y-97084155D01*
X110015305Y-97081708D01*
X110017839Y-97081703D01*
X110095790Y-97086555D01*
G36*
X110095790Y-97086555D02*
G01*
X110154945Y-97102339D01*
X110199977Y-97130948D01*
X110231754Y-97168419D01*
X110241634Y-97184411D01*
X110248927Y-97201163D01*
X110254026Y-97222592D01*
X110257321Y-97252616D01*
X110259203Y-97295154D01*
X110260063Y-97354122D01*
X110260293Y-97433440D01*
X110260297Y-97454484D01*
X110260297Y-97697822D01*
X110199941Y-97697822D01*
X110161443Y-97695126D01*
X110132977Y-97688295D01*
X110125845Y-97684083D01*
X110106348Y-97676813D01*
X110086434Y-97684083D01*
X110053647Y-97693160D01*
X110006022Y-97696813D01*
X109953236Y-97695228D01*
X109904964Y-97688589D01*
X109876782Y-97680072D01*
X109822247Y-97645063D01*
X109788165Y-97596479D01*
X109772843Y-97531882D01*
X109772701Y-97530223D01*
X109774045Y-97501566D01*
X109895644Y-97501566D01*
X109906274Y-97534161D01*
X109923590Y-97552505D01*
X109958348Y-97566379D01*
X110004227Y-97571917D01*
X110051012Y-97569191D01*
X110088486Y-97558274D01*
X110098985Y-97551269D01*
X110117332Y-97518904D01*
X110121980Y-97482111D01*
X110121980Y-97433763D01*
X110052418Y-97433763D01*
X109986333Y-97438850D01*
X109936236Y-97453263D01*
X109905071Y-97475729D01*
X109895644Y-97501566D01*
X109774045Y-97501566D01*
X109776013Y-97459647D01*
X109799290Y-97403845D01*
X109843052Y-97361647D01*
X109849101Y-97357808D01*
X109875093Y-97345309D01*
X109907265Y-97337740D01*
X109952240Y-97334061D01*
X110005669Y-97333216D01*
X110121980Y-97333169D01*
X110121980Y-97284411D01*
X110117047Y-97246581D01*
X110104457Y-97221236D01*
X110102983Y-97219887D01*
X110074966Y-97208800D01*
X110032674Y-97204503D01*
X109985936Y-97206615D01*
X109944582Y-97214756D01*
X109920043Y-97226965D01*
X109906747Y-97236746D01*
X109892706Y-97238613D01*
X109873329Y-97230600D01*
X109844024Y-97210739D01*
X109800197Y-97177063D01*
X109796175Y-97173909D01*
X109798236Y-97162236D01*
X109815432Y-97142822D01*
X109841567Y-97121248D01*
X109870448Y-97103096D01*
X109879522Y-97098809D01*
X109912620Y-97090256D01*
X109961120Y-97084155D01*
X110015305Y-97081708D01*
X110017839Y-97081703D01*
X110095790Y-97086555D01*
G37*
X109571241Y-96149184D02*
X109597753Y-96162282D01*
X109630447Y-96185106D01*
X109654275Y-96209996D01*
X109670594Y-96241249D01*
X109680760Y-96283166D01*
X109686128Y-96340044D01*
X109688056Y-96416184D01*
X109688169Y-96448917D01*
X109687839Y-96520656D01*
X109686473Y-96571927D01*
X109683500Y-96607404D01*
X109678351Y-96631763D01*
X109670457Y-96649680D01*
X109662243Y-96661902D01*
X109609813Y-96713905D01*
X109548070Y-96745184D01*
X109481464Y-96754592D01*
X109414442Y-96740980D01*
X109393208Y-96731354D01*
X109342376Y-96704859D01*
X109342376Y-97120052D01*
X109379475Y-97100868D01*
X109428357Y-97086025D01*
X109488439Y-97082222D01*
X109548436Y-97089243D01*
X109593744Y-97105013D01*
X109631325Y-97135047D01*
X109663436Y-97178024D01*
X109665850Y-97182436D01*
X109676033Y-97203221D01*
X109683470Y-97224170D01*
X109688589Y-97249548D01*
X109691819Y-97283618D01*
X109693587Y-97330641D01*
X109694323Y-97394882D01*
X109694456Y-97467176D01*
X109694456Y-97697822D01*
X109556139Y-97697822D01*
X109556139Y-97272533D01*
X109517451Y-97239979D01*
X109477262Y-97213940D01*
X109439203Y-97209205D01*
X109400934Y-97221389D01*
X109380538Y-97233320D01*
X109365358Y-97250313D01*
X109354562Y-97275995D01*
X109347317Y-97313991D01*
X109342792Y-97367926D01*
X109340156Y-97441425D01*
X109339228Y-97490347D01*
X109336089Y-97691535D01*
X109270074Y-97695336D01*
X109204060Y-97699136D01*
X109204060Y-96450650D01*
X109342376Y-96450650D01*
X109345903Y-96520254D01*
X109357785Y-96568569D01*
X109379980Y-96598631D01*
X109414441Y-96613471D01*
X109449258Y-96616436D01*
X109488671Y-96613028D01*
X109514829Y-96599617D01*
X109531186Y-96581896D01*
X109544063Y-96562835D01*
X109551728Y-96541601D01*
X109555139Y-96511849D01*
X109555251Y-96467236D01*
X109554103Y-96429880D01*
X109551468Y-96373604D01*
X109547544Y-96336658D01*
X109540937Y-96313223D01*
X109530251Y-96297480D01*
X109520167Y-96288380D01*
X109478030Y-96268537D01*
X109428160Y-96265332D01*
X109399524Y-96272168D01*
X109371172Y-96296464D01*
X109352391Y-96343728D01*
X109343288Y-96413624D01*
X109342376Y-96450650D01*
X109204060Y-96450650D01*
X109204060Y-96138614D01*
X109273218Y-96138614D01*
X109314740Y-96140256D01*
X109336162Y-96146087D01*
X109342374Y-96157461D01*
X109342376Y-96157798D01*
X109345258Y-96168938D01*
X109357970Y-96167673D01*
X109383243Y-96155433D01*
X109442131Y-96136707D01*
X109508385Y-96134739D01*
X109571241Y-96149184D01*
G36*
X109571241Y-96149184D02*
G01*
X109597753Y-96162282D01*
X109630447Y-96185106D01*
X109654275Y-96209996D01*
X109670594Y-96241249D01*
X109680760Y-96283166D01*
X109686128Y-96340044D01*
X109688056Y-96416184D01*
X109688169Y-96448917D01*
X109687839Y-96520656D01*
X109686473Y-96571927D01*
X109683500Y-96607404D01*
X109678351Y-96631763D01*
X109670457Y-96649680D01*
X109662243Y-96661902D01*
X109609813Y-96713905D01*
X109548070Y-96745184D01*
X109481464Y-96754592D01*
X109414442Y-96740980D01*
X109393208Y-96731354D01*
X109342376Y-96704859D01*
X109342376Y-97120052D01*
X109379475Y-97100868D01*
X109428357Y-97086025D01*
X109488439Y-97082222D01*
X109548436Y-97089243D01*
X109593744Y-97105013D01*
X109631325Y-97135047D01*
X109663436Y-97178024D01*
X109665850Y-97182436D01*
X109676033Y-97203221D01*
X109683470Y-97224170D01*
X109688589Y-97249548D01*
X109691819Y-97283618D01*
X109693587Y-97330641D01*
X109694323Y-97394882D01*
X109694456Y-97467176D01*
X109694456Y-97697822D01*
X109556139Y-97697822D01*
X109556139Y-97272533D01*
X109517451Y-97239979D01*
X109477262Y-97213940D01*
X109439203Y-97209205D01*
X109400934Y-97221389D01*
X109380538Y-97233320D01*
X109365358Y-97250313D01*
X109354562Y-97275995D01*
X109347317Y-97313991D01*
X109342792Y-97367926D01*
X109340156Y-97441425D01*
X109339228Y-97490347D01*
X109336089Y-97691535D01*
X109270074Y-97695336D01*
X109204060Y-97699136D01*
X109204060Y-96450650D01*
X109342376Y-96450650D01*
X109345903Y-96520254D01*
X109357785Y-96568569D01*
X109379980Y-96598631D01*
X109414441Y-96613471D01*
X109449258Y-96616436D01*
X109488671Y-96613028D01*
X109514829Y-96599617D01*
X109531186Y-96581896D01*
X109544063Y-96562835D01*
X109551728Y-96541601D01*
X109555139Y-96511849D01*
X109555251Y-96467236D01*
X109554103Y-96429880D01*
X109551468Y-96373604D01*
X109547544Y-96336658D01*
X109540937Y-96313223D01*
X109530251Y-96297480D01*
X109520167Y-96288380D01*
X109478030Y-96268537D01*
X109428160Y-96265332D01*
X109399524Y-96272168D01*
X109371172Y-96296464D01*
X109352391Y-96343728D01*
X109343288Y-96413624D01*
X109342376Y-96450650D01*
X109204060Y-96450650D01*
X109204060Y-96138614D01*
X109273218Y-96138614D01*
X109314740Y-96140256D01*
X109336162Y-96146087D01*
X109342374Y-96157461D01*
X109342376Y-96157798D01*
X109345258Y-96168938D01*
X109357970Y-96167673D01*
X109383243Y-96155433D01*
X109442131Y-96136707D01*
X109508385Y-96134739D01*
X109571241Y-96149184D01*
G37*
X111856964Y-91970018D02*
X111913812Y-92271570D01*
X112333338Y-92444512D01*
X112584984Y-92273395D01*
X112655458Y-92225750D01*
X112719163Y-92183210D01*
X112773126Y-92147715D01*
X112814373Y-92121210D01*
X112839934Y-92105636D01*
X112846895Y-92102278D01*
X112859435Y-92110914D01*
X112886231Y-92134792D01*
X112924280Y-92170859D01*
X112970579Y-92216067D01*
X113022123Y-92267364D01*
X113075909Y-92321701D01*
X113128935Y-92376028D01*
X113178195Y-92427295D01*
X113220687Y-92472451D01*
X113253407Y-92508446D01*
X113273351Y-92532230D01*
X113278119Y-92540190D01*
X113271257Y-92554865D01*
X113252020Y-92587014D01*
X113222430Y-92633492D01*
X113184510Y-92691156D01*
X113140282Y-92756860D01*
X113114654Y-92794336D01*
X113067941Y-92862768D01*
X113026432Y-92924520D01*
X112992140Y-92976519D01*
X112967080Y-93015692D01*
X112953264Y-93038965D01*
X112951188Y-93043855D01*
X112955895Y-93057755D01*
X112968723Y-93090150D01*
X112987738Y-93136485D01*
X113011003Y-93192206D01*
X113036584Y-93252758D01*
X113062545Y-93313586D01*
X113086950Y-93370136D01*
X113107863Y-93417852D01*
X113123349Y-93452181D01*
X113131472Y-93468568D01*
X113131952Y-93469212D01*
X113144707Y-93472341D01*
X113178677Y-93479321D01*
X113230340Y-93489467D01*
X113296176Y-93502092D01*
X113372664Y-93516509D01*
X113417290Y-93524823D01*
X113499021Y-93540384D01*
X113572843Y-93555192D01*
X113635021Y-93568436D01*
X113681822Y-93579305D01*
X113709509Y-93586989D01*
X113715074Y-93589427D01*
X113720526Y-93605930D01*
X113724924Y-93643200D01*
X113728272Y-93696880D01*
X113730574Y-93762612D01*
X113731832Y-93836037D01*
X113732048Y-93912796D01*
X113731227Y-93988532D01*
X113729371Y-94058886D01*
X113726482Y-94119500D01*
X113722565Y-94166016D01*
X113717622Y-94194075D01*
X113714657Y-94199916D01*
X113696934Y-94206917D01*
X113659381Y-94216927D01*
X113606964Y-94228769D01*
X113544652Y-94241267D01*
X113522900Y-94245310D01*
X113418024Y-94264520D01*
X113335180Y-94279991D01*
X113271630Y-94292337D01*
X113224637Y-94302173D01*
X113191463Y-94310114D01*
X113169371Y-94316776D01*
X113155624Y-94322773D01*
X113147484Y-94328719D01*
X113146345Y-94329894D01*
X113134977Y-94348826D01*
X113117635Y-94385669D01*
X113096050Y-94435913D01*
X113071954Y-94495046D01*
X113047079Y-94558556D01*
X113023157Y-94621932D01*
X113001919Y-94680662D01*
X112985097Y-94730235D01*
X112974422Y-94766139D01*
X112971627Y-94783862D01*
X112971860Y-94784483D01*
X112981331Y-94798970D01*
X113002818Y-94830844D01*
X113034063Y-94876789D01*
X113072807Y-94933485D01*
X113116793Y-94997617D01*
X113129319Y-95015842D01*
X113173984Y-95081914D01*
X113213288Y-95142200D01*
X113245088Y-95193235D01*
X113267245Y-95231560D01*
X113277617Y-95253711D01*
X113278119Y-95256432D01*
X113269405Y-95270736D01*
X113245325Y-95299072D01*
X113208976Y-95338396D01*
X113163453Y-95385661D01*
X113111852Y-95437823D01*
X113057267Y-95491835D01*
X113002794Y-95544653D01*
X112951529Y-95593231D01*
X112906567Y-95634523D01*
X112871004Y-95665485D01*
X112847935Y-95683070D01*
X112841554Y-95685941D01*
X112826699Y-95679178D01*
X112796286Y-95660939D01*
X112755268Y-95634297D01*
X112723709Y-95612852D01*
X112666525Y-95573503D01*
X112598806Y-95527171D01*
X112530880Y-95480913D01*
X112494361Y-95456155D01*
X112370752Y-95372547D01*
X112266991Y-95428650D01*
X112219720Y-95453228D01*
X112179523Y-95472331D01*
X112152326Y-95483227D01*
X112145402Y-95484743D01*
X112137077Y-95473549D01*
X112120654Y-95441917D01*
X112097357Y-95392765D01*
X112068414Y-95329010D01*
X112035050Y-95253571D01*
X111998491Y-95169364D01*
X111959964Y-95079308D01*
X111920694Y-94986321D01*
X111881908Y-94893320D01*
X111844830Y-94803223D01*
X111810689Y-94718948D01*
X111780708Y-94643413D01*
X111756116Y-94579534D01*
X111738136Y-94530231D01*
X111727997Y-94498421D01*
X111726366Y-94487496D01*
X111739291Y-94473561D01*
X111767589Y-94450940D01*
X111805346Y-94424333D01*
X111808515Y-94422228D01*
X111906100Y-94344114D01*
X111984786Y-94252982D01*
X112043891Y-94151745D01*
X112082732Y-94043318D01*
X112100628Y-93930614D01*
X112096897Y-93816548D01*
X112070857Y-93704034D01*
X112021825Y-93595985D01*
X112007400Y-93572345D01*
X111932369Y-93476887D01*
X111843730Y-93400232D01*
X111744549Y-93342780D01*
X111637895Y-93304929D01*
X111526836Y-93287078D01*
X111414439Y-93289625D01*
X111303773Y-93312970D01*
X111197906Y-93357510D01*
X111099905Y-93423645D01*
X111069590Y-93450487D01*
X110992438Y-93534512D01*
X110936218Y-93622966D01*
X110897653Y-93722115D01*
X110876174Y-93820303D01*
X110870872Y-93930697D01*
X110888552Y-94041640D01*
X110927419Y-94149381D01*
X110985677Y-94250169D01*
X111061531Y-94340256D01*
X111153183Y-94415892D01*
X111165228Y-94423864D01*
X111203389Y-94449974D01*
X111232399Y-94472595D01*
X111246268Y-94487039D01*
X111246469Y-94487496D01*
X111243492Y-94503121D01*
X111231689Y-94538582D01*
X111212286Y-94590962D01*
X111186512Y-94657345D01*
X111155591Y-94734814D01*
X111120751Y-94820450D01*
X111083217Y-94911337D01*
X111044217Y-95004559D01*
X111004977Y-95097197D01*
X110966724Y-95186335D01*
X110930683Y-95269055D01*
X110898083Y-95342441D01*
X110870148Y-95403575D01*
X110848105Y-95449541D01*
X110833182Y-95477421D01*
X110827172Y-95484743D01*
X110808809Y-95479041D01*
X110774448Y-95463749D01*
X110730016Y-95441599D01*
X110705583Y-95428650D01*
X110601822Y-95372547D01*
X110478213Y-95456155D01*
X110415114Y-95498987D01*
X110346030Y-95546122D01*
X110281293Y-95590503D01*
X110248866Y-95612852D01*
X110203259Y-95643477D01*
X110164640Y-95667747D01*
X110138048Y-95682587D01*
X110129410Y-95685724D01*
X110116839Y-95677261D01*
X110089016Y-95653636D01*
X110048639Y-95617302D01*
X109998405Y-95570711D01*
X109941012Y-95516317D01*
X109904714Y-95481392D01*
X109841210Y-95418996D01*
X109786327Y-95363188D01*
X109742286Y-95316354D01*
X109711305Y-95280882D01*
X109695602Y-95259161D01*
X109694095Y-95254752D01*
X109701086Y-95237985D01*
X109720406Y-95204082D01*
X109749909Y-95156476D01*
X109787455Y-95098599D01*
X109830900Y-95033884D01*
X109843255Y-95015842D01*
X109888273Y-94950267D01*
X109928660Y-94891228D01*
X109962160Y-94842042D01*
X109986514Y-94806028D01*
X109999464Y-94786502D01*
X110000715Y-94784483D01*
X109998844Y-94768922D01*
X109988913Y-94734709D01*
X109972653Y-94686355D01*
X109951795Y-94628371D01*
X109928073Y-94565270D01*
X109903216Y-94501563D01*
X109878958Y-94441761D01*
X109857029Y-94390376D01*
X109839162Y-94351919D01*
X109827087Y-94330902D01*
X109826229Y-94329894D01*
X109818846Y-94323888D01*
X109806375Y-94317948D01*
X109786080Y-94311460D01*
X109755222Y-94303809D01*
X109711066Y-94294380D01*
X109650874Y-94282559D01*
X109571907Y-94267729D01*
X109471430Y-94249277D01*
X109449675Y-94245310D01*
X109385198Y-94232853D01*
X109328989Y-94220666D01*
X109286013Y-94209926D01*
X109261240Y-94201809D01*
X109257918Y-94199916D01*
X109252444Y-94183138D01*
X109247994Y-94145645D01*
X109244572Y-94091794D01*
X109242181Y-94025944D01*
X109240823Y-93952453D01*
X109240501Y-93875680D01*
X109241219Y-93799983D01*
X109242979Y-93729720D01*
X109245784Y-93669250D01*
X109249638Y-93622930D01*
X109254543Y-93595119D01*
X109257500Y-93589427D01*
X109273963Y-93583686D01*
X109311449Y-93574345D01*
X109366225Y-93562215D01*
X109434555Y-93548107D01*
X109512706Y-93532830D01*
X109555284Y-93524823D01*
X109636071Y-93509721D01*
X109708113Y-93496040D01*
X109767889Y-93484467D01*
X109811879Y-93475687D01*
X109836561Y-93470387D01*
X109840623Y-93469212D01*
X109847489Y-93455965D01*
X109862002Y-93424057D01*
X109882229Y-93378047D01*
X109906234Y-93322492D01*
X109932082Y-93261953D01*
X109957840Y-93200986D01*
X109981573Y-93144151D01*
X110001346Y-93096006D01*
X110015224Y-93061110D01*
X110021274Y-93044021D01*
X110021386Y-93043274D01*
X110014528Y-93029793D01*
X109995302Y-92998770D01*
X109965728Y-92953289D01*
X109927827Y-92896432D01*
X109883620Y-92831283D01*
X109857921Y-92793862D01*
X109811093Y-92725247D01*
X109769501Y-92662952D01*
X109735175Y-92610129D01*
X109710143Y-92569927D01*
X109696435Y-92545500D01*
X109694456Y-92540024D01*
X109702966Y-92527278D01*
X109726493Y-92500063D01*
X109762032Y-92461428D01*
X109806577Y-92414423D01*
X109857123Y-92362095D01*
X109910664Y-92307495D01*
X109964195Y-92253670D01*
X110014711Y-92203670D01*
X110059206Y-92160543D01*
X110094675Y-92127339D01*
X110118113Y-92107106D01*
X110125954Y-92102278D01*
X110138720Y-92109067D01*
X110169256Y-92128142D01*
X110214590Y-92157561D01*
X110271756Y-92195381D01*
X110337784Y-92239661D01*
X110387590Y-92273395D01*
X110639236Y-92444512D01*
X110848999Y-92358041D01*
X111058763Y-92271570D01*
X111115611Y-91970018D01*
X111172460Y-91668466D01*
X111800115Y-91668466D01*
X111856964Y-91970018D01*
G36*
X111856964Y-91970018D02*
G01*
X111913812Y-92271570D01*
X112333338Y-92444512D01*
X112584984Y-92273395D01*
X112655458Y-92225750D01*
X112719163Y-92183210D01*
X112773126Y-92147715D01*
X112814373Y-92121210D01*
X112839934Y-92105636D01*
X112846895Y-92102278D01*
X112859435Y-92110914D01*
X112886231Y-92134792D01*
X112924280Y-92170859D01*
X112970579Y-92216067D01*
X113022123Y-92267364D01*
X113075909Y-92321701D01*
X113128935Y-92376028D01*
X113178195Y-92427295D01*
X113220687Y-92472451D01*
X113253407Y-92508446D01*
X113273351Y-92532230D01*
X113278119Y-92540190D01*
X113271257Y-92554865D01*
X113252020Y-92587014D01*
X113222430Y-92633492D01*
X113184510Y-92691156D01*
X113140282Y-92756860D01*
X113114654Y-92794336D01*
X113067941Y-92862768D01*
X113026432Y-92924520D01*
X112992140Y-92976519D01*
X112967080Y-93015692D01*
X112953264Y-93038965D01*
X112951188Y-93043855D01*
X112955895Y-93057755D01*
X112968723Y-93090150D01*
X112987738Y-93136485D01*
X113011003Y-93192206D01*
X113036584Y-93252758D01*
X113062545Y-93313586D01*
X113086950Y-93370136D01*
X113107863Y-93417852D01*
X113123349Y-93452181D01*
X113131472Y-93468568D01*
X113131952Y-93469212D01*
X113144707Y-93472341D01*
X113178677Y-93479321D01*
X113230340Y-93489467D01*
X113296176Y-93502092D01*
X113372664Y-93516509D01*
X113417290Y-93524823D01*
X113499021Y-93540384D01*
X113572843Y-93555192D01*
X113635021Y-93568436D01*
X113681822Y-93579305D01*
X113709509Y-93586989D01*
X113715074Y-93589427D01*
X113720526Y-93605930D01*
X113724924Y-93643200D01*
X113728272Y-93696880D01*
X113730574Y-93762612D01*
X113731832Y-93836037D01*
X113732048Y-93912796D01*
X113731227Y-93988532D01*
X113729371Y-94058886D01*
X113726482Y-94119500D01*
X113722565Y-94166016D01*
X113717622Y-94194075D01*
X113714657Y-94199916D01*
X113696934Y-94206917D01*
X113659381Y-94216927D01*
X113606964Y-94228769D01*
X113544652Y-94241267D01*
X113522900Y-94245310D01*
X113418024Y-94264520D01*
X113335180Y-94279991D01*
X113271630Y-94292337D01*
X113224637Y-94302173D01*
X113191463Y-94310114D01*
X113169371Y-94316776D01*
X113155624Y-94322773D01*
X113147484Y-94328719D01*
X113146345Y-94329894D01*
X113134977Y-94348826D01*
X113117635Y-94385669D01*
X113096050Y-94435913D01*
X113071954Y-94495046D01*
X113047079Y-94558556D01*
X113023157Y-94621932D01*
X113001919Y-94680662D01*
X112985097Y-94730235D01*
X112974422Y-94766139D01*
X112971627Y-94783862D01*
X112971860Y-94784483D01*
X112981331Y-94798970D01*
X113002818Y-94830844D01*
X113034063Y-94876789D01*
X113072807Y-94933485D01*
X113116793Y-94997617D01*
X113129319Y-95015842D01*
X113173984Y-95081914D01*
X113213288Y-95142200D01*
X113245088Y-95193235D01*
X113267245Y-95231560D01*
X113277617Y-95253711D01*
X113278119Y-95256432D01*
X113269405Y-95270736D01*
X113245325Y-95299072D01*
X113208976Y-95338396D01*
X113163453Y-95385661D01*
X113111852Y-95437823D01*
X113057267Y-95491835D01*
X113002794Y-95544653D01*
X112951529Y-95593231D01*
X112906567Y-95634523D01*
X112871004Y-95665485D01*
X112847935Y-95683070D01*
X112841554Y-95685941D01*
X112826699Y-95679178D01*
X112796286Y-95660939D01*
X112755268Y-95634297D01*
X112723709Y-95612852D01*
X112666525Y-95573503D01*
X112598806Y-95527171D01*
X112530880Y-95480913D01*
X112494361Y-95456155D01*
X112370752Y-95372547D01*
X112266991Y-95428650D01*
X112219720Y-95453228D01*
X112179523Y-95472331D01*
X112152326Y-95483227D01*
X112145402Y-95484743D01*
X112137077Y-95473549D01*
X112120654Y-95441917D01*
X112097357Y-95392765D01*
X112068414Y-95329010D01*
X112035050Y-95253571D01*
X111998491Y-95169364D01*
X111959964Y-95079308D01*
X111920694Y-94986321D01*
X111881908Y-94893320D01*
X111844830Y-94803223D01*
X111810689Y-94718948D01*
X111780708Y-94643413D01*
X111756116Y-94579534D01*
X111738136Y-94530231D01*
X111727997Y-94498421D01*
X111726366Y-94487496D01*
X111739291Y-94473561D01*
X111767589Y-94450940D01*
X111805346Y-94424333D01*
X111808515Y-94422228D01*
X111906100Y-94344114D01*
X111984786Y-94252982D01*
X112043891Y-94151745D01*
X112082732Y-94043318D01*
X112100628Y-93930614D01*
X112096897Y-93816548D01*
X112070857Y-93704034D01*
X112021825Y-93595985D01*
X112007400Y-93572345D01*
X111932369Y-93476887D01*
X111843730Y-93400232D01*
X111744549Y-93342780D01*
X111637895Y-93304929D01*
X111526836Y-93287078D01*
X111414439Y-93289625D01*
X111303773Y-93312970D01*
X111197906Y-93357510D01*
X111099905Y-93423645D01*
X111069590Y-93450487D01*
X110992438Y-93534512D01*
X110936218Y-93622966D01*
X110897653Y-93722115D01*
X110876174Y-93820303D01*
X110870872Y-93930697D01*
X110888552Y-94041640D01*
X110927419Y-94149381D01*
X110985677Y-94250169D01*
X111061531Y-94340256D01*
X111153183Y-94415892D01*
X111165228Y-94423864D01*
X111203389Y-94449974D01*
X111232399Y-94472595D01*
X111246268Y-94487039D01*
X111246469Y-94487496D01*
X111243492Y-94503121D01*
X111231689Y-94538582D01*
X111212286Y-94590962D01*
X111186512Y-94657345D01*
X111155591Y-94734814D01*
X111120751Y-94820450D01*
X111083217Y-94911337D01*
X111044217Y-95004559D01*
X111004977Y-95097197D01*
X110966724Y-95186335D01*
X110930683Y-95269055D01*
X110898083Y-95342441D01*
X110870148Y-95403575D01*
X110848105Y-95449541D01*
X110833182Y-95477421D01*
X110827172Y-95484743D01*
X110808809Y-95479041D01*
X110774448Y-95463749D01*
X110730016Y-95441599D01*
X110705583Y-95428650D01*
X110601822Y-95372547D01*
X110478213Y-95456155D01*
X110415114Y-95498987D01*
X110346030Y-95546122D01*
X110281293Y-95590503D01*
X110248866Y-95612852D01*
X110203259Y-95643477D01*
X110164640Y-95667747D01*
X110138048Y-95682587D01*
X110129410Y-95685724D01*
X110116839Y-95677261D01*
X110089016Y-95653636D01*
X110048639Y-95617302D01*
X109998405Y-95570711D01*
X109941012Y-95516317D01*
X109904714Y-95481392D01*
X109841210Y-95418996D01*
X109786327Y-95363188D01*
X109742286Y-95316354D01*
X109711305Y-95280882D01*
X109695602Y-95259161D01*
X109694095Y-95254752D01*
X109701086Y-95237985D01*
X109720406Y-95204082D01*
X109749909Y-95156476D01*
X109787455Y-95098599D01*
X109830900Y-95033884D01*
X109843255Y-95015842D01*
X109888273Y-94950267D01*
X109928660Y-94891228D01*
X109962160Y-94842042D01*
X109986514Y-94806028D01*
X109999464Y-94786502D01*
X110000715Y-94784483D01*
X109998844Y-94768922D01*
X109988913Y-94734709D01*
X109972653Y-94686355D01*
X109951795Y-94628371D01*
X109928073Y-94565270D01*
X109903216Y-94501563D01*
X109878958Y-94441761D01*
X109857029Y-94390376D01*
X109839162Y-94351919D01*
X109827087Y-94330902D01*
X109826229Y-94329894D01*
X109818846Y-94323888D01*
X109806375Y-94317948D01*
X109786080Y-94311460D01*
X109755222Y-94303809D01*
X109711066Y-94294380D01*
X109650874Y-94282559D01*
X109571907Y-94267729D01*
X109471430Y-94249277D01*
X109449675Y-94245310D01*
X109385198Y-94232853D01*
X109328989Y-94220666D01*
X109286013Y-94209926D01*
X109261240Y-94201809D01*
X109257918Y-94199916D01*
X109252444Y-94183138D01*
X109247994Y-94145645D01*
X109244572Y-94091794D01*
X109242181Y-94025944D01*
X109240823Y-93952453D01*
X109240501Y-93875680D01*
X109241219Y-93799983D01*
X109242979Y-93729720D01*
X109245784Y-93669250D01*
X109249638Y-93622930D01*
X109254543Y-93595119D01*
X109257500Y-93589427D01*
X109273963Y-93583686D01*
X109311449Y-93574345D01*
X109366225Y-93562215D01*
X109434555Y-93548107D01*
X109512706Y-93532830D01*
X109555284Y-93524823D01*
X109636071Y-93509721D01*
X109708113Y-93496040D01*
X109767889Y-93484467D01*
X109811879Y-93475687D01*
X109836561Y-93470387D01*
X109840623Y-93469212D01*
X109847489Y-93455965D01*
X109862002Y-93424057D01*
X109882229Y-93378047D01*
X109906234Y-93322492D01*
X109932082Y-93261953D01*
X109957840Y-93200986D01*
X109981573Y-93144151D01*
X110001346Y-93096006D01*
X110015224Y-93061110D01*
X110021274Y-93044021D01*
X110021386Y-93043274D01*
X110014528Y-93029793D01*
X109995302Y-92998770D01*
X109965728Y-92953289D01*
X109927827Y-92896432D01*
X109883620Y-92831283D01*
X109857921Y-92793862D01*
X109811093Y-92725247D01*
X109769501Y-92662952D01*
X109735175Y-92610129D01*
X109710143Y-92569927D01*
X109696435Y-92545500D01*
X109694456Y-92540024D01*
X109702966Y-92527278D01*
X109726493Y-92500063D01*
X109762032Y-92461428D01*
X109806577Y-92414423D01*
X109857123Y-92362095D01*
X109910664Y-92307495D01*
X109964195Y-92253670D01*
X110014711Y-92203670D01*
X110059206Y-92160543D01*
X110094675Y-92127339D01*
X110118113Y-92107106D01*
X110125954Y-92102278D01*
X110138720Y-92109067D01*
X110169256Y-92128142D01*
X110214590Y-92157561D01*
X110271756Y-92195381D01*
X110337784Y-92239661D01*
X110387590Y-92273395D01*
X110639236Y-92444512D01*
X110848999Y-92358041D01*
X111058763Y-92271570D01*
X111115611Y-91970018D01*
X111172460Y-91668466D01*
X111800115Y-91668466D01*
X111856964Y-91970018D01*
G37*
D13*
X109320000Y-83275630D02*
X109320000Y-82994470D01*
X110340000Y-83275630D02*
X110340000Y-82994470D01*
D17*
X125213200Y-70433200D02*
X125213200Y-67032140D01*
X125213200Y-63267860D02*
X125213200Y-59866800D01*
X125213200Y-59866800D02*
X114646800Y-59866800D01*
X114646800Y-70433200D02*
X125213200Y-70433200D01*
X114646800Y-67032140D02*
X114646800Y-70433200D01*
X114646800Y-59866800D02*
X114646800Y-63267860D01*
D13*
X108975100Y-81260050D02*
X111695100Y-81260050D01*
X108975100Y-81260050D02*
X108975100Y-76200050D01*
X111695100Y-81260050D02*
X111695100Y-76200050D01*
M02*
