G04 #@! TF.GenerationSoftware,KiCad,Pcbnew,7.0.8-7.0.8~ubuntu22.04.1*
G04 #@! TF.CreationDate,2023-11-29T13:04:59-08:00*
G04 #@! TF.ProjectId,30 mm Cage Plate LED MCPCB,3330206d-6d20-4436-9167-6520506c6174,rev?*
G04 #@! TF.SameCoordinates,Original*
G04 #@! TF.FileFunction,Paste,Top*
G04 #@! TF.FilePolarity,Positive*
%FSLAX46Y46*%
G04 Gerber Fmt 4.6, Leading zero omitted, Abs format (unit mm)*
G04 Created by KiCad (PCBNEW 7.0.8-7.0.8~ubuntu22.04.1) date 2023-11-29 13:04:59*
%MOMM*%
%LPD*%
G01*
G04 APERTURE LIST*
G04 Aperture macros list*
%AMRoundRect*
0 Rectangle with rounded corners*
0 $1 Rounding radius*
0 $2 $3 $4 $5 $6 $7 $8 $9 X,Y pos of 4 corners*
0 Add a 4 corners polygon primitive as box body*
4,1,4,$2,$3,$4,$5,$6,$7,$8,$9,$2,$3,0*
0 Add four circle primitives for the rounded corners*
1,1,$1+$1,$2,$3*
1,1,$1+$1,$4,$5*
1,1,$1+$1,$6,$7*
1,1,$1+$1,$8,$9*
0 Add four rect primitives between the rounded corners*
20,1,$1+$1,$2,$3,$4,$5,0*
20,1,$1+$1,$4,$5,$6,$7,0*
20,1,$1+$1,$6,$7,$8,$9,0*
20,1,$1+$1,$8,$9,$2,$3,0*%
G04 Aperture macros list end*
%ADD10C,0.010000*%
%ADD11RoundRect,0.250000X-0.312500X-0.625000X0.312500X-0.625000X0.312500X0.625000X-0.312500X0.625000X0*%
%ADD12R,1.020000X1.905000*%
%ADD13R,0.500000X2.700000*%
%ADD14RoundRect,0.225000X0.250000X-0.225000X0.250000X0.225000X-0.250000X0.225000X-0.250000X-0.225000X0*%
%ADD15R,1.498600X0.558800*%
%ADD16R,3.302000X3.098800*%
%ADD17RoundRect,0.250000X0.800000X-0.450000X0.800000X0.450000X-0.800000X0.450000X-0.800000X-0.450000X0*%
G04 APERTURE END LIST*
D10*
X120316200Y-80863500D02*
X119683800Y-80863500D01*
X119683800Y-79156500D01*
X120316200Y-79156500D01*
X120316200Y-80863500D01*
G36*
X120316200Y-80863500D02*
G01*
X119683800Y-80863500D01*
X119683800Y-79156500D01*
X120316200Y-79156500D01*
X120316200Y-80863500D01*
G37*
G36*
X106206500Y-81125050D02*
G01*
X103993500Y-81125050D01*
X103993500Y-79788350D01*
X106206500Y-79788350D01*
X106206500Y-81125050D01*
G37*
G36*
X106206500Y-82661750D02*
G01*
X103993500Y-82661750D01*
X103993500Y-81325050D01*
X106206500Y-81325050D01*
X106206500Y-82661750D01*
G37*
D11*
X108777500Y-73824950D03*
X111702500Y-73824950D03*
D12*
X123820000Y-98562500D03*
X123820000Y-88737500D03*
X121280000Y-98562500D03*
X121280000Y-88737500D03*
X118740000Y-98562500D03*
X118740000Y-88737500D03*
X116200000Y-98562500D03*
X116200000Y-88737500D03*
D13*
X118900000Y-80010000D03*
X121100000Y-80010000D03*
D14*
X111300000Y-83910000D03*
X111300000Y-82360000D03*
X112770000Y-83920000D03*
X112770000Y-82370000D03*
D15*
X102394900Y-79320050D03*
X102394900Y-80590050D03*
X102394900Y-81860050D03*
X102394900Y-83130050D03*
X107805100Y-83130050D03*
X107805100Y-81860050D03*
X107805100Y-80590050D03*
X107805100Y-79320050D03*
D14*
X109830000Y-83910050D03*
X109830000Y-82360050D03*
D16*
X124028999Y-65150000D03*
X115831001Y-65150000D03*
D17*
X110335100Y-80300050D03*
X110335100Y-75900050D03*
M02*
