G04 #@! TF.GenerationSoftware,KiCad,Pcbnew,7.0.8-7.0.8~ubuntu22.04.1*
G04 #@! TF.CreationDate,2023-11-02T22:02:32-07:00*
G04 #@! TF.ProjectId,Thorlabs 30 mm Cage Plate LED MCPCB,54686f72-6c61-4627-9320-3330206d6d20,rev?*
G04 #@! TF.SameCoordinates,Original*
G04 #@! TF.FileFunction,Copper,L1,Top*
G04 #@! TF.FilePolarity,Positive*
%FSLAX46Y46*%
G04 Gerber Fmt 4.6, Leading zero omitted, Abs format (unit mm)*
G04 Created by KiCad (PCBNEW 7.0.8-7.0.8~ubuntu22.04.1) date 2023-11-02 22:02:32*
%MOMM*%
%LPD*%
G01*
G04 APERTURE LIST*
G04 Aperture macros list*
%AMRoundRect*
0 Rectangle with rounded corners*
0 $1 Rounding radius*
0 $2 $3 $4 $5 $6 $7 $8 $9 X,Y pos of 4 corners*
0 Add a 4 corners polygon primitive as box body*
4,1,4,$2,$3,$4,$5,$6,$7,$8,$9,$2,$3,0*
0 Add four circle primitives for the rounded corners*
1,1,$1+$1,$2,$3*
1,1,$1+$1,$4,$5*
1,1,$1+$1,$6,$7*
1,1,$1+$1,$8,$9*
0 Add four rect primitives between the rounded corners*
20,1,$1+$1,$2,$3,$4,$5,0*
20,1,$1+$1,$4,$5,$6,$7,0*
20,1,$1+$1,$6,$7,$8,$9,0*
20,1,$1+$1,$8,$9,$2,$3,0*%
G04 Aperture macros list end*
G04 #@! TA.AperFunction,SMDPad,CuDef*
%ADD10RoundRect,0.250000X-0.312500X-0.625000X0.312500X-0.625000X0.312500X0.625000X-0.312500X0.625000X0*%
G04 #@! TD*
G04 #@! TA.AperFunction,SMDPad,CuDef*
%ADD11R,1.020000X1.905000*%
G04 #@! TD*
G04 #@! TA.AperFunction,SMDPad,CuDef*
%ADD12RoundRect,0.225000X0.250000X-0.225000X0.250000X0.225000X-0.250000X0.225000X-0.250000X-0.225000X0*%
G04 #@! TD*
G04 #@! TA.AperFunction,SMDPad,CuDef*
%ADD13R,0.482600X3.251200*%
G04 #@! TD*
G04 #@! TA.AperFunction,SMDPad,CuDef*
%ADD14R,1.295400X3.251200*%
G04 #@! TD*
G04 #@! TA.AperFunction,SMDPad,CuDef*
%ADD15R,1.498600X0.558800*%
G04 #@! TD*
G04 #@! TA.AperFunction,SMDPad,CuDef*
%ADD16R,2.413000X3.073400*%
G04 #@! TD*
G04 #@! TA.AperFunction,SMDPad,CuDef*
%ADD17R,3.302000X3.098800*%
G04 #@! TD*
G04 #@! TA.AperFunction,SMDPad,CuDef*
%ADD18RoundRect,0.250000X0.800000X-0.450000X0.800000X0.450000X-0.800000X0.450000X-0.800000X-0.450000X0*%
G04 #@! TD*
G04 #@! TA.AperFunction,Conductor*
%ADD19C,1.000000*%
G04 #@! TD*
G04 #@! TA.AperFunction,Conductor*
%ADD20C,0.500000*%
G04 #@! TD*
G04 #@! TA.AperFunction,Conductor*
%ADD21C,2.000000*%
G04 #@! TD*
G04 #@! TA.AperFunction,Conductor*
%ADD22C,1.500000*%
G04 #@! TD*
G04 #@! TA.AperFunction,Conductor*
%ADD23C,0.200000*%
G04 #@! TD*
G04 APERTURE END LIST*
D10*
X108777500Y-73824950D03*
X111702500Y-73824950D03*
D11*
X123820000Y-98562500D03*
X123820000Y-88737500D03*
X121280000Y-98562500D03*
X121280000Y-88737500D03*
X118740000Y-98562500D03*
X118740000Y-88737500D03*
X116200000Y-98562500D03*
X116200000Y-88737500D03*
D12*
X111300000Y-83910000D03*
X111300000Y-82360000D03*
X112770000Y-83920000D03*
X112770000Y-82370000D03*
D13*
X121384300Y-80000000D03*
D14*
X120000000Y-80000000D03*
D13*
X118615700Y-80000000D03*
D15*
X102394900Y-79320050D03*
X102394900Y-80590050D03*
X102394900Y-81860050D03*
X102394900Y-83130050D03*
X107805100Y-83130050D03*
X107805100Y-81860050D03*
X107805100Y-80590050D03*
X107805100Y-79320050D03*
D16*
X105100000Y-81225050D03*
D12*
X109830000Y-83910050D03*
X109830000Y-82360050D03*
D17*
X124028999Y-65150000D03*
X115831001Y-65150000D03*
D18*
X110335100Y-80300050D03*
X110335100Y-75900050D03*
D19*
X123820000Y-93700000D02*
X112280000Y-93700000D01*
X123820000Y-93700000D02*
X123820000Y-98562500D01*
X112280000Y-93700000D02*
X105100000Y-86520000D01*
D20*
X105100000Y-79634950D02*
X104785100Y-79320050D01*
X105100000Y-81225050D02*
X105100000Y-82761750D01*
X104465000Y-80590050D02*
X105100000Y-81225050D01*
X104785100Y-79320050D02*
X102394900Y-79320050D01*
D19*
X116200000Y-98562500D02*
X116200000Y-88737500D01*
X105100000Y-86520000D02*
X105100000Y-81225050D01*
D20*
X105100000Y-81225050D02*
X105100000Y-79634950D01*
X106423300Y-84085050D02*
X109830000Y-84085050D01*
X102394900Y-80590050D02*
X104465000Y-80590050D01*
D19*
X123820000Y-88737500D02*
X123820000Y-93700000D01*
D20*
X105100000Y-82761750D02*
X106423300Y-84085050D01*
D19*
X109830000Y-82185050D02*
X116715050Y-82185050D01*
X121280000Y-86750000D02*
X121280000Y-88737500D01*
X112265000Y-78370150D02*
X110335100Y-80300050D01*
D20*
X107805100Y-81860050D02*
X109505000Y-81860050D01*
X109505000Y-81860050D02*
X109830000Y-82185050D01*
X110335100Y-80300050D02*
X110335100Y-81679950D01*
D19*
X116715050Y-82185050D02*
X121280000Y-86750000D01*
X111702500Y-73824950D02*
X112265000Y-74387450D01*
D20*
X110335100Y-81679950D02*
X109830000Y-82185050D01*
D19*
X112265000Y-74387450D02*
X112265000Y-78370150D01*
X110335100Y-76790050D02*
X107805100Y-79320050D01*
X115831001Y-65150000D02*
X115831001Y-67288999D01*
X110335100Y-72784900D02*
X110335100Y-75900050D01*
X110335100Y-75900050D02*
X110335100Y-76790050D01*
X115831001Y-67288999D02*
X110335100Y-72784900D01*
X107805100Y-79320050D02*
X107805100Y-80590050D01*
D21*
X118710000Y-67550000D02*
X118700000Y-67540000D01*
D22*
X112770000Y-63050000D02*
X112770000Y-62990000D01*
X115560000Y-62200000D02*
X118860000Y-62200000D01*
X113360000Y-62400000D02*
X113560000Y-62200000D01*
D20*
X104770000Y-73824950D02*
X108777500Y-73824950D01*
D21*
X118710000Y-76970000D02*
X118730000Y-76990000D01*
D22*
X118860000Y-62200000D02*
X118860000Y-71500000D01*
D20*
X101195600Y-81410050D02*
X101195600Y-77399350D01*
X118615700Y-80000000D02*
X118615700Y-77765700D01*
D19*
X108777500Y-73824950D02*
X108777500Y-70492500D01*
D20*
X118615700Y-77765700D02*
X118610000Y-77760000D01*
D21*
X108777500Y-67042500D02*
X112770000Y-63050000D01*
X118710000Y-76970000D02*
X118710000Y-67550000D01*
D20*
X102394900Y-81860050D02*
X101645600Y-81860050D01*
X101645600Y-81860050D02*
X101195600Y-81410050D01*
D22*
X112770000Y-62990000D02*
X113360000Y-62400000D01*
D20*
X101195600Y-77399350D02*
X104770000Y-73824950D01*
D21*
X108777500Y-70492500D02*
X108777500Y-67042500D01*
D22*
X113560000Y-62200000D02*
X115560000Y-62200000D01*
D23*
X118257462Y-88190000D02*
X113197512Y-83130050D01*
X118660000Y-88657500D02*
X118660000Y-88190000D01*
X113197512Y-83130050D02*
X107805100Y-83130050D01*
X118740000Y-88737500D02*
X118660000Y-88657500D01*
X118660000Y-88190000D02*
X118257462Y-88190000D01*
D21*
X121384300Y-65284300D02*
X121384300Y-80000000D01*
D19*
X120000000Y-80000000D02*
X121080000Y-78920000D01*
D21*
X121250000Y-65150000D02*
X121384300Y-65284300D01*
X124028999Y-65150000D02*
X121250000Y-65150000D01*
D20*
X121384300Y-80000000D02*
X121384300Y-77575700D01*
X121384300Y-77575700D02*
X121400000Y-77560000D01*
G04 #@! TA.AperFunction,Conductor*
G36*
X138015469Y-60020185D02*
G01*
X138036111Y-60036819D01*
X139963181Y-61963888D01*
X139996666Y-62025211D01*
X139999500Y-62051569D01*
X139999500Y-97948430D01*
X139979815Y-98015469D01*
X139963181Y-98036111D01*
X138036111Y-99963181D01*
X137974788Y-99996666D01*
X137948430Y-99999500D01*
X122300231Y-99999500D01*
X122233192Y-99979815D01*
X122187437Y-99927011D01*
X122177493Y-99857853D01*
X122200964Y-99801189D01*
X122204434Y-99796552D01*
X122233796Y-99757331D01*
X122284091Y-99622483D01*
X122290500Y-99562873D01*
X122290499Y-97562128D01*
X122284091Y-97502517D01*
X122263278Y-97446715D01*
X122233797Y-97367671D01*
X122233793Y-97367664D01*
X122147547Y-97252455D01*
X122147544Y-97252452D01*
X122032335Y-97166206D01*
X122032328Y-97166202D01*
X121897482Y-97115908D01*
X121897483Y-97115908D01*
X121837883Y-97109501D01*
X121837881Y-97109500D01*
X121837873Y-97109500D01*
X121837864Y-97109500D01*
X120722129Y-97109500D01*
X120722123Y-97109501D01*
X120662516Y-97115908D01*
X120527671Y-97166202D01*
X120527664Y-97166206D01*
X120412455Y-97252452D01*
X120412452Y-97252455D01*
X120326206Y-97367664D01*
X120326202Y-97367671D01*
X120275908Y-97502517D01*
X120269501Y-97562116D01*
X120269501Y-97562123D01*
X120269500Y-97562135D01*
X120269500Y-99562870D01*
X120269501Y-99562876D01*
X120275908Y-99622483D01*
X120326202Y-99757328D01*
X120326204Y-99757331D01*
X120359036Y-99801189D01*
X120383453Y-99866653D01*
X120368601Y-99934926D01*
X120319196Y-99984332D01*
X120259769Y-99999500D01*
X119760231Y-99999500D01*
X119693192Y-99979815D01*
X119647437Y-99927011D01*
X119637493Y-99857853D01*
X119660964Y-99801189D01*
X119664434Y-99796552D01*
X119693796Y-99757331D01*
X119744091Y-99622483D01*
X119750500Y-99562873D01*
X119750499Y-97562128D01*
X119744091Y-97502517D01*
X119723278Y-97446715D01*
X119693797Y-97367671D01*
X119693793Y-97367664D01*
X119607547Y-97252455D01*
X119607544Y-97252452D01*
X119492335Y-97166206D01*
X119492328Y-97166202D01*
X119357482Y-97115908D01*
X119357483Y-97115908D01*
X119297883Y-97109501D01*
X119297881Y-97109500D01*
X119297873Y-97109500D01*
X119297864Y-97109500D01*
X118182129Y-97109500D01*
X118182123Y-97109501D01*
X118122516Y-97115908D01*
X117987671Y-97166202D01*
X117987664Y-97166206D01*
X117872455Y-97252452D01*
X117872452Y-97252455D01*
X117786206Y-97367664D01*
X117786202Y-97367671D01*
X117735908Y-97502517D01*
X117729501Y-97562116D01*
X117729501Y-97562123D01*
X117729500Y-97562135D01*
X117729500Y-99562870D01*
X117729501Y-99562876D01*
X117735908Y-99622483D01*
X117786202Y-99757328D01*
X117786204Y-99757331D01*
X117819036Y-99801189D01*
X117843453Y-99866653D01*
X117828601Y-99934926D01*
X117779196Y-99984332D01*
X117719769Y-99999500D01*
X102051569Y-99999500D01*
X101984530Y-99979815D01*
X101963888Y-99963181D01*
X100036819Y-98036111D01*
X100003334Y-97974788D01*
X100000500Y-97948430D01*
X100000500Y-94910291D01*
X101745792Y-94910291D01*
X101755675Y-95268822D01*
X101755675Y-95268827D01*
X101755676Y-95268832D01*
X101804941Y-95624103D01*
X101804942Y-95624107D01*
X101892989Y-95971799D01*
X101892989Y-95971801D01*
X102018751Y-96307695D01*
X102018752Y-96307698D01*
X102169841Y-96606256D01*
X102180704Y-96627721D01*
X102376878Y-96927988D01*
X102531642Y-97115908D01*
X102604894Y-97204853D01*
X102604899Y-97204858D01*
X102861985Y-97454955D01*
X102861990Y-97454959D01*
X103145011Y-97675243D01*
X103145014Y-97675245D01*
X103145022Y-97675251D01*
X103450580Y-97863077D01*
X103774946Y-98016149D01*
X103774948Y-98016149D01*
X103774953Y-98016152D01*
X103774952Y-98016152D01*
X104114168Y-98132604D01*
X104114183Y-98132609D01*
X104464172Y-98211043D01*
X104820665Y-98250500D01*
X105089598Y-98250500D01*
X105127731Y-98248396D01*
X105358125Y-98235685D01*
X105711904Y-98176650D01*
X106057041Y-98079054D01*
X106389346Y-97944083D01*
X106704787Y-97773375D01*
X106999534Y-97569002D01*
X107270010Y-97333445D01*
X107512931Y-97069562D01*
X107725348Y-96780559D01*
X107904683Y-96469941D01*
X108048759Y-96141481D01*
X108155827Y-95799164D01*
X108224588Y-95447147D01*
X108254207Y-95089702D01*
X108244324Y-94731168D01*
X108195059Y-94375897D01*
X108107011Y-94028202D01*
X108043480Y-93858519D01*
X107981248Y-93692304D01*
X107981247Y-93692301D01*
X107899142Y-93530058D01*
X107819296Y-93372279D01*
X107623122Y-93072012D01*
X107395107Y-92795148D01*
X107262920Y-92666555D01*
X107138014Y-92545044D01*
X107138009Y-92545040D01*
X106854988Y-92324756D01*
X106854985Y-92324754D01*
X106854982Y-92324752D01*
X106854978Y-92324749D01*
X106549420Y-92136923D01*
X106549419Y-92136922D01*
X106549415Y-92136920D01*
X106225046Y-91983847D01*
X106225047Y-91983847D01*
X105885831Y-91867395D01*
X105885820Y-91867392D01*
X105885817Y-91867391D01*
X105535828Y-91788957D01*
X105535824Y-91788956D01*
X105179335Y-91749500D01*
X104910405Y-91749500D01*
X104910402Y-91749500D01*
X104641874Y-91764315D01*
X104288094Y-91823350D01*
X104288090Y-91823351D01*
X103942960Y-91920945D01*
X103942957Y-91920946D01*
X103610661Y-92055913D01*
X103610648Y-92055919D01*
X103295220Y-92226620D01*
X103295219Y-92226621D01*
X103000460Y-92431002D01*
X102729996Y-92666548D01*
X102729992Y-92666551D01*
X102487067Y-92930440D01*
X102274652Y-93219441D01*
X102274651Y-93219442D01*
X102095317Y-93530058D01*
X101951240Y-93858520D01*
X101951239Y-93858521D01*
X101844173Y-94200832D01*
X101775412Y-94552849D01*
X101775410Y-94552863D01*
X101745793Y-94910287D01*
X101745792Y-94910291D01*
X100000500Y-94910291D01*
X100000500Y-85987492D01*
X100002346Y-83516933D01*
X100003937Y-81388075D01*
X100440310Y-81388075D01*
X100444864Y-81440114D01*
X100445100Y-81445520D01*
X100445100Y-81453759D01*
X100448906Y-81486324D01*
X100455600Y-81562841D01*
X100457061Y-81569917D01*
X100457003Y-81569928D01*
X100458634Y-81577287D01*
X100458692Y-81577274D01*
X100460357Y-81584300D01*
X100486625Y-81656474D01*
X100510785Y-81729381D01*
X100513836Y-81735924D01*
X100513782Y-81735948D01*
X100517070Y-81742738D01*
X100517121Y-81742713D01*
X100520361Y-81749163D01*
X100520362Y-81749164D01*
X100520363Y-81749167D01*
X100562565Y-81813333D01*
X100602887Y-81878705D01*
X100607366Y-81884369D01*
X100607319Y-81884406D01*
X100612082Y-81890252D01*
X100612128Y-81890214D01*
X100616773Y-81895750D01*
X100672620Y-81948438D01*
X101069867Y-82345684D01*
X101081649Y-82359317D01*
X101095989Y-82378579D01*
X101136006Y-82412158D01*
X101139992Y-82415810D01*
X101145820Y-82421637D01*
X101145827Y-82421644D01*
X101163510Y-82435625D01*
X101171544Y-82441977D01*
X101176777Y-82446368D01*
X101215485Y-82504533D01*
X101216601Y-82574394D01*
X101205915Y-82600789D01*
X101201803Y-82608318D01*
X101151510Y-82743163D01*
X101151509Y-82743167D01*
X101145100Y-82802777D01*
X101145100Y-82802784D01*
X101145100Y-82802785D01*
X101145100Y-83457320D01*
X101145101Y-83457326D01*
X101151508Y-83516933D01*
X101201802Y-83651778D01*
X101201806Y-83651785D01*
X101288052Y-83766994D01*
X101288055Y-83766997D01*
X101403264Y-83853243D01*
X101403271Y-83853247D01*
X101538117Y-83903541D01*
X101538116Y-83903541D01*
X101545044Y-83904285D01*
X101597727Y-83909950D01*
X103192072Y-83909949D01*
X103251683Y-83903541D01*
X103386531Y-83853246D01*
X103501746Y-83766996D01*
X103587996Y-83651781D01*
X103638291Y-83516933D01*
X103644700Y-83457323D01*
X103644699Y-82802778D01*
X103638291Y-82743167D01*
X103587996Y-82608319D01*
X103558829Y-82569357D01*
X103534413Y-82503898D01*
X103549264Y-82435625D01*
X103558821Y-82420752D01*
X103587996Y-82381781D01*
X103638291Y-82246933D01*
X103644700Y-82187323D01*
X103644699Y-81532778D01*
X103638291Y-81473167D01*
X103638289Y-81473162D01*
X103587997Y-81338321D01*
X103587993Y-81338314D01*
X103501747Y-81223105D01*
X103501744Y-81223102D01*
X103386535Y-81136856D01*
X103386528Y-81136852D01*
X103251682Y-81086558D01*
X103251683Y-81086558D01*
X103192083Y-81080151D01*
X103192081Y-81080150D01*
X103192073Y-81080150D01*
X103192065Y-81080150D01*
X102070100Y-81080150D01*
X102003061Y-81060465D01*
X101957306Y-81007661D01*
X101946100Y-80956150D01*
X101946100Y-77761580D01*
X101965785Y-77694541D01*
X101982419Y-77673899D01*
X105044549Y-74611769D01*
X105105872Y-74578284D01*
X105132230Y-74575450D01*
X106279371Y-74575450D01*
X106346410Y-74595135D01*
X106392165Y-74647939D01*
X106403371Y-74699623D01*
X106394671Y-80945814D01*
X106405856Y-81052263D01*
X106405858Y-81052274D01*
X106416781Y-81103329D01*
X106450127Y-81205028D01*
X106450128Y-81205031D01*
X106450129Y-81205032D01*
X106527249Y-81326497D01*
X106541800Y-81343478D01*
X106570474Y-81407192D01*
X106563826Y-81467489D01*
X106561710Y-81473162D01*
X106561709Y-81473165D01*
X106561709Y-81473167D01*
X106555300Y-81532777D01*
X106555300Y-81532784D01*
X106555300Y-81532785D01*
X106555300Y-82187320D01*
X106555301Y-82187326D01*
X106561708Y-82246933D01*
X106612002Y-82381778D01*
X106612003Y-82381780D01*
X106641168Y-82420740D01*
X106665584Y-82486205D01*
X106650732Y-82554478D01*
X106641168Y-82569360D01*
X106612003Y-82608319D01*
X106612002Y-82608321D01*
X106561710Y-82743163D01*
X106561709Y-82743167D01*
X106555300Y-82802777D01*
X106555300Y-82802784D01*
X106555300Y-82802785D01*
X106555300Y-83457320D01*
X106555301Y-83457326D01*
X106561708Y-83516933D01*
X106612002Y-83651778D01*
X106612006Y-83651785D01*
X106698252Y-83766994D01*
X106698255Y-83766997D01*
X106813464Y-83853243D01*
X106813471Y-83853247D01*
X106948317Y-83903541D01*
X106948316Y-83903541D01*
X106955244Y-83904285D01*
X107007927Y-83909950D01*
X108602272Y-83909949D01*
X108661883Y-83903541D01*
X108796731Y-83853246D01*
X108911946Y-83766996D01*
X108911947Y-83766994D01*
X108911949Y-83766993D01*
X108912074Y-83766869D01*
X108912228Y-83766784D01*
X108919046Y-83761681D01*
X108919779Y-83762661D01*
X108973397Y-83733384D01*
X108999755Y-83730550D01*
X112897415Y-83730550D01*
X112964454Y-83750235D01*
X112985096Y-83766869D01*
X117693181Y-88474954D01*
X117726666Y-88536277D01*
X117729500Y-88562635D01*
X117729500Y-89737870D01*
X117729501Y-89737876D01*
X117735908Y-89797483D01*
X117786202Y-89932328D01*
X117786206Y-89932335D01*
X117872452Y-90047544D01*
X117872455Y-90047547D01*
X117987664Y-90133793D01*
X117987671Y-90133797D01*
X118122517Y-90184091D01*
X118122516Y-90184091D01*
X118129444Y-90184835D01*
X118182127Y-90190500D01*
X119297872Y-90190499D01*
X119357483Y-90184091D01*
X119492331Y-90133796D01*
X119578599Y-90069215D01*
X119644063Y-90044798D01*
X119688445Y-90049683D01*
X119729000Y-90061815D01*
X119871309Y-90083013D01*
X120422920Y-90085807D01*
X120489857Y-90105830D01*
X120496598Y-90110536D01*
X120527666Y-90133794D01*
X120527668Y-90133795D01*
X120527671Y-90133797D01*
X120662517Y-90184091D01*
X120662516Y-90184091D01*
X120669444Y-90184835D01*
X120722127Y-90190500D01*
X121837872Y-90190499D01*
X121897483Y-90184091D01*
X122032331Y-90133796D01*
X122051861Y-90119174D01*
X122117319Y-90094756D01*
X122126777Y-90094441D01*
X122682310Y-90097258D01*
X122791073Y-90085982D01*
X122843212Y-90074778D01*
X122947004Y-90040379D01*
X123068043Y-89962591D01*
X123120847Y-89916836D01*
X123215067Y-89808102D01*
X123274838Y-89677225D01*
X123294523Y-89610186D01*
X123294524Y-89610182D01*
X123315000Y-89467766D01*
X123315000Y-88439500D01*
X123303447Y-88332044D01*
X123292241Y-88280533D01*
X123270618Y-88215566D01*
X123258114Y-88177997D01*
X123258113Y-88177995D01*
X123229211Y-88133024D01*
X123209525Y-88065985D01*
X123226884Y-88002709D01*
X123253854Y-87957253D01*
X123253858Y-87957247D01*
X123280594Y-87892699D01*
X123282985Y-87883332D01*
X123318639Y-87823244D01*
X123381119Y-87791970D01*
X123403133Y-87790000D01*
X124233037Y-87790000D01*
X124300076Y-87809685D01*
X124345831Y-87862489D01*
X124349601Y-87871705D01*
X124377103Y-87947499D01*
X124377107Y-87947508D01*
X124454884Y-88068531D01*
X124454897Y-88068548D01*
X124500641Y-88121340D01*
X124500644Y-88121343D01*
X124500648Y-88121347D01*
X124609382Y-88215567D01*
X124740259Y-88275338D01*
X124785075Y-88288497D01*
X124807293Y-88295022D01*
X124807298Y-88295023D01*
X124807302Y-88295024D01*
X124949718Y-88315500D01*
X125690500Y-88315500D01*
X125757539Y-88335185D01*
X125803294Y-88387989D01*
X125814500Y-88439500D01*
X125814500Y-98495314D01*
X125826349Y-98604122D01*
X125837840Y-98656255D01*
X125872837Y-98759971D01*
X125872839Y-98759976D01*
X125951282Y-98880569D01*
X125951289Y-98880579D01*
X125951294Y-98880584D01*
X125951295Y-98880586D01*
X125997327Y-98933123D01*
X125997330Y-98933125D01*
X125997334Y-98933130D01*
X126106589Y-99026751D01*
X126106590Y-99026751D01*
X126106592Y-99026753D01*
X126106591Y-99026753D01*
X126237778Y-99085792D01*
X126237794Y-99085799D01*
X126304941Y-99105114D01*
X126304942Y-99105114D01*
X126305039Y-99105127D01*
X126308999Y-99105686D01*
X126309166Y-99105697D01*
X126447468Y-99124805D01*
X126447471Y-99124804D01*
X126447472Y-99124805D01*
X126447473Y-99124805D01*
X135315856Y-99075943D01*
X137089534Y-99066171D01*
X137195427Y-99054358D01*
X137246195Y-99043182D01*
X137347267Y-99009433D01*
X137468348Y-98931709D01*
X137521176Y-98885982D01*
X137615449Y-98777302D01*
X137675291Y-98646457D01*
X137687747Y-98604122D01*
X137695011Y-98579435D01*
X137695012Y-98579427D01*
X137695013Y-98579424D01*
X137715566Y-98437019D01*
X137715984Y-97657657D01*
X137715982Y-97656063D01*
X137695133Y-97513702D01*
X137675273Y-97446714D01*
X137615166Y-97316000D01*
X137526698Y-97214436D01*
X137497509Y-97150958D01*
X137507273Y-97081774D01*
X137520286Y-97059555D01*
X137725348Y-96780559D01*
X137904683Y-96469941D01*
X138048759Y-96141481D01*
X138155827Y-95799164D01*
X138224588Y-95447147D01*
X138254207Y-95089702D01*
X138244324Y-94731168D01*
X138195059Y-94375897D01*
X138107011Y-94028202D01*
X138043480Y-93858519D01*
X137981248Y-93692304D01*
X137981247Y-93692301D01*
X137899142Y-93530058D01*
X137819296Y-93372279D01*
X137623122Y-93072012D01*
X137623118Y-93072007D01*
X137623116Y-93072004D01*
X137526496Y-92954684D01*
X137499073Y-92890421D01*
X137510746Y-92821534D01*
X137528545Y-92794602D01*
X137618722Y-92690646D01*
X137678563Y-92559800D01*
X137698284Y-92492771D01*
X137698285Y-92492769D01*
X137718838Y-92350364D01*
X137732121Y-67643615D01*
X137732119Y-67642064D01*
X137711283Y-67499700D01*
X137711282Y-67499699D01*
X137711281Y-67499691D01*
X137691430Y-67432713D01*
X137631333Y-67301992D01*
X137631331Y-67301990D01*
X137539681Y-67196757D01*
X137510497Y-67133275D01*
X137520266Y-67064092D01*
X137533271Y-67041887D01*
X137725348Y-66780559D01*
X137904683Y-66469941D01*
X138048759Y-66141481D01*
X138155827Y-65799164D01*
X138224588Y-65447147D01*
X138254207Y-65089702D01*
X138244324Y-64731168D01*
X138195059Y-64375897D01*
X138107011Y-64028202D01*
X138043480Y-63858519D01*
X137981248Y-63692304D01*
X137981247Y-63692301D01*
X137899142Y-63530058D01*
X137819296Y-63372279D01*
X137623122Y-63072012D01*
X137539647Y-62970654D01*
X137512226Y-62906394D01*
X137523898Y-62837506D01*
X137541698Y-62810574D01*
X137555085Y-62795141D01*
X137634844Y-62703195D01*
X137694685Y-62572349D01*
X137714406Y-62505320D01*
X137714407Y-62505318D01*
X137734960Y-62362913D01*
X137735433Y-61484763D01*
X137723726Y-61376332D01*
X137712344Y-61324368D01*
X137677649Y-61220964D01*
X137599448Y-61100191D01*
X137599444Y-61100186D01*
X137565305Y-61061058D01*
X137560401Y-61053471D01*
X137553513Y-61047543D01*
X137444454Y-60953694D01*
X137313372Y-60894372D01*
X137313369Y-60894371D01*
X137246268Y-60874917D01*
X137246261Y-60874916D01*
X137103788Y-60854928D01*
X137103783Y-60854928D01*
X128585316Y-60884034D01*
X120066845Y-60913141D01*
X120066846Y-60913141D01*
X119990686Y-60919175D01*
X119962719Y-60923536D01*
X119953769Y-60924932D01*
X119953770Y-60924932D01*
X119953764Y-60924933D01*
X119926502Y-60931326D01*
X119879378Y-60942377D01*
X119749237Y-61005048D01*
X119680295Y-61016399D01*
X119643925Y-61006121D01*
X119583210Y-60978393D01*
X119531251Y-60954663D01*
X119527954Y-60953695D01*
X119517656Y-60950671D01*
X119464214Y-60934978D01*
X119464208Y-60934976D01*
X119378755Y-60922690D01*
X119321789Y-60914500D01*
X113017796Y-60914500D01*
X113017787Y-60914500D01*
X112991134Y-60915909D01*
X112991133Y-60915909D01*
X112991124Y-60915909D01*
X112991123Y-60915910D01*
X112982397Y-60916835D01*
X112951833Y-60920077D01*
X112951834Y-60920077D01*
X112899138Y-60928497D01*
X112899131Y-60928499D01*
X112764183Y-60978386D01*
X112764167Y-60978393D01*
X112702755Y-61011696D01*
X112587320Y-61097586D01*
X108464492Y-65196536D01*
X108403072Y-65229842D01*
X108333395Y-65224655D01*
X108277583Y-65182622D01*
X108253357Y-65117087D01*
X108253490Y-65098357D01*
X108254207Y-65089702D01*
X108249262Y-64910298D01*
X108244324Y-64731168D01*
X108195059Y-64375897D01*
X108107011Y-64028202D01*
X108043480Y-63858519D01*
X107981248Y-63692304D01*
X107981247Y-63692301D01*
X107899142Y-63530058D01*
X107819296Y-63372279D01*
X107623122Y-63072012D01*
X107395107Y-62795148D01*
X107300584Y-62703195D01*
X107138014Y-62545044D01*
X107138009Y-62545040D01*
X106854988Y-62324756D01*
X106854985Y-62324754D01*
X106854982Y-62324752D01*
X106854978Y-62324749D01*
X106549420Y-62136923D01*
X106549419Y-62136922D01*
X106549415Y-62136920D01*
X106225046Y-61983847D01*
X106225047Y-61983847D01*
X105885831Y-61867395D01*
X105885820Y-61867392D01*
X105885817Y-61867391D01*
X105535828Y-61788957D01*
X105535824Y-61788956D01*
X105179335Y-61749500D01*
X104910405Y-61749500D01*
X104910402Y-61749500D01*
X104641874Y-61764315D01*
X104288094Y-61823350D01*
X104288090Y-61823351D01*
X103942960Y-61920945D01*
X103942957Y-61920946D01*
X103610661Y-62055913D01*
X103610648Y-62055919D01*
X103295220Y-62226620D01*
X103295219Y-62226621D01*
X103000460Y-62431002D01*
X102729996Y-62666548D01*
X102729992Y-62666551D01*
X102487067Y-62930440D01*
X102274652Y-63219441D01*
X102274651Y-63219442D01*
X102095317Y-63530058D01*
X101951240Y-63858520D01*
X101951239Y-63858521D01*
X101844173Y-64200832D01*
X101775412Y-64552849D01*
X101775410Y-64552863D01*
X101745793Y-64910287D01*
X101745792Y-64910291D01*
X101755675Y-65268822D01*
X101755675Y-65268827D01*
X101755676Y-65268832D01*
X101804941Y-65624103D01*
X101804942Y-65624107D01*
X101892989Y-65971799D01*
X101892989Y-65971801D01*
X102018751Y-66307695D01*
X102018752Y-66307698D01*
X102169841Y-66606256D01*
X102180704Y-66627721D01*
X102376878Y-66927988D01*
X102598227Y-67196758D01*
X102604894Y-67204853D01*
X102604899Y-67204858D01*
X102861985Y-67454955D01*
X102861990Y-67454959D01*
X103145011Y-67675243D01*
X103145014Y-67675245D01*
X103145022Y-67675251D01*
X103450580Y-67863077D01*
X103774946Y-68016149D01*
X103774948Y-68016149D01*
X103774953Y-68016152D01*
X103774952Y-68016152D01*
X104114168Y-68132604D01*
X104114183Y-68132609D01*
X104464172Y-68211043D01*
X104820665Y-68250500D01*
X105089598Y-68250500D01*
X105127731Y-68248396D01*
X105358125Y-68235685D01*
X105711904Y-68176650D01*
X106057041Y-68079054D01*
X106389346Y-67944083D01*
X106704787Y-67773375D01*
X106999534Y-67569002D01*
X107071564Y-67506270D01*
X107135045Y-67477088D01*
X107204228Y-67486858D01*
X107257147Y-67532480D01*
X107277000Y-67599470D01*
X107277000Y-70554565D01*
X107292391Y-70740317D01*
X107339243Y-70925333D01*
X107343029Y-70954400D01*
X107363051Y-72762129D01*
X107363052Y-72762132D01*
X107380278Y-72887485D01*
X107380279Y-72887492D01*
X107388550Y-72918324D01*
X107386906Y-72988175D01*
X107347759Y-73046048D01*
X107283538Y-73073569D01*
X107268784Y-73074450D01*
X104833705Y-73074450D01*
X104815735Y-73073141D01*
X104791972Y-73069660D01*
X104747306Y-73073569D01*
X104739931Y-73074214D01*
X104734530Y-73074450D01*
X104726289Y-73074450D01*
X104704579Y-73076987D01*
X104693724Y-73078256D01*
X104678419Y-73079595D01*
X104617199Y-73084951D01*
X104610132Y-73086410D01*
X104610120Y-73086354D01*
X104602763Y-73087985D01*
X104602777Y-73088042D01*
X104595743Y-73089709D01*
X104523575Y-73115975D01*
X104450675Y-73140131D01*
X104444126Y-73143186D01*
X104444101Y-73143133D01*
X104437308Y-73146421D01*
X104437334Y-73146473D01*
X104430880Y-73149714D01*
X104366708Y-73191921D01*
X104301347Y-73232235D01*
X104295683Y-73236715D01*
X104295647Y-73236669D01*
X104289798Y-73241434D01*
X104289835Y-73241478D01*
X104284310Y-73246114D01*
X104231597Y-73301985D01*
X100709958Y-76823622D01*
X100696329Y-76835401D01*
X100677068Y-76849740D01*
X100643498Y-76889747D01*
X100639853Y-76893726D01*
X100634009Y-76899572D01*
X100613659Y-76925309D01*
X100564295Y-76984139D01*
X100560329Y-76990169D01*
X100560282Y-76990138D01*
X100556230Y-76996497D01*
X100556279Y-76996527D01*
X100552489Y-77002671D01*
X100520024Y-77072291D01*
X100485560Y-77140916D01*
X100483088Y-77147707D01*
X100483032Y-77147686D01*
X100480560Y-77154800D01*
X100480615Y-77154819D01*
X100478342Y-77161677D01*
X100470575Y-77199296D01*
X100462807Y-77236915D01*
X100449601Y-77292634D01*
X100445098Y-77311636D01*
X100444261Y-77318804D01*
X100444201Y-77318797D01*
X100443435Y-77326295D01*
X100443495Y-77326301D01*
X100442865Y-77333490D01*
X100445100Y-77410266D01*
X100445100Y-81346344D01*
X100443791Y-81364313D01*
X100440310Y-81388075D01*
X100003937Y-81388075D01*
X100018398Y-62033573D01*
X100038132Y-61966553D01*
X100054707Y-61945999D01*
X101963888Y-60036819D01*
X102025211Y-60003334D01*
X102051569Y-60000500D01*
X137948430Y-60000500D01*
X138015469Y-60020185D01*
G37*
G04 #@! TD.AperFunction*
G04 #@! TA.AperFunction,Conductor*
G36*
X118878884Y-76957183D02*
G01*
X118945447Y-76978420D01*
X118989962Y-77032274D01*
X119000000Y-77081149D01*
X119000000Y-77968574D01*
X118980315Y-78035613D01*
X118975267Y-78042885D01*
X118908504Y-78132068D01*
X118908502Y-78132071D01*
X118858208Y-78266917D01*
X118851801Y-78326516D01*
X118851800Y-78326535D01*
X118851800Y-81617499D01*
X118832115Y-81684538D01*
X118779311Y-81730293D01*
X118723957Y-81741439D01*
X117830157Y-81713725D01*
X117763760Y-81691973D01*
X117719663Y-81637776D01*
X117710000Y-81589785D01*
X117710000Y-77056916D01*
X117729685Y-76989877D01*
X117782489Y-76944122D01*
X117836879Y-76932950D01*
X118878884Y-76957183D01*
G37*
G04 #@! TD.AperFunction*
G04 #@! TA.AperFunction,Conductor*
G36*
X117335398Y-66663938D02*
G01*
X117381418Y-66716511D01*
X117391710Y-66785618D01*
X117380286Y-66823050D01*
X117297355Y-66992689D01*
X117226401Y-67231018D01*
X117195643Y-67477779D01*
X117205919Y-67726236D01*
X117206861Y-67730729D01*
X117209500Y-67756175D01*
X117209500Y-72843508D01*
X117189815Y-72910547D01*
X117137011Y-72956302D01*
X117084443Y-72967503D01*
X112799022Y-72930965D01*
X112732153Y-72910710D01*
X112694540Y-72872066D01*
X112676925Y-72843508D01*
X112607712Y-72731294D01*
X112483656Y-72607238D01*
X112349383Y-72524418D01*
X112334336Y-72515137D01*
X112334331Y-72515135D01*
X112332862Y-72514648D01*
X112167797Y-72459951D01*
X112167795Y-72459950D01*
X112065010Y-72449450D01*
X111339998Y-72449450D01*
X111339980Y-72449451D01*
X111237203Y-72459950D01*
X111237200Y-72459951D01*
X111070668Y-72515135D01*
X111070659Y-72515140D01*
X110964620Y-72580544D01*
X110897227Y-72598984D01*
X110830564Y-72578061D01*
X110785795Y-72524418D01*
X110777134Y-72455087D01*
X110807329Y-72392083D01*
X114220000Y-68610000D01*
X114210635Y-66784005D01*
X114229975Y-66716869D01*
X114282544Y-66670844D01*
X114334006Y-66659375D01*
X117268263Y-66644593D01*
X117335398Y-66663938D01*
G37*
G04 #@! TD.AperFunction*
G04 #@! TA.AperFunction,Conductor*
G36*
X112042379Y-72955268D02*
G01*
X112047803Y-72955822D01*
X112074234Y-72961476D01*
X112105491Y-72971834D01*
X112131575Y-72983998D01*
X112155661Y-72998854D01*
X112178243Y-73016709D01*
X112198239Y-73036705D01*
X112216097Y-73059290D01*
X112264296Y-73137435D01*
X112264299Y-73137438D01*
X112332298Y-73224644D01*
X112353201Y-73246120D01*
X112369914Y-73263291D01*
X112392418Y-73281838D01*
X112455245Y-73333619D01*
X112585609Y-73394503D01*
X112652478Y-73414758D01*
X112794712Y-73436447D01*
X113320497Y-73440929D01*
X117083520Y-73473014D01*
X117083512Y-73473918D01*
X117147629Y-73489556D01*
X117195784Y-73540181D01*
X117209500Y-73596868D01*
X117209500Y-76872981D01*
X117209024Y-76880656D01*
X117205643Y-76907779D01*
X117209500Y-77001035D01*
X117209500Y-77013270D01*
X117208238Y-77030915D01*
X117204500Y-77056912D01*
X117204500Y-77056916D01*
X117204500Y-81589785D01*
X117214446Y-81689565D01*
X117214446Y-81689569D01*
X117214447Y-81689570D01*
X117224106Y-81737545D01*
X117224113Y-81737570D01*
X117253556Y-81833415D01*
X117253556Y-81833416D01*
X117327558Y-81956812D01*
X117369789Y-82008715D01*
X117370382Y-82009518D01*
X117371655Y-82011009D01*
X117371656Y-82011010D01*
X117477422Y-82108555D01*
X117606386Y-82172352D01*
X117672783Y-82194104D01*
X117757476Y-82208972D01*
X117820101Y-82239952D01*
X117856036Y-82299872D01*
X117859719Y-82339943D01*
X117858990Y-82350150D01*
X117858707Y-82354101D01*
X117868971Y-82497612D01*
X117919253Y-82632421D01*
X117952738Y-82693744D01*
X118038962Y-82808925D01*
X118038966Y-82808929D01*
X118038971Y-82808935D01*
X119828080Y-84598044D01*
X121588020Y-86357984D01*
X121599690Y-86368938D01*
X121617598Y-86384710D01*
X121617608Y-86384718D01*
X121619236Y-86386152D01*
X121625312Y-86392306D01*
X121635508Y-86404185D01*
X121651754Y-86421718D01*
X121651755Y-86421719D01*
X121662890Y-86432854D01*
X121668556Y-86439371D01*
X121669850Y-86441087D01*
X121684222Y-86460150D01*
X121684238Y-86460170D01*
X121685541Y-86461898D01*
X121690248Y-86469141D01*
X121697840Y-86482817D01*
X121710231Y-86503278D01*
X121718895Y-86516424D01*
X121723139Y-86523960D01*
X121735233Y-86549433D01*
X121738384Y-86557469D01*
X121743077Y-86572425D01*
X121751103Y-86594969D01*
X121756924Y-86609546D01*
X121759563Y-86617772D01*
X121766285Y-86645159D01*
X121767756Y-86653674D01*
X121769350Y-86669343D01*
X121772673Y-86693009D01*
X121773892Y-86699816D01*
X121775796Y-86724824D01*
X121775000Y-86756274D01*
X121775000Y-87662535D01*
X121776701Y-87691823D01*
X121776701Y-87691824D01*
X121783341Y-87748807D01*
X121783827Y-87753317D01*
X121783827Y-87753321D01*
X121787447Y-87772408D01*
X121788420Y-87777954D01*
X121788422Y-87777964D01*
X121788836Y-87779725D01*
X121798943Y-87833003D01*
X121798945Y-87833011D01*
X121809439Y-87871260D01*
X121837104Y-87947501D01*
X121837107Y-87947508D01*
X121914884Y-88068531D01*
X121914897Y-88068548D01*
X121960641Y-88121340D01*
X121960644Y-88121343D01*
X121960648Y-88121347D01*
X122069382Y-88215567D01*
X122200259Y-88275338D01*
X122245075Y-88288497D01*
X122267293Y-88295022D01*
X122267298Y-88295023D01*
X122267302Y-88295024D01*
X122409718Y-88315500D01*
X122409721Y-88315500D01*
X122685500Y-88315500D01*
X122752539Y-88335185D01*
X122798294Y-88387989D01*
X122809500Y-88439500D01*
X122809500Y-89467766D01*
X122789815Y-89534805D01*
X122737011Y-89580560D01*
X122684872Y-89591764D01*
X119873871Y-89577519D01*
X119806932Y-89557495D01*
X119761445Y-89504460D01*
X119750499Y-89453524D01*
X119750499Y-87737128D01*
X119744091Y-87677517D01*
X119693796Y-87542669D01*
X119693795Y-87542668D01*
X119693793Y-87542664D01*
X119607547Y-87427455D01*
X119607544Y-87427452D01*
X119492335Y-87341206D01*
X119492328Y-87341202D01*
X119357482Y-87290908D01*
X119357483Y-87290908D01*
X119297883Y-87284501D01*
X119297881Y-87284500D01*
X119297873Y-87284500D01*
X119297865Y-87284500D01*
X118252559Y-87284500D01*
X118185520Y-87264815D01*
X118164878Y-87248181D01*
X116431360Y-85514663D01*
X113652832Y-82736135D01*
X113647492Y-82730045D01*
X113625794Y-82701768D01*
X113500353Y-82605514D01*
X113354274Y-82545006D01*
X113354272Y-82545005D01*
X113236873Y-82529550D01*
X113197512Y-82524368D01*
X113162182Y-82529019D01*
X113154084Y-82529550D01*
X108999755Y-82529550D01*
X108932716Y-82509865D01*
X108912074Y-82493231D01*
X108911949Y-82493106D01*
X108883468Y-82471785D01*
X108796731Y-82406854D01*
X108796729Y-82406853D01*
X108796728Y-82406852D01*
X108661882Y-82356558D01*
X108661883Y-82356558D01*
X108602283Y-82350151D01*
X108602281Y-82350150D01*
X108602273Y-82350150D01*
X108602265Y-82350150D01*
X108501449Y-82350150D01*
X108434410Y-82330465D01*
X108388655Y-82277661D01*
X108377450Y-82226536D01*
X108375847Y-81708680D01*
X108395324Y-81641582D01*
X108447986Y-81595664D01*
X108500527Y-81584300D01*
X108578721Y-81584730D01*
X108592529Y-81584806D01*
X108592530Y-81584805D01*
X108592542Y-81584806D01*
X108701417Y-81573554D01*
X108753609Y-81562350D01*
X108857504Y-81527929D01*
X108978543Y-81450141D01*
X109031347Y-81404386D01*
X109125567Y-81295652D01*
X109185338Y-81164775D01*
X109199620Y-81116134D01*
X109205022Y-81097741D01*
X109205023Y-81097735D01*
X109205024Y-81097732D01*
X109225500Y-80955316D01*
X109225500Y-79591132D01*
X109245185Y-79524093D01*
X109259551Y-79505779D01*
X111583290Y-77056916D01*
X111605316Y-77033704D01*
X111605325Y-77033694D01*
X111605324Y-77033696D01*
X111620856Y-77015703D01*
X111620858Y-77015701D01*
X111642535Y-76988065D01*
X111642536Y-76988064D01*
X111642535Y-76988064D01*
X111642547Y-76988050D01*
X111670067Y-76949355D01*
X111729838Y-76818478D01*
X111729838Y-76818475D01*
X111731678Y-76814448D01*
X111732144Y-76814661D01*
X111739111Y-76800386D01*
X111819909Y-76669392D01*
X111819908Y-76669392D01*
X111819914Y-76669384D01*
X111875099Y-76502847D01*
X111885600Y-76400059D01*
X111885599Y-75400042D01*
X111875099Y-75297253D01*
X111819914Y-75130716D01*
X111727812Y-74981394D01*
X111672286Y-74925868D01*
X111638801Y-74864545D01*
X111635971Y-74839204D01*
X111621630Y-73079960D01*
X111640768Y-73012763D01*
X111693197Y-72966579D01*
X111745626Y-72954950D01*
X112036092Y-72954950D01*
X112042379Y-72955268D01*
G37*
G04 #@! TD.AperFunction*
G04 #@! TA.AperFunction,Conductor*
G36*
X110281218Y-73909685D02*
G01*
X110326973Y-73962489D01*
X110330231Y-73970320D01*
X111256552Y-76431427D01*
X111264500Y-76475107D01*
X111264500Y-76609019D01*
X111244815Y-76676058D01*
X111230449Y-76694372D01*
X108720000Y-79339999D01*
X108720000Y-80955316D01*
X108700315Y-81022355D01*
X108647511Y-81068110D01*
X108595319Y-81079314D01*
X107023490Y-81070678D01*
X106956559Y-81050626D01*
X106911095Y-80997571D01*
X106900171Y-80946511D01*
X106908175Y-75200448D01*
X106908873Y-74699277D01*
X106928651Y-74632265D01*
X106981519Y-74586584D01*
X107032873Y-74575450D01*
X107626415Y-74575450D01*
X107693454Y-74595135D01*
X107739209Y-74647939D01*
X107744118Y-74660439D01*
X107780186Y-74769284D01*
X107872288Y-74918606D01*
X107996344Y-75042662D01*
X108145666Y-75134764D01*
X108312203Y-75189949D01*
X108414991Y-75200450D01*
X109140008Y-75200449D01*
X109140016Y-75200448D01*
X109140019Y-75200448D01*
X109215504Y-75192737D01*
X109242797Y-75189949D01*
X109409334Y-75134764D01*
X109558656Y-75042662D01*
X109682712Y-74918606D01*
X109774814Y-74769284D01*
X109829999Y-74602747D01*
X109840500Y-74499959D01*
X109840500Y-74014000D01*
X109860185Y-73946961D01*
X109912989Y-73901206D01*
X109964500Y-73890000D01*
X110214179Y-73890000D01*
X110281218Y-73909685D01*
G37*
G04 #@! TD.AperFunction*
G04 #@! TA.AperFunction,Conductor*
G36*
X119388828Y-61439685D02*
G01*
X119434583Y-61492489D01*
X119445763Y-61541472D01*
X119447152Y-61609614D01*
X119447152Y-61609618D01*
X119447153Y-61609621D01*
X119458504Y-61678561D01*
X119458505Y-61678568D01*
X119472970Y-61724358D01*
X119501844Y-61815756D01*
X119501847Y-61815762D01*
X119520931Y-61855390D01*
X119527332Y-61867946D01*
X119547424Y-61905286D01*
X119550371Y-61911586D01*
X119558307Y-61931366D01*
X119560531Y-61937960D01*
X119571795Y-61978770D01*
X119575851Y-61992298D01*
X119589003Y-62032776D01*
X119590779Y-62039506D01*
X119595054Y-62060391D01*
X119596065Y-62067273D01*
X119599857Y-62109403D01*
X119601431Y-62123434D01*
X119605759Y-62155383D01*
X119606756Y-62177590D01*
X119605312Y-62209754D01*
X119605000Y-62223851D01*
X119605000Y-66981400D01*
X119614142Y-67069562D01*
X119615756Y-67085123D01*
X119626199Y-67134935D01*
X119626202Y-67134947D01*
X119630745Y-67149128D01*
X119632448Y-67218977D01*
X119596118Y-67278658D01*
X119533289Y-67309224D01*
X119513288Y-67310951D01*
X117899688Y-67319184D01*
X117832549Y-67299842D01*
X117786525Y-67247272D01*
X117776229Y-67178165D01*
X117787653Y-67140730D01*
X117809162Y-67096732D01*
X117835272Y-67065214D01*
X117833275Y-67063217D01*
X117839539Y-67056951D01*
X117839547Y-67056946D01*
X117925797Y-66941731D01*
X117976092Y-66806883D01*
X117982501Y-66747273D01*
X117982500Y-63552728D01*
X117976092Y-63493117D01*
X117931022Y-63372279D01*
X117925798Y-63358271D01*
X117925794Y-63358264D01*
X117839548Y-63243055D01*
X117839545Y-63243052D01*
X117724336Y-63156806D01*
X117724329Y-63156802D01*
X117589483Y-63106508D01*
X117589484Y-63106508D01*
X117529884Y-63100101D01*
X117529882Y-63100100D01*
X117529874Y-63100100D01*
X117529865Y-63100100D01*
X114132130Y-63100100D01*
X114132124Y-63100101D01*
X114072517Y-63106508D01*
X113937672Y-63156802D01*
X113937665Y-63156806D01*
X113822456Y-63243052D01*
X113822453Y-63243055D01*
X113736207Y-63358264D01*
X113736203Y-63358271D01*
X113685909Y-63493117D01*
X113681938Y-63530059D01*
X113679502Y-63552723D01*
X113679501Y-63552735D01*
X113679501Y-66747270D01*
X113679502Y-66747276D01*
X113685909Y-66806882D01*
X113697812Y-66838794D01*
X113705628Y-66881491D01*
X113711066Y-67942012D01*
X113691726Y-68009152D01*
X113674749Y-68030329D01*
X109636632Y-72068446D01*
X109572046Y-72129842D01*
X109536999Y-72180194D01*
X109534162Y-72183956D01*
X109495402Y-72231492D01*
X109495399Y-72231497D01*
X109479492Y-72261947D01*
X109475424Y-72268661D01*
X109455802Y-72296854D01*
X109431609Y-72353230D01*
X109429588Y-72357484D01*
X109401191Y-72411851D01*
X109401190Y-72411852D01*
X109391740Y-72444875D01*
X109389107Y-72452271D01*
X109375559Y-72483843D01*
X109363213Y-72543919D01*
X109362090Y-72548495D01*
X109345213Y-72607477D01*
X109345213Y-72607478D01*
X109342603Y-72641742D01*
X109341512Y-72649522D01*
X109335988Y-72676404D01*
X109303210Y-72738108D01*
X109242277Y-72772297D01*
X109225012Y-72774998D01*
X108002999Y-72878712D01*
X107934535Y-72864767D01*
X107884479Y-72816022D01*
X107868521Y-72756531D01*
X107801259Y-66683687D01*
X107817863Y-66620317D01*
X107901875Y-66474805D01*
X107921833Y-66448871D01*
X112789276Y-61609619D01*
X112943726Y-61456064D01*
X113005146Y-61422758D01*
X113031152Y-61420000D01*
X119321789Y-61420000D01*
X119388828Y-61439685D01*
G37*
G04 #@! TD.AperFunction*
G04 #@! TA.AperFunction,Conductor*
G36*
X137172616Y-61379880D02*
G01*
X137218551Y-61432527D01*
X137229933Y-61484491D01*
X137229460Y-62362641D01*
X137209739Y-62429670D01*
X137156911Y-62475396D01*
X137087747Y-62485302D01*
X137029298Y-62460427D01*
X136854988Y-62324756D01*
X136854985Y-62324754D01*
X136854982Y-62324752D01*
X136854978Y-62324749D01*
X136549420Y-62136923D01*
X136549419Y-62136922D01*
X136549415Y-62136920D01*
X136225046Y-61983847D01*
X136225047Y-61983847D01*
X135885831Y-61867395D01*
X135885820Y-61867392D01*
X135885817Y-61867391D01*
X135535828Y-61788957D01*
X135535824Y-61788956D01*
X135179335Y-61749500D01*
X134910405Y-61749500D01*
X134910402Y-61749500D01*
X134641874Y-61764315D01*
X134288094Y-61823350D01*
X134288090Y-61823351D01*
X133942960Y-61920945D01*
X133942957Y-61920946D01*
X133610661Y-62055913D01*
X133610648Y-62055919D01*
X133295220Y-62226620D01*
X133295219Y-62226621D01*
X133295214Y-62226624D01*
X133295213Y-62226625D01*
X133153698Y-62324749D01*
X133000460Y-62431002D01*
X132729996Y-62666548D01*
X132729992Y-62666551D01*
X132487067Y-62930440D01*
X132274652Y-63219441D01*
X132274651Y-63219442D01*
X132095317Y-63530058D01*
X131951240Y-63858520D01*
X131951239Y-63858521D01*
X131844173Y-64200832D01*
X131775412Y-64552849D01*
X131775410Y-64552863D01*
X131745793Y-64910287D01*
X131745792Y-64910291D01*
X131755675Y-65268822D01*
X131755675Y-65268827D01*
X131755676Y-65268832D01*
X131780403Y-65447147D01*
X131804942Y-65624107D01*
X131892989Y-65971799D01*
X131892989Y-65971801D01*
X132018751Y-66307695D01*
X132018752Y-66307698D01*
X132169841Y-66606256D01*
X132180704Y-66627721D01*
X132376878Y-66927988D01*
X132600814Y-67199899D01*
X132604894Y-67204853D01*
X132604899Y-67204858D01*
X132861985Y-67454955D01*
X132861990Y-67454959D01*
X133145011Y-67675243D01*
X133145014Y-67675245D01*
X133145022Y-67675251D01*
X133450580Y-67863077D01*
X133774946Y-68016149D01*
X133774948Y-68016149D01*
X133774953Y-68016152D01*
X133774952Y-68016152D01*
X134114168Y-68132604D01*
X134114183Y-68132609D01*
X134464172Y-68211043D01*
X134820665Y-68250500D01*
X135089598Y-68250500D01*
X135127731Y-68248396D01*
X135358125Y-68235685D01*
X135711904Y-68176650D01*
X136057041Y-68079054D01*
X136389346Y-67944083D01*
X136704787Y-67773375D01*
X136999534Y-67569002D01*
X137021183Y-67550147D01*
X137084665Y-67520963D01*
X137153848Y-67530732D01*
X137206767Y-67576354D01*
X137226621Y-67643343D01*
X137226621Y-67643723D01*
X137213338Y-92350092D01*
X137193617Y-92417121D01*
X137140789Y-92462847D01*
X137071625Y-92472753D01*
X137013176Y-92447879D01*
X136919734Y-92375151D01*
X136854978Y-92324749D01*
X136549420Y-92136923D01*
X136549419Y-92136922D01*
X136549415Y-92136920D01*
X136225046Y-91983847D01*
X136225047Y-91983847D01*
X135885831Y-91867395D01*
X135885820Y-91867392D01*
X135885817Y-91867391D01*
X135535828Y-91788957D01*
X135535824Y-91788956D01*
X135179335Y-91749500D01*
X134910405Y-91749500D01*
X134910402Y-91749500D01*
X134641874Y-91764315D01*
X134288094Y-91823350D01*
X134288090Y-91823351D01*
X133942960Y-91920945D01*
X133942957Y-91920946D01*
X133610661Y-92055913D01*
X133610648Y-92055919D01*
X133295220Y-92226620D01*
X133295219Y-92226621D01*
X133000460Y-92431002D01*
X132729996Y-92666548D01*
X132729992Y-92666551D01*
X132487067Y-92930440D01*
X132274652Y-93219441D01*
X132274651Y-93219442D01*
X132095317Y-93530058D01*
X131951240Y-93858520D01*
X131951239Y-93858521D01*
X131844173Y-94200832D01*
X131775412Y-94552849D01*
X131775410Y-94552863D01*
X131745793Y-94910287D01*
X131745792Y-94910291D01*
X131755675Y-95268822D01*
X131755675Y-95268827D01*
X131755676Y-95268832D01*
X131780403Y-95447147D01*
X131804942Y-95624107D01*
X131892989Y-95971799D01*
X131892989Y-95971801D01*
X132018751Y-96307695D01*
X132018752Y-96307698D01*
X132169841Y-96606256D01*
X132180704Y-96627721D01*
X132376878Y-96927988D01*
X132531643Y-97115909D01*
X132604894Y-97204853D01*
X132604899Y-97204858D01*
X132861985Y-97454955D01*
X132861990Y-97454959D01*
X133145011Y-97675243D01*
X133145014Y-97675245D01*
X133145022Y-97675251D01*
X133450580Y-97863077D01*
X133774946Y-98016149D01*
X133774948Y-98016149D01*
X133774953Y-98016152D01*
X133774952Y-98016152D01*
X134114168Y-98132604D01*
X134114183Y-98132609D01*
X134464172Y-98211043D01*
X134820665Y-98250500D01*
X135089598Y-98250500D01*
X135127731Y-98248396D01*
X135358125Y-98235685D01*
X135711904Y-98176650D01*
X136057041Y-98079054D01*
X136389346Y-97944083D01*
X136704787Y-97773375D01*
X136999534Y-97569002D01*
X137005040Y-97564206D01*
X137068517Y-97535018D01*
X137137702Y-97544781D01*
X137190624Y-97590398D01*
X137210484Y-97657386D01*
X137210484Y-97657776D01*
X137210066Y-98436748D01*
X137190345Y-98503776D01*
X137137517Y-98549503D01*
X137086749Y-98560679D01*
X126444683Y-98619313D01*
X126377536Y-98599998D01*
X126331491Y-98547447D01*
X126320000Y-98495315D01*
X126320000Y-87810000D01*
X124949718Y-87810000D01*
X124882679Y-87790315D01*
X124836924Y-87737511D01*
X124826428Y-87699255D01*
X124825946Y-87694776D01*
X124824091Y-87677517D01*
X124773796Y-87542669D01*
X124773795Y-87542668D01*
X124773793Y-87542664D01*
X124687547Y-87427455D01*
X124687544Y-87427452D01*
X124572335Y-87341206D01*
X124572328Y-87341202D01*
X124437482Y-87290908D01*
X124437483Y-87290908D01*
X124377883Y-87284501D01*
X124377881Y-87284500D01*
X124377873Y-87284500D01*
X124377864Y-87284500D01*
X123262129Y-87284500D01*
X123262123Y-87284501D01*
X123202516Y-87290908D01*
X123067671Y-87341202D01*
X123067664Y-87341206D01*
X122952455Y-87427452D01*
X122952452Y-87427455D01*
X122866206Y-87542664D01*
X122866202Y-87542671D01*
X122816332Y-87676382D01*
X122815909Y-87677517D01*
X122813571Y-87699257D01*
X122786835Y-87763805D01*
X122729443Y-87803654D01*
X122690283Y-87810000D01*
X122409718Y-87810000D01*
X122342679Y-87790315D01*
X122296924Y-87737511D01*
X122286428Y-87699255D01*
X122285895Y-87694303D01*
X122284091Y-87677517D01*
X122284089Y-87677513D01*
X122283823Y-87676382D01*
X122280500Y-87647867D01*
X122280500Y-86762677D01*
X122280558Y-86760362D01*
X122282756Y-86673637D01*
X122271932Y-86613247D01*
X122271282Y-86608617D01*
X122265074Y-86547562D01*
X122254790Y-86514786D01*
X122252917Y-86507154D01*
X122246858Y-86473349D01*
X122246858Y-86473347D01*
X122224102Y-86416378D01*
X122222521Y-86411937D01*
X122204157Y-86353407D01*
X122187488Y-86323378D01*
X122184117Y-86316278D01*
X122171378Y-86284386D01*
X122171377Y-86284383D01*
X122137620Y-86233163D01*
X122135180Y-86229134D01*
X122124379Y-86209675D01*
X122105409Y-86175498D01*
X122105407Y-86175495D01*
X122083033Y-86149434D01*
X122078302Y-86143159D01*
X122059402Y-86114481D01*
X122016012Y-86071091D01*
X122012822Y-86067648D01*
X121972867Y-86021106D01*
X121972863Y-86021102D01*
X121945698Y-86000074D01*
X121939803Y-85994882D01*
X118396404Y-82451483D01*
X118362919Y-82390160D01*
X118367903Y-82320468D01*
X118409775Y-82264535D01*
X118475239Y-82240118D01*
X118487911Y-82239862D01*
X118655983Y-82245074D01*
X118708282Y-82246696D01*
X118708285Y-82246695D01*
X118708291Y-82246696D01*
X118823741Y-82236993D01*
X118879095Y-82225847D01*
X118989304Y-82190112D01*
X119110343Y-82112324D01*
X119163147Y-82066569D01*
X119257367Y-81957835D01*
X119289178Y-81888176D01*
X119296565Y-81875731D01*
X119296543Y-81875719D01*
X119300793Y-81867933D01*
X119300796Y-81867931D01*
X119310588Y-81841675D01*
X119312265Y-81837625D01*
X119317138Y-81826958D01*
X119320442Y-81815701D01*
X119321832Y-81811529D01*
X119322663Y-81809299D01*
X119351091Y-81733083D01*
X119357500Y-81673473D01*
X119357499Y-80138924D01*
X119360842Y-80110325D01*
X119366200Y-80087721D01*
X119366200Y-78426594D01*
X119385885Y-78359555D01*
X119435738Y-78315194D01*
X119500716Y-78283429D01*
X119703095Y-78138932D01*
X119878932Y-77963095D01*
X120023429Y-77760716D01*
X120132644Y-77537313D01*
X120203598Y-77298981D01*
X120234357Y-77052221D01*
X120224080Y-76803763D01*
X120213139Y-76751582D01*
X120210500Y-76726136D01*
X120210500Y-67647018D01*
X120210977Y-67639342D01*
X120212276Y-67628914D01*
X120214357Y-67612221D01*
X120210500Y-67518973D01*
X120210500Y-67487933D01*
X120207936Y-67456994D01*
X120204080Y-67363763D01*
X120198471Y-67337018D01*
X120197364Y-67329415D01*
X120195108Y-67302179D01*
X120172196Y-67211702D01*
X120153049Y-67120386D01*
X120143116Y-67094932D01*
X120140771Y-67087609D01*
X120134064Y-67061123D01*
X120134063Y-67061119D01*
X120120942Y-67031207D01*
X120110500Y-66981400D01*
X120110500Y-62229447D01*
X120110561Y-62226692D01*
X120114290Y-62143670D01*
X120103133Y-62061313D01*
X120102824Y-62058559D01*
X120095377Y-61975815D01*
X120095377Y-61975812D01*
X120088976Y-61952620D01*
X120087303Y-61944445D01*
X120084075Y-61920613D01*
X120058393Y-61841576D01*
X120057596Y-61838918D01*
X120035493Y-61758830D01*
X120035492Y-61758827D01*
X120025058Y-61737160D01*
X120021951Y-61729416D01*
X120014517Y-61706536D01*
X119975135Y-61633352D01*
X119973886Y-61630902D01*
X119957288Y-61596436D01*
X119945937Y-61527496D01*
X119973659Y-61463361D01*
X120031655Y-61424396D01*
X120068577Y-61418638D01*
X137105510Y-61360425D01*
X137172616Y-61379880D01*
G37*
G04 #@! TD.AperFunction*
M02*
